<?xml version="1.0" encoding="UTF-8"?>
<svg version="1.1" xmlns="http://www.w3.org/2000/svg" width="360" height="360">
<path d="M0 0 C0.83171722 0.00021149 1.66343445 0.00042297 2.52035522 0.00064087 C16.5337469 0.0360719 29.95644478 1.09237282 43.625 4.375 C44.76340332 4.63990234 44.76340332 4.63990234 45.92480469 4.91015625 C91.62223004 15.90196457 130.77276056 47.01415579 155.4296875 86.41552734 C172.79039029 114.87488204 181.07827166 146.51850435 181 179.75 C180.99978851 180.58171722 180.99957703 181.41343445 180.99935913 182.27035522 C180.9639281 196.2837469 179.90762718 209.70644478 176.625 223.375 C176.44839844 224.13393555 176.27179688 224.89287109 176.08984375 225.67480469 C165.09803543 271.37223004 133.98584421 310.52276056 94.58447266 335.1796875 C66.12511796 352.54039029 34.48149565 360.82827166 1.25 360.75 C0.41828278 360.74978851 -0.41343445 360.74957703 -1.27035522 360.74935913 C-15.2837469 360.7139281 -28.70644478 359.65762718 -42.375 356.375 C-43.13393555 356.19839844 -43.89287109 356.02179688 -44.67480469 355.83984375 C-90.37223004 344.84803543 -129.52276056 313.73584421 -154.1796875 274.33447266 C-171.54039029 245.87511796 -179.82827166 214.23149565 -179.75 181 C-179.74978851 180.16828278 -179.74957703 179.33656555 -179.74935913 178.47964478 C-179.7139281 164.4662531 -178.65762718 151.04355522 -175.375 137.375 C-175.11009766 136.23659668 -175.11009766 136.23659668 -174.83984375 135.07519531 C-163.84803543 89.37776996 -132.73584421 50.22723944 -93.33447266 25.5703125 C-64.87511796 8.20960971 -33.23149565 -0.07827166 0 0 Z " fill="#CEDDD3" transform="translate(179.375,-0.375)"/>
<path d="M0 0 C0.66 0.66 1.32 1.32 2 2 C4.06874034 2.6425235 4.06874034 2.6425235 6 3 C6 3.66 6 4.32 6 5 C6.66 5.12375 7.32 5.2475 8 5.375 C11 6 11 6 14.6875 7.125 C18.8626133 8.21210497 22.39026018 7.7221143 26.62109375 7.16015625 C30.00806409 6.93213362 32.78688629 7.9884642 36 9 C39.8634659 9.31597119 43.28795257 9.23734914 47 8 C47 8.66 47 9.32 47 10 C47.99 9.814375 48.98 9.62875 50 9.4375 C54.67450278 8.76155357 59.71233608 8.85616804 64 11 C65.134375 10.67 66.26875 10.34 67.4375 10 C71 9 71 9 74 10 C74.33 9.34 74.66 8.68 75 8 C76.75 7.4375 76.75 7.4375 79 7 C83.01883264 6.19879732 86.98457624 5.27530765 90.95703125 4.26953125 C93.24184316 3.96809335 94.81838027 4.30874521 97 5 C96 7 96 7 94.14453125 7.67578125 C93.37496094 7.88589844 92.60539063 8.09601562 91.8125 8.3125 C88.3480685 9.38352299 86.81450824 10.15520739 83.9375 12.5625 C77.67219209 17.76137252 69.80392619 17.52106961 62 17 C61.45408203 16.83806152 60.90816406 16.67612305 60.34570312 16.50927734 C56.90571595 15.76241918 53.45882207 15.76224326 49.953125 15.68359375 C49.18192322 15.66281265 48.41072144 15.64203156 47.6161499 15.62062073 C45.16085428 15.55541428 42.70545479 15.49637516 40.25 15.4375 C38.58202065 15.39428726 36.91405168 15.3506721 35.24609375 15.30664062 C31.16416804 15.19976264 27.08213818 15.09841434 23 15 C23 14.34 23 13.68 23 13 C17.06 12.01 17.06 12.01 11 11 C11 10.34 11 9.68 11 9 C3.65579348 5.78690965 -4.98291783 3.19854255 -13 5 C-15.95839956 7.27691109 -17.96284278 9.89378068 -20 13 C-20.99 14.485 -20.99 14.485 -22 16 C-22.165 17.19625 -22.33 18.3925 -22.5 19.625 C-22.665 20.73875 -22.83 21.8525 -23 23 C-23.66 23.33 -24.32 23.66 -25 24 C-25.33 24.99 -25.66 25.98 -26 27 C-26.66 27.33 -27.32 27.66 -28 28 C-30.44196455 34.75131377 -30.36260022 42.39041397 -30.65844727 49.48999023 C-30.8531378 54.0594917 -31.27603284 58.48268428 -32 63 C-32.66 63 -33.32 63 -34 63 C-34.66 64.65 -35.32 66.3 -36 68 C-41.80225069 59.29662397 -39.73116477 49.34600908 -38.01953125 39.6484375 C-36.73213926 33.21147753 -34.54412704 27.04230172 -32 21 C-31.77441406 20.39929688 -31.54882812 19.79859375 -31.31640625 19.1796875 C-30.62814026 17.41801185 -29.81951216 15.70458528 -29 14 C-28.01 13.67 -27.02 13.34 -26 13 C-25.773125 12.278125 -25.54625 11.55625 -25.3125 10.8125 C-22.83700849 5.50787533 -17.86061398 2.74424559 -12.5625 0.625 C-8.38492843 -0.10790729 -4.22533278 -0.58517847 0 0 Z " fill="#B0C6B7" transform="translate(137,37)"/>
<path d="M0 0 C1.19808302 6.20824838 0.85206851 9.19023081 -2 15 C-4.1889031 21.01850695 -4.1889031 21.01850695 -3 27 C-3.93578995 29.35981813 -4.93347808 31.69631264 -6 34 C-5.34 34 -4.68 34 -4 34 C-4.30852185 35.958964 -4.6219418 37.91715713 -4.9375 39.875 C-5.11152344 40.96554688 -5.28554687 42.05609375 -5.46484375 43.1796875 C-6 46 -6 46 -7 48 C-7.04165763 49.99956611 -7.04165763 52.00043389 -7 54 C-7 54.66 -7 55.32 -7 56 C-6.81824219 56.58136719 -6.63648438 57.16273438 -6.44921875 57.76171875 C-5.86827394 60.6563394 -6.29477279 62.91099283 -6.8125 65.8125 C-6.99941406 66.86953125 -7.18632812 67.9265625 -7.37890625 69.015625 C-7.88310434 71.43831268 -8.48269788 73.71545823 -9.25 76.0625 C-9.4975 77.031875 -9.745 78.00125 -10 79 C-9.34 79.99 -8.68 80.98 -8 82 C-7.5859375 84.59375 -7.5859375 84.59375 -7.375 87.5 C-7.30023438 88.4590625 -7.22546875 89.418125 -7.1484375 90.40625 C-6.89652254 94.80813248 -7.52318524 97.84645849 -9 102 C-9.66 102 -10.32 102 -11 102 C-14.15068892 98.00104868 -14.19129987 94.9737965 -14 90 C-14.33 89.67 -14.66 89.34 -15 89 C-15.25749257 86.972246 -15.51207223 84.94371791 -15.71875 82.91015625 C-15.91037786 80.91911653 -15.91037786 80.91911653 -17 79 C-16.34 79 -15.68 79 -15 79 C-15.495 76.525 -15.495 76.525 -16 74 C-15.34 74 -14.68 74 -14 74 C-14.55312735 69.97007218 -15.1558062 65.97977076 -16 62 C-15.01 61.505 -15.01 61.505 -14 61 C-14.33 60.34 -14.66 59.68 -15 59 C-15.2275015 57.12943209 -15.40962811 55.25314042 -15.5625 53.375 C-15.64628906 52.37210938 -15.73007813 51.36921875 -15.81640625 50.3359375 C-15.87699219 49.56507813 -15.93757812 48.79421875 -16 48 C-15.34 48 -14.68 48 -14 48 C-14.01160156 47.31292969 -14.02320313 46.62585938 -14.03515625 45.91796875 C-14.04417969 45.01691406 -14.05320313 44.11585938 -14.0625 43.1875 C-14.07410156 42.29417969 -14.08570313 41.40085938 -14.09765625 40.48046875 C-14 38 -14 38 -13 35 C-12.90706781 32.93070992 -12.81788106 30.86108089 -12.75952148 28.79052734 C-12.52642144 20.97258876 -11.97471105 14.92369021 -8 8 C-7.34 8 -6.68 8 -6 8 C-6.12375 6.8553125 -6.12375 6.8553125 -6.25 5.6875 C-6 3 -6 3 -4.125 1.1875 C-2 0 -2 0 0 0 Z " fill="#B6C7BD" transform="translate(258,112)"/>
<path d="M0 0 C1.20849609 0.00322266 2.41699219 0.00644531 3.66210938 0.00976562 C5.55606445 0.02233398 5.55606445 0.02233398 7.48828125 0.03515625 C9.39963867 0.04192383 9.39963867 0.04192383 11.34960938 0.04882812 C14.50004689 0.06062752 17.65039074 0.07709028 20.80078125 0.09765625 C20.00547253 3.73650545 18.64890133 5.96159487 16.42578125 8.97265625 C13.8219617 12.58699304 11.61733521 16.03712387 9.80078125 20.09765625 C9.14078125 20.09765625 8.48078125 20.09765625 7.80078125 20.09765625 C7.47078125 21.74765625 7.14078125 23.39765625 6.80078125 25.09765625 C5.81078125 25.42765625 4.82078125 25.75765625 3.80078125 26.09765625 C3.80078125 24.77765625 3.80078125 23.45765625 3.80078125 22.09765625 C2.81078125 22.09765625 1.82078125 22.09765625 0.80078125 22.09765625 C0.24390625 20.92203125 -0.31296875 19.74640625 -0.88671875 18.53515625 C-2.33160059 15.60927052 -3.89807155 13.05674142 -5.88671875 10.47265625 C-8.1604292 7.43871745 -8.91870294 4.93137227 -9.19921875 1.09765625 C-5.90187229 -0.00145924 -3.4696313 -0.01628935 0 0 Z " fill="#E8EEE6" transform="translate(262.19921875,159.90234375)"/>
<path d="M0 0 C0.98291016 0.04833984 1.96582031 0.09667969 2.97851562 0.14648438 C4.51475586 0.2305957 4.51475586 0.2305957 6.08203125 0.31640625 C7.11779297 0.36861328 8.15355469 0.42082031 9.22070312 0.47460938 C11.77895174 0.60429018 14.33681063 0.73925603 16.89453125 0.87890625 C17.22453125 1.53890625 17.55453125 2.19890625 17.89453125 2.87890625 C16.78515625 5.453125 16.78515625 5.453125 15.14453125 8.56640625 C13.34686968 12.00882485 11.6521416 15.35237294 10.33203125 19.00390625 C8.89453125 21.87890625 8.89453125 21.87890625 6.20703125 23.31640625 C5.44390625 23.50203125 4.68078125 23.68765625 3.89453125 23.87890625 C2.39453125 22.50390625 2.39453125 22.50390625 0.89453125 20.87890625 C0.89453125 20.21890625 0.89453125 19.55890625 0.89453125 18.87890625 C0.23453125 18.87890625 -0.42546875 18.87890625 -1.10546875 18.87890625 C-6.093931 13.28177222 -7.87063526 8.2761612 -8.10546875 0.87890625 C-5.02085369 -0.14929877 -3.20861636 -0.16692224 0 0 Z " fill="#E8F1E6" transform="translate(261.10546875,27.12109375)"/>
<path d="M0 0 C0.99 0 1.98 0 3 0 C3.268125 0.598125 3.53625 1.19625 3.8125 1.8125 C4.86831322 4.00443888 4.86831322 4.00443888 6.4375 5.4375 C8.83632306 7.83632306 11 10.52366549 11 14 C11.66 14 12.32 14 13 14 C13.33 16.31 13.66 18.62 14 21 C14.99 21 15.98 21 17 21 C16.67 21.99 16.34 22.98 16 24 C6.76 24.33 -2.48 24.66 -12 25 C-11.10365874 20.51829371 -10.69401038 19.17662179 -8.1875 15.75 C-5.13937005 11.37564044 -3.02531903 6.91269693 -1 2 C-0.67 1.34 -0.34 0.68 0 0 Z " fill="#E8F0E7" transform="translate(86,215)"/>
<path d="M0 0 C2.34534325 1.46583953 3.05796011 2.6808003 4 5.25 C4.66 5.25 5.32 5.25 6 5.25 C6 7.56 6 9.87 6 12.25 C5.38125 12.4975 4.7625 12.745 4.125 13 C1.62519797 14.47047178 1.16683978 15.66403076 0 18.25 C-2.10304477 18.3580023 -4.20766909 18.43558987 -6.3125 18.5 C-8.07013672 18.56960937 -8.07013672 18.56960937 -9.86328125 18.640625 C-13 18.25 -13 18.25 -14.91796875 16.359375 C-16 14.25 -16 14.25 -16 12.25 C-16.66 12.25 -17.32 12.25 -18 12.25 C-19.125 5.5 -19.125 5.5 -18 3.25 C-17.34 3.25 -16.68 3.25 -16 3.25 C-15.67 2.26 -15.34 1.27 -15 0.25 C-10.6123659 -1.94381705 -4.63399224 -1.15849806 0 0 Z " fill="#996F6C" transform="translate(190,115.75)"/>
<path d="M0 0 C0.25 2.75 0.25 2.75 0 6 C-1.30973998 7.3565164 -2.64802142 8.68557638 -4 10 C-5.50824947 12.9298765 -6.77211173 15.94334197 -8 19 C-8.66 19 -9.32 19 -10 19 C-10.99 21.475 -10.99 21.475 -12 24 C-12.66 24 -13.32 24 -14 24 C-14 23.34 -14 22.68 -14 22 C-14.99 21.67 -15.98 21.34 -17 21 C-18.1875 17.9375 -18.1875 17.9375 -19 15 C-19.66 15 -20.32 15 -21 15 C-22.00229368 12.85521084 -23.00192855 10.70925278 -24 8.5625 C-24.8353125 6.77005859 -24.8353125 6.77005859 -25.6875 4.94140625 C-27 2 -27 2 -27 1 C-23.81265063 0.83036895 -20.62510059 0.66483749 -17.4375 0.5 C-16.54224609 0.45230469 -15.64699219 0.40460938 -14.72460938 0.35546875 C-9.80829229 0.10334993 -4.9226912 -0.0540213 0 0 Z " fill="#E7EEE7" transform="translate(35,163)"/>
<path d="M0 0 C2.64969037 2.64969037 2.26142444 4.62550164 2.2734375 8.23242188 C2.26570313 9.04259766 2.25796875 9.85277344 2.25 10.6875 C2.25773437 11.47833984 2.26546875 12.26917969 2.2734375 13.08398438 C2.2569383 18.07911651 1.49286906 22.19556823 0 27 C0 28.32 0 29.64 0 31 C-0.33 31.33 -0.66 31.66 -1 32 C-1.07274004 34.75048278 -0.99625764 37.48768901 -0.9375 40.23828125 C-0.9934896 42.71232163 -1.37004311 44.63136209 -2 47 C-1.938125 48.010625 -1.87625 49.02125 -1.8125 50.0625 C-2.08812005 55.85052101 -3.68167453 62.41055771 -7.63671875 66.828125 C-8.08660156 67.21484375 -8.53648438 67.6015625 -9 68 C-11 65 -11 65 -10.9375 61.9375 C-10 59 -10 59 -7.4375 57.625 C-6.633125 57.41875 -5.82875 57.2125 -5 57 C-5.185625 56.05125 -5.37125 55.1025 -5.5625 54.125 C-6 51 -6 51 -5 49 C-6.485 49.495 -6.485 49.495 -8 50 C-7.91254425 47.60250616 -7.80562925 45.20851779 -7.6875 42.8125 C-7.65366211 41.80219727 -7.65366211 41.80219727 -7.61914062 40.77148438 C-7.38404446 36.39014677 -6.57557314 33.55608624 -4 30 C-4.66 29.67 -5.32 29.34 -6 29 C-6.25 23.375 -6.25 23.375 -4 20 C-3.90079302 16.69166287 -4.06847432 13.43441631 -4.22265625 10.12890625 C-3.97397532 6.63428479 -3.25623322 5.57289753 -1 3 C-0.67 2.01 -0.34 1.02 0 0 Z " fill="#A8BDB1" transform="translate(121,193)"/>
<path d="M0 0 C0.1875 3.125 0.1875 3.125 0 6 C-0.66 6 -1.32 6 -2 6 C-2 14.25 -2 22.5 -2 31 C-1.34 31 -0.68 31 0 31 C-0.99 33.475 -0.99 33.475 -2 36 C-1.34 36 -0.68 36 0 36 C-0.33 36.66 -0.66 37.32 -1 38 C-4.63 36.02 -8.26 34.04 -12 32 C-11.360625 31.2575 -10.72125 30.515 -10.0625 29.75 C-8.21666593 27.2888879 -7.43930826 25.96533074 -7 23 C-8.32 23.33 -9.64 23.66 -11 24 C-10.91621094 23.16597656 -10.83242187 22.33195312 -10.74609375 21.47265625 C-10.1388338 14.76204941 -9.98363527 8.66283545 -11 2 C-10.01 1.67 -9.02 1.34 -8 1 C-7.67 0.34 -7.34 -0.32 -7 -1 C-3.58234953 -2.36706019 -3.25800204 -2.17200136 0 0 Z " fill="#AEBCB2" transform="translate(98,303)"/>
<path d="M0 0 C1.19808302 6.20824838 0.85206851 9.19023081 -2 15 C-4.1889031 21.01850695 -4.1889031 21.01850695 -3 27 C-3.93446535 29.03144641 -4.93224776 31.03533587 -6 33 C-7.65 32.34 -9.3 31.68 -11 31 C-10.34 32.65 -9.68 34.3 -9 36 C-9.99 36 -10.98 36 -12 36 C-11.67 37.65 -11.34 39.3 -11 41 C-11.66 41 -12.32 41 -13 41 C-12.649375 41.556875 -12.29875 42.11375 -11.9375 42.6875 C-10.78154007 45.53886783 -11.19032562 47.08517222 -12 50 C-12.66 50 -13.32 50 -14 50 C-14 52.97 -14 55.94 -14 59 C-14.33 59 -14.66 59 -15 59 C-15.33 55.37 -15.66 51.74 -16 48 C-15.34 48 -14.68 48 -14 48 C-14.01160156 47.31292969 -14.02320313 46.62585938 -14.03515625 45.91796875 C-14.04417969 45.01691406 -14.05320313 44.11585938 -14.0625 43.1875 C-14.07410156 42.29417969 -14.08570313 41.40085938 -14.09765625 40.48046875 C-14 38 -14 38 -13 35 C-12.90706781 32.93070992 -12.81788106 30.86108089 -12.75952148 28.79052734 C-12.52642144 20.97258876 -11.97471105 14.92369021 -8 8 C-7.34 8 -6.68 8 -6 8 C-6.12375 6.8553125 -6.12375 6.8553125 -6.25 5.6875 C-6 3 -6 3 -4.125 1.1875 C-2 0 -2 0 0 0 Z " fill="#B1C5B9" transform="translate(258,112)"/>
<path d="M0 0 C2.475 0.495 2.475 0.495 5 1 C5.10957031 1.6290625 5.21914063 2.258125 5.33203125 2.90625 C6.49991496 9.21092304 7.9329469 15.15072396 10.9921875 20.84765625 C12.24731113 23.52817222 12.92005711 26.18932369 13.625 29.0625 C13.88539063 30.10535156 14.14578125 31.14820313 14.4140625 32.22265625 C15.22054318 36.04537468 14.86975874 38.93666543 14 42.6875 C13.814375 43.49574219 13.62875 44.30398438 13.4375 45.13671875 C13.2209375 46.05904297 13.2209375 46.05904297 13 47 C12.01 47 11.02 47 10 47 C9.01 49.97 8.02 52.94 7 56 C6.01 55.67 5.02 55.34 4 55 C4 54.34 4 53.68 4 53 C4.99 52.505 4.99 52.505 6 52 C6 51.34 6 50.68 6 50 C6.66 50 7.32 50 8 50 C8.67673447 46.59679066 8.67673447 46.59679066 9 43 C8.34 42.34 7.68 41.68 7 41 C6.74641085 38.59090305 6.59492339 36.17054645 6.5 33.75 C6.30150977 28.72819724 5.66380189 24.72763219 4 20 C4.04125 18.865625 4.0825 17.73125 4.125 16.5625 C4.00182034 13.05187972 3.76076892 12.23256674 2 9.4375 C-0.09851347 5.83067997 -0.3976837 4.07625793 0 0 Z " fill="#AFC2B8" transform="translate(259,283)"/>
<path d="M0 0 C0.33 0.99 0.66 1.98 1 3 C1.680625 3.61875 2.36125 4.2375 3.0625 4.875 C5 7 5 7 5.25 9.75 C5.1675 10.4925 5.085 11.235 5 12 C5.66 12 6.32 12 7 12 C6.34 14.31 5.68 16.62 5 19 C5.66 19 6.32 19 7 19 C6.34 20.98 5.68 22.96 5 25 C5.99 25 6.98 25 8 25 C8.3641989 27.5614319 8.71662798 30.12358419 9.0625 32.6875 C9.16626953 33.40873047 9.27003906 34.12996094 9.37695312 34.87304688 C9.9023633 38.84079957 10.10596507 42.07885111 9 46 C7.515 46.495 7.515 46.495 6 47 C6 45.68 6 44.36 6 43 C5.34 43 4.68 43 4 43 C3.52420321 41.09681284 3.04917027 39.19343124 2.578125 37.2890625 C2.20752787 35.8216982 1.82329947 34.3576697 1.421875 32.8984375 C0.31697652 28.81031312 -0.10295679 25.22122858 0 21 C-0.33 20.67 -0.66 20.34 -1 20 C-1.07211665 17.44436629 -0.99633716 14.90339547 -0.9375 12.34765625 C-0.83487207 9.97754593 -0.83487207 9.97754593 -2 8 C-1.66015625 6.0546875 -1.66015625 6.0546875 -1.0625 3.875 C-0.86785156 3.15054688 -0.67320313 2.42609375 -0.47265625 1.6796875 C-0.31667969 1.12539062 -0.16070312 0.57109375 0 0 Z " fill="#B2C1B6" transform="translate(113,132)"/>
<path d="M0 0 C0.12375 0.928125 0.12375 0.928125 0.25 1.875 C0.78810733 4.18346804 0.78810733 4.18346804 3 5 C5 6 5 6 5.75 8.125 C5.87375 9.053125 5.87375 9.053125 6 10 C5.01 10.33 4.02 10.66 3 11 C3 12.32 3 13.64 3 15 C3.99 15 4.98 15 6 15 C5.67 16.65 5.34 18.3 5 20 C3.35 20 1.7 20 0 20 C0 20.66 0 21.32 0 22 C-1.65 22 -3.3 22 -5 22 C-5 20.68 -5 19.36 -5 18 C-5.66 18 -6.32 18 -7 18 C-7 17.34 -7 16.68 -7 16 C-8.65 16 -10.3 16 -12 16 C-12.33 14.68 -12.66 13.36 -13 12 C-12.01 11.34 -11.02 10.68 -10 10 C-10.33 9.01 -10.66 8.02 -11 7 C-10.67 6.34 -10.34 5.68 -10 5 C-8.329375 4.5359375 -8.329375 4.5359375 -6.625 4.0625 C-3.30006694 3.08795066 -2.04787309 2.6501887 0 0 Z " fill="#CEC4C1" transform="translate(248,78)"/>
<path d="M0 0 C2.6875 -0.375 2.6875 -0.375 6 0 C9.61585615 3.22282831 10.77000476 4.80820647 11.6875 9.5625 C10.94555067 13.27224664 9.93644154 14.83871003 6.859375 17.05859375 C3.53220473 18.74314844 0.72496062 18.93791732 -3 19 C-5 17 -5 17 -5.4375 13.4375 C-5.35073947 8.18366791 -2.79111658 4.30629414 0 0 Z " fill="#312B2E" transform="translate(151,92)"/>
<path d="M0 0 C2.88887591 0.83625355 4.07373057 2.11971677 5.58203125 4.69921875 C7.09903812 8.50294533 7.76109452 12.60893791 7.375 16.6875 C5.65142393 18.94907091 4.8793412 19.5920841 2.0625 20.125 C-2.38950154 19.40025556 -5.49087562 16.82162438 -8.625 13.6875 C-9.51129522 6.92949898 -9.51129522 6.92949898 -7.45703125 4.05078125 C-5.15710716 1.98735321 -2.9799132 0.78045346 0 0 Z " fill="#464046" transform="translate(213.625,92.3125)"/>
<path d="M0 0 C0.33 0 0.66 0 1 0 C1 2.64 1 5.28 1 8 C0.01 8.495 0.01 8.495 -1 9 C-1.33 9.99 -1.66 10.98 -2 12 C-2.99 12.495 -2.99 12.495 -4 13 C-7.13031801 21.6544086 -6.6235819 31.90653109 -7 41 C-7.66 41 -8.32 41 -9 41 C-9 41.99 -9 42.98 -9 44 C-9.99 44 -10.98 44 -12 44 C-12.05859857 40.64590806 -12.09379582 37.29194983 -12.125 33.9375 C-12.14175781 32.99455078 -12.15851563 32.05160156 -12.17578125 31.08007812 C-12.21350278 25.6670379 -11.82050537 21.16560358 -10 16 C-9.55720703 14.66582031 -9.55720703 14.66582031 -9.10546875 13.3046875 C-7.12433677 8.06101051 -5.3112785 4.61215225 -1 1 C-0.67 0.67 -0.34 0.34 0 0 Z " fill="#A8B5AA" transform="translate(113,52)"/>
<path d="M0 0 C2 3.75 2 3.75 2 6 C2.66 6 3.32 6 4 6 C4.40476563 6.81210938 4.80953125 7.62421875 5.2265625 8.4609375 C6.7859306 11.30166463 6.7859306 11.30166463 9.9609375 11.6640625 C17.01006189 11.70363134 17.01006189 11.70363134 23.25 8.8125 C24.95306815 6.07542619 25.72635589 4.19251457 26 1 C26.33 1 26.66 1 27 1 C27.296875 8.71875 27.296875 8.71875 25 12 C23.37253306 13.70496537 21.71108689 15.37897032 20 17 C21.98 17.33 23.96 17.66 26 18 C25.67 19.32 25.34 20.64 25 22 C11.3667426 22.55353075 11.3667426 22.55353075 5 19 C5.66 18.67 6.32 18.34 7 18 C7 17.34 7 16.68 7 16 C7.66 16 8.32 16 9 16 C9 15.34 9 14.68 9 14 C8.071875 13.7525 7.14375 13.505 6.1875 13.25 C2.69923829 11.88205423 1.58829909 11.35307586 0 8 C-0.23449967 5.27980385 -0.1370366 2.7407321 0 0 Z " fill="#D1C0BF" transform="translate(170,122)"/>
<path d="M0 0 C8.25 0 16.5 0 25 0 C24 8 24 8 23 10 C16.85244834 10.335321 11.61879081 9.68029846 6 7 C5.67 6.34 5.34 5.68 5 5 C2.47266765 4.34444881 2.47266765 4.34444881 0 4 C0 2.68 0 1.36 0 0 Z " fill="#E5EFE4" transform="translate(138,33)"/>
<path d="M0 0 C0.99 0.33 1.98 0.66 3 1 C2.67 1.99 2.34 2.98 2 4 C2.66 4 3.32 4 4 4 C4 3.34 4 2.68 4 2 C4.66 2 5.32 2 6 2 C6.45375 2.61875 6.9075 3.2375 7.375 3.875 C9.10279389 6.13442278 10.40813228 6.92750301 13 8 C12.67 8.99 12.34 9.98 12 11 C10.35 11 8.7 11 7 11 C7 12.32 7 13.64 7 15 C5.04233719 15.08082094 3.08373272 15.13910778 1.125 15.1875 C0.03445312 15.22230469 -1.05609375 15.25710937 -2.1796875 15.29296875 C-3.11039063 15.19628906 -4.04109375 15.09960938 -5 15 C-7 12 -7 12 -6.75 9.5625 C-6.05282249 7.18047686 -5.20252143 5.16453858 -4 3 C-3.01 3 -2.02 3 -1 3 C-0.67 2.01 -0.34 1.02 0 0 Z " fill="#8E5F5B" transform="translate(181,118)"/>
<path d="M0 0 C0.99 0.33 1.98 0.66 3 1 C3 1.66 3 2.32 3 3 C3.66 3 4.32 3 5 3 C6.89534204 7.65938252 8.13261954 10.96045753 8 16 C8.33 16.969375 8.66 17.93875 9 18.9375 C10.0467905 22.14329592 10.15940537 24.65248723 10 28 C8.02 28.99 8.02 28.99 6 30 C4.09716097 24.63399393 2.5356548 19.33804529 1.4296875 13.75 C1.15616145 11.98346216 1.15616145 11.98346216 0 11 C-0.07226502 9.14712498 -0.0838122 7.29166122 -0.0625 5.4375 C-0.05347656 4.42558594 -0.04445312 3.41367188 -0.03515625 2.37109375 C-0.02355469 1.58863281 -0.01195312 0.80617187 0 0 Z " fill="#AFC0B6" transform="translate(249,242)"/>
<path d="M0 0 C1.875 0.25 1.875 0.25 4 1 C4.68486725 2.32407669 5.34870203 3.65909241 6 5 C6.79921875 5.54785156 7.5984375 6.09570312 8.421875 6.66015625 C11.66960494 9.60771721 12.3980853 12.49232059 13.3125 16.625 C13.48072266 17.305625 13.64894531 17.98625 13.82226562 18.6875 C15 23.55226403 15 23.55226403 15 26 C15.66 26 16.32 26 17 26 C16.67 27.98 16.34 29.96 16 32 C15.01 32 14.02 32 13 32 C12.67 30.35 12.34 28.7 12 27 C11.34 27 10.68 27 10 27 C9.5359375 25.2984375 9.5359375 25.2984375 9.0625 23.5625 C8.37075469 20.21224901 8.37075469 20.21224901 7 19 C6.72891732 17.46190043 6.48327579 15.91928576 6.25 14.375 C5.26639455 9.09379533 3.30236268 6.17140549 0 2 C0 1.34 0 0.68 0 0 Z " fill="#AFC3B5" transform="translate(245,44)"/>
<path d="M0 0 C0.1875 3.125 0.1875 3.125 0 6 C-0.66 6 -1.32 6 -2 6 C-1.938125 7.0828125 -1.938125 7.0828125 -1.875 8.1875 C-2.06905277 12.55368732 -3.59881426 15.3982214 -6 19 C-6.99 18.67 -7.98 18.34 -9 18 C-9.66 12.72 -10.32 7.44 -11 2 C-10.01 1.67 -9.02 1.34 -8 1 C-7.67 0.34 -7.34 -0.32 -7 -1 C-3.58234953 -2.36706019 -3.25800204 -2.17200136 0 0 Z " fill="#AFCABB" transform="translate(98,303)"/>
<path d="M0 0 C7.97040483 -0.1542659 15.91221536 0.10678934 23.875 0.4375 C24.87345947 0.47673584 25.87191895 0.51597168 26.90063477 0.55639648 C31.67534616 0.76552844 36.30154115 1.05234474 41 2 C41 2.66 41 3.32 41 4 C28.46 4 15.92 4 3 4 C3 3.34 3 2.68 3 2 C2.01 2 1.02 2 0 2 C0 1.34 0 0.68 0 0 Z " fill="#A1B1A3" transform="translate(157,48)"/>
<path d="M0 0 C2.375 0.875 2.375 0.875 5 3 C6.08087944 6.27677135 6.52334842 9.59090499 7 13 C7.31517578 14.27810547 7.31517578 14.27810547 7.63671875 15.58203125 C8.21197534 19.4108896 6.67576947 21.58143028 5 25 C4.34 25 3.68 25 3 25 C-0.26551788 20.92798618 -0.3745163 17.19857792 -0.1875 12.1875 C-0.16719727 11.14819336 -0.16719727 11.14819336 -0.14648438 10.08789062 C-0.11138845 8.39158735 -0.05758943 6.69568864 0 5 C0.66 5 1.32 5 2 5 C1.34 3.35 0.68 1.7 0 0 Z " fill="#AFBCB2" transform="translate(244,189)"/>
<path d="M0 0 C2.64969037 2.64969037 2.26142444 4.62550164 2.2734375 8.23242188 C2.26570313 9.04259766 2.25796875 9.85277344 2.25 10.6875 C2.25773437 11.47833984 2.26546875 12.26917969 2.2734375 13.08398438 C2.25687657 18.09780726 1.60317874 22.24772017 0 27 C-0.33 27 -0.66 27 -1 27 C-1 25.02 -1 23.04 -1 21 C-3.51083114 22.25541557 -3.87125446 23.50063488 -5 26 C-5.33 25.01 -5.66 24.02 -6 23 C-5.01 21.515 -5.01 21.515 -4 20 C-3.90079302 16.69166287 -4.06847432 13.43441631 -4.22265625 10.12890625 C-3.97397532 6.63428479 -3.25623322 5.57289753 -1 3 C-0.67 2.01 -0.34 1.02 0 0 Z " fill="#B4C9BE" transform="translate(121,193)"/>
<path d="M0 0 C0.33 0.99 0.66 1.98 1 3 C0.67 3.66 0.34 4.32 0 5 C0.66 5 1.32 5 2 5 C1.5694611 9.04706565 0.8662237 12.59874462 -0.5 16.4375 C-1.98253281 20.64644682 -2.59652821 24.56181028 -3 29 C-4.98 29 -6.96 29 -9 29 C-8.67 28.05125 -8.34 27.1025 -8 26.125 C-6.74108089 22.43025905 -6.74108089 22.43025905 -8 19 C-7.109375 16.93359375 -7.109375 16.93359375 -5.75 14.4375 C-3.29625466 9.74189262 -1.50661202 5.07103557 0 0 Z " fill="#C8C6C0" transform="translate(208,330)"/>
<path d="M0 0 C1.16402344 -0.02126953 1.16402344 -0.02126953 2.3515625 -0.04296875 C4.375 0.1875 4.375 0.1875 6.375 2.1875 C8.44374034 2.8300235 8.44374034 2.8300235 10.375 3.1875 C10.375 3.8475 10.375 4.5075 10.375 5.1875 C11.035 5.31125 11.695 5.435 12.375 5.5625 C15.375 6.1875 15.375 6.1875 19.0625 7.3125 C23.22744185 8.39695656 26.74476202 7.91511701 30.96484375 7.34765625 C34.49686178 7.11295165 37.07789932 7.96900627 40.375 9.1875 C40.375 9.5175 40.375 9.8475 40.375 10.1875 C39.34560303 10.17964478 39.34560303 10.17964478 38.29541016 10.17163086 C35.19694936 10.15089044 32.09850314 10.13784924 29 10.125 C27.91976562 10.11662109 26.83953125 10.10824219 25.7265625 10.09960938 C24.6953125 10.09638672 23.6640625 10.09316406 22.6015625 10.08984375 C21.17191162 10.08198853 21.17191162 10.08198853 19.71337891 10.07397461 C17.35175594 10.03107401 17.35175594 10.03107401 15.375 11.1875 C15.375 10.5275 15.375 9.8675 15.375 9.1875 C9.78138872 6.74029506 4.1191591 5.30667823 -1.9375 4.75 C-5.625 4.1875 -5.625 4.1875 -7.625 2.625 C-7.955 2.150625 -8.285 1.67625 -8.625 1.1875 C-5.6969073 0.3518571 -3.04323857 0.02544514 0 0 Z " fill="#BBCABE" transform="translate(132.625,36.8125)"/>
<path d="M0 0 C1.9375 1.125 1.9375 1.125 2.9375 3.125 C0.6275 2.465 -1.6825 1.805 -4.0625 1.125 C-4.0625 1.785 -4.0625 2.445 -4.0625 3.125 C-5.7125 3.125 -7.3625 3.125 -9.0625 3.125 C-9.3925 3.785 -9.7225 4.445 -10.0625 5.125 C-11.0525 5.785 -12.0425 6.445 -13.0625 7.125 C-13.578125 7.99125 -14.09375 8.8575 -14.625 9.75 C-15.099375 10.53375 -15.57375 11.3175 -16.0625 12.125 C-16.7225 12.125 -17.3825 12.125 -18.0625 12.125 C-19.1875 5.375 -19.1875 5.375 -18.0625 3.125 C-17.4025 3.125 -16.7425 3.125 -16.0625 3.125 C-15.7325 2.135 -15.4025 1.145 -15.0625 0.125 C-10.64658452 -2.08295774 -4.6166076 -1.31903074 0 0 Z " fill="#9C7775" transform="translate(190.0625,115.875)"/>
<path d="M0 0 C0.66 0.66 1.32 1.32 2 2 C1.67 2.66 1.34 3.32 1 4 C1.66 4 2.32 4 3 4 C4.07525194 6.65228812 5.09456151 9.28368454 6 12 C6.66 12 7.32 12 8 12 C7.35494404 15.48330216 6.01782732 18.09432866 4 21 C3.34 21 2.68 21 2 21 C2 21.66 2 22.32 2 23 C1.34 23 0.68 23 0 23 C0 22.34 0 21.68 0 21 C-0.66 21 -1.32 21 -2 21 C-1 17 -1 17 -0.46875 15.28125 C0.15591579 12.24120983 0.09350495 9.35049457 0.0625 6.25 C0.04896484 4.49429688 0.04896484 4.49429688 0.03515625 2.703125 C0.02355469 1.81109375 0.01195312 0.9190625 0 0 Z " fill="#ADBFB2" transform="translate(258,78)"/>
<path d="M0 0 C2.52588702 2.36292656 3.88820837 3.66462511 5 7 C5.99 6.01 6.98 5.02 8 4 C8 7.96 8 11.92 8 16 C6.35 16.33 4.7 16.66 3 17 C2.67 17.66 2.34 18.32 2 19 C0.04978464 12.53991163 -0.22262303 6.7281627 0 0 Z " fill="#ABBDB2" transform="translate(247,217)"/>
<path d="M0 0 C0.87840996 3.09720845 0.99435406 4.90645403 0 8 C-0.66 8 -1.32 8 -2 8 C-2.02696009 10.7708983 -2.04681952 13.5415345 -2.0625 16.3125 C-2.07087891 17.09818359 -2.07925781 17.88386719 -2.08789062 18.69335938 C-2.09111328 19.45068359 -2.09433594 20.20800781 -2.09765625 20.98828125 C-2.10289307 21.68477783 -2.10812988 22.38127441 -2.11352539 23.09887695 C-2.06895991 25.22497968 -2.06895991 25.22497968 -1 28 C-1.99 28 -2.98 28 -4 28 C-3.67 29.65 -3.34 31.3 -3 33 C-3.66 33 -4.32 33 -5 33 C-4.649375 33.556875 -4.29875 34.11375 -3.9375 34.6875 C-2.78154007 37.53886783 -3.19032562 39.08517222 -4 42 C-4.66 42 -5.32 42 -6 42 C-6 44.97 -6 47.94 -6 51 C-6.33 51 -6.66 51 -7 51 C-7.33 47.37 -7.66 43.74 -8 40 C-7.34 40 -6.68 40 -6 40 C-6.01160156 39.31292969 -6.02320313 38.62585938 -6.03515625 37.91796875 C-6.04417969 37.01691406 -6.05320313 36.11585938 -6.0625 35.1875 C-6.07410156 34.29417969 -6.08570313 33.40085938 -6.09765625 32.48046875 C-6 30 -6 30 -5 27 C-4.90706781 24.93070992 -4.81788106 22.86108089 -4.75952148 20.79052734 C-4.52642144 12.97258876 -3.97471105 6.92369021 0 0 Z " fill="#BFCCC6" transform="translate(250,120)"/>
<path d="M0 0 C2.475 0.495 2.475 0.495 5 1 C5.13277344 1.71027344 5.26554687 2.42054688 5.40234375 3.15234375 C5.57894531 4.07144531 5.75554687 4.99054688 5.9375 5.9375 C6.19853516 7.31228516 6.19853516 7.31228516 6.46484375 8.71484375 C6.77714988 10.95289844 6.77714988 10.95289844 8 12 C8.04063832 13.66617115 8.042721 15.33388095 8 17 C7.34 17 6.68 17 6 17 C6 19.31 6 21.62 6 24 C4.27435326 21.30367698 4.0016152 19.95719716 4.125 16.6875 C4.00298147 13.08795348 3.80075903 12.28345483 2 9.4375 C-0.09851347 5.83067997 -0.3976837 4.07625793 0 0 Z " fill="#B9C0BA" transform="translate(259,283)"/>
<path d="M0 0 C1.20446777 0.01047363 2.40893555 0.02094727 3.64990234 0.03173828 C5.60283203 0.04140625 5.60283203 0.04140625 7.59521484 0.05126953 C8.9754258 0.06798149 10.35563413 0.08491139 11.73583984 0.10205078 C13.12385436 0.11208072 14.51187574 0.12120655 15.89990234 0.12939453 C19.3037201 0.15303215 22.70719491 0.18598211 26.11083984 0.22705078 C26.26191205 5.06094763 25.99768002 7.08679476 22.79833984 10.78955078 C20.2537307 13.83179518 18.13778184 16.81325374 16.11083984 20.22705078 C15.45083984 20.55705078 14.79083984 20.88705078 14.11083984 21.22705078 C15.41891354 16.59058014 17.24531918 13.34969745 20.17333984 9.53955078 C23.16398171 5.66289334 23.16398171 5.66289334 25.11083984 1.22705078 C15.21083984 1.55705078 5.31083984 1.88705078 -4.88916016 2.22705078 C-2.88916016 0.22705078 -2.88916016 0.22705078 0 0 Z " fill="#D8E4DB" transform="translate(257.88916015625,158.77294921875)"/>
<path d="M0 0 C2.72692609 1.36346305 3.2853188 3.30030137 4.41015625 6.03125 C5.30190699 9.00768955 5.05715676 11.91353494 5 15 C5.8974827 17.83378132 5.8974827 17.83378132 7 20 C5.35 20 3.7 20 2 20 C-1.62870159 6.3667426 -1.62870159 6.3667426 0 0 Z " fill="#C1BCB4" transform="translate(153,339)"/>
<path d="M0 0 C0.57421875 1.91796875 0.57421875 1.91796875 1 4 C-0.1875 5.3125 -0.1875 5.3125 -2 7 C-4.35498997 10.56289996 -6.01674341 13.83919844 -7 18 C-2.54114074 17.89055285 1.91684156 17.75982334 6.375 17.625 C7.64601563 17.5940625 8.91703125 17.563125 10.2265625 17.53125 C12.04414062 17.47324219 12.04414062 17.47324219 13.8984375 17.4140625 C15.01911621 17.3826416 16.13979492 17.3512207 17.29443359 17.31884766 C20.14710412 17.26588797 20.14710412 17.26588797 22 15 C21.67 16.32 21.34 17.64 21 19 C5.655 19.495 5.655 19.495 -10 20 C-8.96330275 12.74311927 -8.96330275 12.74311927 -5 9 C-3.20226774 6.06847069 -1.58947173 3.04865889 0 0 Z " fill="#D9E6DC" transform="translate(82,221)"/>
<path d="M0 0 C4.875 1.875 4.875 1.875 6 3 C6.3125 5.375 6.3125 5.375 6 8 C4.5 9.8125 4.5 9.8125 2 11 C-0.72079845 11.23884872 -3.25814068 11.13709297 -6 11 C-5.67 9.68 -5.34 8.36 -5 7 C-4.34 7 -3.68 7 -3 7 C-3 6.34 -3 5.68 -3 5 C-1.68 5 -0.36 5 1 5 C1 4.01 1 3.02 1 2 C0.34 1.67 -0.32 1.34 -1 1 C-0.67 0.67 -0.34 0.34 0 0 Z " fill="#2B252D" transform="translate(213,97)"/>
<path d="M0 0 C0.40989308 7.65133742 -1.36525801 13.2897071 -5 20 C-5.66 20 -6.32 20 -7 20 C-5.85578886 5.57691747 -5.85578886 5.57691747 -4 1 C-1 0 -1 0 0 0 Z " fill="#AFBFB3" transform="translate(256,114)"/>
<path d="M0 0 C0.33 0.99 0.66 1.98 1 3 C1.680625 3.61875 2.36125 4.2375 3.0625 4.875 C5 7 5 7 5.25 9.75 C5.1675 10.4925 5.085 11.235 5 12 C5.66 12 6.32 12 7 12 C6.67 12.66 6.34 13.32 6 14 C5.34 13.67 4.68 13.34 4 13 C4 12.01 4 11.02 4 10 C3.01 10.495 3.01 10.495 2 11 C2.020625 12.11375 2.04125 13.2275 2.0625 14.375 C2 18 2 18 1 20 C1.66 20 2.32 20 3 20 C2.67 20.99 2.34 21.98 2 23 C0.5078125 21.81640625 0.5078125 21.81640625 -1 20 C-1.2578125 17.58984375 -1.2578125 17.58984375 -1.125 14.9375 C-0.87190234 11.32764113 -0.87190234 11.32764113 -2 8 C-1.66015625 6.0546875 -1.66015625 6.0546875 -1.0625 3.875 C-0.86785156 3.15054688 -0.67320313 2.42609375 -0.47265625 1.6796875 C-0.31667969 1.12539062 -0.16070312 0.57109375 0 0 Z " fill="#B6C6BA" transform="translate(113,132)"/>
<path d="M0 0 C0.33 0.99 0.66 1.98 1 3 C0.01 3.495 0.01 3.495 -1 4 C-0.67 5.32 -0.34 6.64 0 8 C-1.32 8 -2.64 8 -4 8 C-4 8.66 -4 9.32 -4 10 C-6 11.625 -6 11.625 -8 13 C-9 12 -9 12 -9.09765625 10.15234375 C-9.06510417 8.1015625 -9.03255208 6.05078125 -9 4 C-2.25 0 -2.25 0 0 0 Z " fill="#333136" transform="translate(214,94)"/>
<path d="M0 0 C2.8712693 1.28712072 5.04443308 2.50252899 7 5 C7.546875 7.15625 7.546875 7.15625 7.75 9.5 C7.86601562 10.66015625 7.86601562 10.66015625 7.984375 11.84375 C8 14 8 14 7 17 C5.68 16.34 4.36 15.68 3 15 C3 13.68 3 12.36 3 11 C2.34 10.67 1.68 10.34 1 10 C0.5859375 7.71484375 0.5859375 7.71484375 0.375 4.9375 C0.30023438 4.01839844 0.22546875 3.09929687 0.1484375 2.15234375 C0.09945313 1.44207031 0.05046875 0.73179687 0 0 Z " fill="#ABBCB2" transform="translate(264,299)"/>
<path d="M0 0 C2.475 0.99 2.475 0.99 5 2 C4.7834375 3.33804688 4.7834375 3.33804688 4.5625 4.703125 C4.376875 5.87359375 4.19125 7.0440625 4 8.25 C3.814375 9.41015625 3.62875 10.5703125 3.4375 11.765625 C2.91063669 15.11667846 2.91063669 15.11667846 3 19 C3 19.66 3 20.32 3 21 C2.01 20.67 1.02 20.34 0 20 C-0.144375 18.906875 -0.28875 17.81375 -0.4375 16.6875 C-0.88288104 13.06877013 -0.88288104 13.06877013 -2 10 C-1.34 10 -0.68 10 0 10 C-0.33 8.35 -0.66 6.7 -1 5 C-0.01 5 0.98 5 2 5 C1.34 3.35 0.68 1.7 0 0 Z " fill="#A7B9B0" transform="translate(247,143)"/>
<path d="M0 0 C0.33 1.32 0.66 2.64 1 4 C1.99 4 2.98 4 4 4 C4.94693195 7.7016431 5.30443767 9.39112465 3.5625 12.875 C3.046875 13.57625 2.53125 14.2775 2 15 C2.66 15 3.32 15 4 15 C4.33 15.99 4.66 16.98 5 18 C3.0625 17.4375 3.0625 17.4375 1 16 C0.25 12.375 0.25 12.375 0 9 C-0.99 9 -1.98 9 -3 9 C-3.33 7.35 -3.66 5.7 -4 4 C-2.68 4 -1.36 4 0 4 C0 2.68 0 1.36 0 0 Z " fill="#CBD0CA" transform="translate(254,84)"/>
<path d="M0 0 C0 0.33 0 0.66 0 1 C-1.06927734 1.07734375 -1.06927734 1.07734375 -2.16015625 1.15625 C-7.76218828 1.81974774 -11.25023629 2.54261565 -15 6.9375 C-16.00801069 8.2857143 -17.00860264 9.63952264 -18 11 C-20.45649029 13.61436242 -23.17758689 15.78783837 -26 18 C-23.2619257 10.47029567 -20.44036227 5.39179846 -13.59375 1.08984375 C-9.12650362 -0.78720706 -4.74727724 -0.47916443 0 0 Z " fill="#B0C2B5" transform="translate(135,39)"/>
<path d="M0 0 C0.66 0 1.32 0 2 0 C1.125 4.875 1.125 4.875 0 6 C-0.07179964 7.51928038 -0.08392007 9.04167482 -0.0625 10.5625 C-0.05347656 11.38878906 -0.04445312 12.21507813 -0.03515625 13.06640625 C-0.02355469 13.70449219 -0.01195312 14.34257813 0 15 C-0.66 15 -1.32 15 -2 15 C-2 15.99 -2 16.98 -2 18 C-0.68 18.33 0.64 18.66 2 19 C-0.375 19.125 -0.375 19.125 -3 19 C-5 17 -5 17 -5.4375 13.4375 C-5.35073947 8.18366791 -2.79111658 4.30629414 0 0 Z " fill="#686666" transform="translate(151,92)"/>
<path d="M0 0 C0.33 1.32 0.66 2.64 1 4 C1.66 4 2.32 4 3 4 C5.83022097 7.99560608 4.76210446 11.42737323 4 16 C3.67 16 3.34 16 3 16 C2.566875 14.63875 2.566875 14.63875 2.125 13.25 C1.23468224 10.67797092 0.28505587 8.38653234 -1 6 C-4.62885324 5.84850702 -4.62885324 5.84850702 -8 7 C-8 5.68 -8 4.36 -8 3 C-5.36 2.01 -2.72 1.02 0 0 Z " fill="#C8C3C2" transform="translate(217,88)"/>
<path d="M0 0 C0.66 0.33 1.32 0.66 2 1 C2 2.98 2 4.96 2 7 C2.66 7 3.32 7 4 7 C3.34 8.65 2.68 10.3 2 12 C2.66 12 3.32 12 4 12 C3.67 12.66 3.34 13.32 3 14 C-0.63 12.02 -4.26 10.04 -8 8 C-6.35 6.68 -4.7 5.36 -3 4 C-2.67 5.32 -2.34 6.64 -2 8 C-1.34 7.67 -0.68 7.34 0 7 C0 5.68 0 4.36 0 3 C-0.66 2.67 -1.32 2.34 -2 2 C-1.34 1.34 -0.68 0.68 0 0 Z " fill="#BBC8BB" transform="translate(94,327)"/>
<path d="M0 0 C0.66 0.33 1.32 0.66 2 1 C2 1.66 2 2.32 2 3 C3.32 3 4.64 3 6 3 C6 5.31 6 7.62 6 10 C5.34 10 4.68 10 4 10 C3.01 11.485 3.01 11.485 2 13 C1.01 12.67 0.02 12.34 -1 12 C-1.02687279 10.18757948 -1.04633715 8.37504767 -1.0625 6.5625 C-1.07410156 5.55316406 -1.08570312 4.54382813 -1.09765625 3.50390625 C-1 1 -1 1 0 0 Z " fill="#DBDAD9" transform="translate(108,86)"/>
<path d="M0 0 C0.33 0 0.66 0 1 0 C0.64134677 7.41216681 -1.35920537 12.56479472 -5 19 C-6.5 17.69140625 -6.5 17.69140625 -8 16 C-8 12.9375 -8 12.9375 -7 10 C-4.4375 8.625 -4.4375 8.625 -2 8 C-2.33 6.68 -2.66 5.36 -3 4 C-2.34 4 -1.68 4 -1 4 C-0.67 2.68 -0.34 1.36 0 0 Z " fill="#AFC3BA" transform="translate(118,242)"/>
<path d="M0 0 C2 3.75 2 3.75 2 6 C2.66 6 3.32 6 4 6 C4.4021875 6.8146875 4.804375 7.629375 5.21875 8.46875 C6.79002765 11.32185333 6.79002765 11.32185333 10.03125 11.59375 C11.74828125 11.54734375 11.74828125 11.54734375 13.5 11.5 C15.21703125 11.48453125 15.21703125 11.48453125 16.96875 11.46875 C20.15341338 10.97627628 21.11298325 10.53399393 23 8 C22.125 11.875 22.125 11.875 21 13 C18.75843949 13.31686981 16.5053004 13.55348005 14.25 13.75 C12.40148437 13.92789063 12.40148437 13.92789063 10.515625 14.109375 C6.6439107 13.98892167 5.01634889 13.36533834 2 11 C-0.67927341 6.98108988 -0.15601248 4.75838077 0 0 Z " fill="#CBB5B1" transform="translate(170,122)"/>
<path d="M0 0 C0 0.99 0 1.98 0 3 C-3.34939881 5.02558881 -5.86962551 5.21738987 -9.75 5.125 C-10.73484375 5.10695313 -11.7196875 5.08890625 -12.734375 5.0703125 C-13.85585937 5.03550781 -13.85585937 5.03550781 -15 5 C-15 4.01 -15 3.02 -15 2 C-13.06302033 1.66365624 -11.12539514 1.33102835 -9.1875 1 C-7.56908203 0.7215625 -7.56908203 0.7215625 -5.91796875 0.4375 C-3 0 -3 0 0 0 Z " fill="#A0B1A5" transform="translate(214,49)"/>
<path d="M0 0 C1.65 1.32 3.3 2.64 5 4 C5.26953125 7.234375 5.26953125 7.234375 4.8125 10.75 C4.67457031 11.92046875 4.53664062 13.0909375 4.39453125 14.296875 C4.26433594 15.18890625 4.13414062 16.0809375 4 17 C3.34 16.34 2.68 15.68 2 15 C2 14.01 2 13.02 2 12 C1.01 12.33 0.02 12.66 -1 13 C-0.67 8.71 -0.34 4.42 0 0 Z " fill="#ADBEB4" transform="translate(245,163)"/>
<path d="M0 0 C2.64 0.33 5.28 0.66 8 1 C8.33 1.99 8.66 2.98 9 4 C7.3125 6.0625 7.3125 6.0625 5 8 C2.25 7.75 2.25 7.75 0 7 C-1.125 2.25 -1.125 2.25 0 0 Z " fill="#D3C7C1" transform="translate(114,90)"/>
<path d="M0 0 C0.66 0.33 1.32 0.66 2 1 C2.33333333 2.66666667 2.66666667 4.33333333 3 6 C3.66 6.33 4.32 6.66 5 7 C5.33 5.68 5.66 4.36 6 3 C7.0625 4.8125 7.0625 4.8125 8 7 C7.67 7.99 7.34 8.98 7 10 C5.68 9.67 4.36 9.34 3 9 C2.87625 9.804375 2.7525 10.60875 2.625 11.4375 C2.41875 12.283125 2.2125 13.12875 2 14 C1.01 14.495 1.01 14.495 0 15 C-0.19448477 12.87562788 -0.38038289 10.75046809 -0.5625 8.625 C-0.66691406 7.44164062 -0.77132813 6.25828125 -0.87890625 5.0390625 C-1 2 -1 2 0 0 Z " fill="#ACC0B6" transform="translate(266,309)"/>
<path d="M0 0 C2 2 2 2 2.1953125 5.0390625 C2.17210938 6.22242188 2.14890625 7.40578125 2.125 8.625 C2.10695313 9.81351563 2.08890625 11.00203125 2.0703125 12.2265625 C2.04710938 13.14179688 2.02390625 14.05703125 2 15 C0.68 15.33 -0.64 15.66 -2 16 C-2.05449838 14.27119018 -2.09301688 12.54187288 -2.125 10.8125 C-2.14820312 9.84957031 -2.17140625 8.88664063 -2.1953125 7.89453125 C-1.9913544 4.87187222 -1.26874632 2.73230015 0 0 Z " fill="#AEBEB5" transform="translate(121,193)"/>
<path d="M0 0 C1.19808302 6.20824838 0.85206851 9.19023081 -2 15 C-2.75415184 17.31697251 -3.37481712 19.64354147 -4 22 C-4.33 22 -4.66 22 -5 22 C-5.16208171 17.13754861 -5.22488737 14.31071927 -3 10 C-2.9222654 7.66796188 -2.91032272 5.33160941 -3 3 C-3.66 2.67 -4.32 2.34 -5 2 C-2 0 -2 0 0 0 Z " fill="#B8CDBD" transform="translate(258,112)"/>
<path d="M0 0 C0.66 0 1.32 0 2 0 C2.33 1.65 2.66 3.3 3 5 C3.99 5.33 4.98 5.66 6 6 C5.01 8.64 4.02 11.28 3 14 C2.34 14 1.68 14 1 14 C-0.35925589 11.28148823 -0.06268395 9.00882974 0 6 C0 5.34 0 4.68 0 4 C0 2.68 0 1.36 0 0 Z " fill="#9EA89F" transform="translate(246,200)"/>
<path d="M0 0 C0.66 0 1.32 0 2 0 C2 0.99 2 1.98 2 3 C2.66 3 3.32 3 4 3 C3.67 4.98 3.34 6.96 3 9 C3.66 9 4.32 9 5 9 C4.34 10.32 3.68 11.64 3 13 C2.34 13 1.68 13 1 13 C1 12.01 1 11.02 1 10 C0.34 10 -0.32 10 -1 10 C-1.02689216 8.52093108 -1.04634621 7.04172517 -1.0625 5.5625 C-1.07410156 4.73878906 -1.08570312 3.91507813 -1.09765625 3.06640625 C-1 1 -1 1 0 0 Z " fill="#A7B5AA" transform="translate(115,142)"/>
<path d="M0 0 C1.32 1.65 2.64 3.3 4 5 C3.01 5.33 2.02 5.66 1 6 C1.33 6.99 1.66 7.98 2 9 C1.34 9 0.68 9 0 9 C0.33 9.66 0.66 10.32 1 11 C1.039992 12.99960012 1.04346799 15.00047242 1 17 C0.34 16.67 -0.32 16.34 -1 16 C-1.28926947 13.97511372 -1.57272154 11.94755984 -1.75390625 9.91015625 C-1.90406878 7.91747967 -1.90406878 7.91747967 -3 6 C-2.34 6 -1.68 6 -1 6 C-1.33 4.35 -1.66 2.7 -2 1 C-1.34 0.67 -0.68 0.34 0 0 Z " fill="#BEC8C2" transform="translate(244,185)"/>
<path d="M0 0 C0.33 0 0.66 0 1 0 C1 2.64 1 5.28 1 8 C0.236875 8.268125 -0.52625 8.53625 -1.3125 8.8125 C-3.88955904 9.95120051 -5.14113563 10.95524919 -7 13 C-7.33 13 -7.66 13 -8 13 C-7.67 9.37 -7.34 5.74 -7 2 C-6.67 2 -6.34 2 -6 2 C-5.814375 3.2065625 -5.814375 3.2065625 -5.625 4.4375 C-5.41875 5.283125 -5.2125 6.12875 -5 7 C-4.34 7.33 -3.68 7.66 -3 8 C-2.690625 7.05125 -2.38125 6.1025 -2.0625 5.125 C-1 2 -1 2 0 0 Z " fill="#B7C9BE" transform="translate(95,314)"/>
<path d="M0 0 C0.66 0.33 1.32 0.66 2 1 C2 5.29 2 9.58 2 14 C1.34 14 0.68 14 0 14 C-2.47120419 6.12303665 -2.47120419 6.12303665 -2 2 C-1.34 1.34 -0.68 0.68 0 0 Z " fill="#A3B3A8" transform="translate(252,247)"/>
<path d="M0 0 C0.66 0.66 1.32 1.32 2 2 C1.01 3.485 1.01 3.485 0 5 C-0.38499891 6.65549531 -0.72793135 8.3222433 -1 10 C-0.34 9.835 0.32 9.67 1 9.5 C7.13347979 8.47775337 12.9223294 8.9870549 19 10 C19 10.33 19 10.66 19 11 C12.07 11 5.14 11 -2 11 C-2 3.125 -2 3.125 0 0 Z " fill="#DBE8DD" transform="translate(321,226)"/>
<path d="M0 0 C2.015625 1.515625 2.015625 1.515625 4 4 C4.12958424 6.76839049 4.0727725 9.03973571 3.75 11.75 C3.68425781 12.44738281 3.61851562 13.14476562 3.55078125 13.86328125 C3.38640673 15.57747263 3.19577346 17.28911023 3 19 C-0.73959528 15.26040472 -0.05603539 10.14799979 -0.0625 5.125 C-0.04655506 3.41661405 -0.02735618 1.70824133 0 0 Z " fill="#BDCAC3" transform="translate(247,217)"/>
<path d="M0 0 C0.33 0 0.66 0 1 0 C1 5.28 1 10.56 1 16 C1.99 16 2.98 16 4 16 C4.33 15.01 4.66 14.02 5 13 C5 15.31 5 17.62 5 20 C4.34 20 3.68 20 3 20 C3 20.66 3 21.32 3 22 C2.34 22 1.68 22 1 22 C0.05862745 19.17588235 -0.11725382 17.47081968 -0.09765625 14.55078125 C-0.09443359 13.70322266 -0.09121094 12.85566406 -0.08789062 11.98242188 C-0.07951172 11.10134766 -0.07113281 10.22027344 -0.0625 9.3125 C-0.05798828 8.41982422 -0.05347656 7.52714844 -0.04882812 6.60742188 C-0.03704983 4.40488013 -0.02060164 2.20247401 0 0 Z " fill="#ACBCB0" transform="translate(100,80)"/>
<path d="M0 0 C0 2.62113708 -0.31292445 4.50935112 -1 7 C-1.66 7 -2.32 7 -3 7 C-2.67 7.99 -2.34 8.98 -2 10 C-2.99 10 -3.98 10 -5 10 C-5 10.66 -5 11.32 -5 12 C-4.34 12 -3.68 12 -3 12 C-3 12.66 -3 13.32 -3 14 C-4.98 14.66 -6.96 15.32 -9 16 C-9 15.34 -9 14.68 -9 14 C-8.34 14 -7.68 14 -7 14 C-6.71125 12.948125 -6.4225 11.89625 -6.125 10.8125 C-3.65306122 2.43537415 -3.65306122 2.43537415 0 0 Z " fill="#C2CBC8" transform="translate(268,326)"/>
<path d="M0 0 C0.66 0 1.32 0 2 0 C3.99785435 4.1205746 4.17835515 7.45194365 4 12 C3.01 12.33 2.02 12.66 1 13 C0.63447197 11.58622218 0.28304505 10.16879424 -0.0625 8.75 C-0.25972656 7.96109375 -0.45695312 7.1721875 -0.66015625 6.359375 C-1.01497267 3.89605178 -0.76877544 2.34395868 0 0 Z " fill="#A5B4A9" transform="translate(117,158)"/>
<path d="M0 0 C7.46712067 0.01619766 14.80594823 0.2847423 22.2265625 1.1328125 C22.2265625 1.4628125 22.2265625 1.7928125 22.2265625 2.1328125 C14.3065625 2.1328125 6.3865625 2.1328125 -1.7734375 2.1328125 C-2.1034375 3.1228125 -2.4334375 4.1128125 -2.7734375 5.1328125 C-3.3359375 3.1953125 -3.3359375 3.1953125 -3.7734375 1.1328125 C-2.7734375 0.1328125 -2.7734375 0.1328125 0 0 Z " fill="#D7E9DB" transform="translate(254.7734375,25.8671875)"/>
<path d="M0 0 C0 3.3 0 6.6 0 10 C-1.98 10.99 -1.98 10.99 -4 12 C-5.01661577 7.62855218 -5.16888759 4.99531924 -3 1 C-1 0 -1 0 0 0 Z " fill="#A1B1A8" transform="translate(96,304)"/>
<path d="M0 0 C8.92903333 0.17640947 8.92903333 0.17640947 12.6953125 2.36328125 C13.0253125 3.02328125 13.3553125 3.68328125 13.6953125 4.36328125 C11.3853125 3.70328125 9.0753125 3.04328125 6.6953125 2.36328125 C6.6953125 3.02328125 6.6953125 3.68328125 6.6953125 4.36328125 C6.0353125 4.36328125 5.3753125 4.36328125 4.6953125 4.36328125 C4.6953125 3.70328125 4.6953125 3.04328125 4.6953125 2.36328125 C1.3953125 2.69328125 -1.9046875 3.02328125 -5.3046875 3.36328125 C-2.3046875 0.36328125 -2.3046875 0.36328125 0 0 Z " fill="#B49D9B" transform="translate(179.3046875,114.63671875)"/>
<path d="M0 0 C0.33 0.99 0.66 1.98 1 3 C1.66 3 2.32 3 3 3 C2.35494404 6.48330216 1.01782732 9.09432866 -1 12 C-1.66 12 -2.32 12 -3 12 C-3 12.66 -3 13.32 -3 14 C-3.66 14 -4.32 14 -5 14 C-5 13.34 -5 12.68 -5 12 C-5.66 12 -6.32 12 -7 12 C-6.67 10.68 -6.34 9.36 -6 8 C-5.34 8.66 -4.68 9.32 -4 10 C-3.34 9.67 -2.68 9.34 -2 9 C-1.31270746 6.88153715 -1.31270746 6.88153715 -0.875 4.4375 C-0.70742188 3.61121094 -0.53984375 2.78492187 -0.3671875 1.93359375 C-0.24601562 1.29550781 -0.12484375 0.65742187 0 0 Z " fill="#B7CABC" transform="translate(263,87)"/>
<path d="M0 0 C-1 2 -1 2 -2.890625 2.66796875 C-10.6991046 4.38738561 -10.6991046 4.38738561 -15 3 C-10.78187097 -0.88067871 -5.43626685 -1.95705606 0 0 Z " fill="#AEC6B8" transform="translate(234,42)"/>
<path d="M0 0 C1.98 0.99 3.96 1.98 6 3 C6.25 5.8125 6.25 5.8125 6 9 C4 10.875 4 10.875 2 12 C1.34 11.67 0.68 11.34 0 11 C0.33 10.67 0.66 10.34 1 10 C1.13568319 6.33655389 1.16461426 3.49384279 0 0 Z " fill="#BDB7B9" transform="translate(160,95)"/>
<path d="M0 0 C2.25 -0.375 2.25 -0.375 5 0 C9.49663749 4.74645069 9.74899906 9.64967609 10 16 C7.87491756 12.81237635 7.4979837 10.73487777 7 7 C6.01 7.495 6.01 7.495 5 8 C4.34 5.69 3.68 3.38 3 1 C1.68 1.33 0.36 1.66 -1 2 C-0.67 1.34 -0.34 0.68 0 0 Z " fill="#564C50" transform="translate(211,93)"/>
<path d="M0 0 C1.98 0.495 1.98 0.495 4 1 C4 1.66 4 2.32 4 3 C4.99 3.66 5.98 4.32 7 5 C6.360625 5.28875 5.72125 5.5775 5.0625 5.875 C2.84793921 6.82823451 2.84793921 6.82823451 2 9 C1.01 9 0.02 9 -1 9 C-0.67 6.03 -0.34 3.06 0 0 Z " fill="#D4D0D2" transform="translate(233,83)"/>
<path d="M0 0 C0.33 0 0.66 0 1 0 C1.34886026 5.32011893 1.34886026 5.32011893 1 8 C-0.875 10 -0.875 10 -3 11 C-3.66 11 -4.32 11 -5 11 C-3.93051945 6.72207778 -3.02504439 3.28809173 0 0 Z " fill="#98A499" transform="translate(113,52)"/>
<path d="M0 0 C1.65 0.99 3.3 1.98 5 3 C4.67 5.31 4.34 7.62 4 10 C1.525 9.01 1.525 9.01 -1 8 C-0.67 5.36 -0.34 2.72 0 0 Z " fill="#A4B7AD" transform="translate(268,317)"/>
<path d="M0 0 C0.99 0.33 1.98 0.66 3 1 C2.979375 1.9075 2.95875 2.815 2.9375 3.75 C2.9889755 6.42672588 3.2215017 8.46988052 4 11 C3.34 11 2.68 11 2 11 C2 11.66 2 12.32 2 13 C1.34 13 0.68 13 0 13 C0 8.71 0 4.42 0 0 Z " fill="#99A49A" transform="translate(102,82)"/>
<path d="M0 0 C0.33 0 0.66 0 1 0 C1.19601608 1.74906659 1.38147403 3.49931846 1.5625 5.25 C1.66691406 6.22453125 1.77132812 7.1990625 1.87890625 8.203125 C1.98974468 10.7631352 1.77738092 12.58148159 1 15 C1.99 15.33 2.98 15.66 4 16 C2.35 16.33 0.7 16.66 -1 17 C-1.02709444 14.91673869 -1.04643873 12.83337559 -1.0625 10.75 C-1.07410156 9.58984375 -1.08570312 8.4296875 -1.09765625 7.234375 C-1.01782092 4.59022872 -0.78643778 2.50173909 0 0 Z " fill="#CBCFCC" transform="translate(106,83)"/>
<path d="M0 0 C1.32 0.33 2.64 0.66 4 1 C4 1.66 4 2.32 4 3 C3.01 3.33 2.02 3.66 1 4 C1 5.32 1 6.64 1 8 C-0.32 8 -1.64 8 -3 8 C-3 7.01 -3 6.02 -3 5 C-3.66 4.67 -4.32 4.34 -5 4 C-4.0409375 3.8453125 -4.0409375 3.8453125 -3.0625 3.6875 C-2.381875 3.460625 -1.70125 3.23375 -1 3 C-0.67 2.01 -0.34 1.02 0 0 Z " fill="#D8CFD0" transform="translate(128,88)"/>
<path d="M0 0 C1.98 0.66 3.96 1.32 6 2 C5.67 4.31 5.34 6.62 5 9 C3.0625 8.4375 3.0625 8.4375 1 7 C0.25 3.375 0.25 3.375 0 0 Z " fill="#A2B6AA" transform="translate(266,307)"/>
<path d="M0 0 C0 0.66 0 1.32 0 2 C1.60875 1.690625 1.60875 1.690625 3.25 1.375 C7 1 7 1 11 3 C4.07 3 -2.86 3 -10 3 C-6.64781163 0.76520776 -4.01177204 0 0 0 Z " fill="#B3CCBA" transform="translate(184,45)"/>
<path d="M0 0 C0.33 0.66 0.66 1.32 1 2 C1.66 2.33 2.32 2.66 3 3 C4 5 4 5 4 9 C3.01 10.485 3.01 10.485 2 12 C1.34 12 0.68 12 0 12 C0 8.04 0 4.08 0 0 Z " fill="#A6BBAF" transform="translate(90,310)"/>
<path d="M0 0 C0.99 0 1.98 0 3 0 C2.67 2.97 2.34 5.94 2 9 C1.01 9.33 0.02 9.66 -1 10 C-0.67 6.7 -0.34 3.4 0 0 Z " fill="#A8B7AA" transform="translate(250,124)"/>
<path d="M0 0 C0.103125 0.639375 0.20625 1.27875 0.3125 1.9375 C0.539375 2.618125 0.76625 3.29875 1 4 C1.99 4.33 2.98 4.66 4 5 C3.01 6.485 3.01 6.485 2 8 C-0.625 8.1875 -0.625 8.1875 -3 8 C-3.33 6.68 -3.66 5.36 -4 4 C-2.68 4 -1.36 4 0 4 C0 2.68 0 1.36 0 0 Z " fill="#D5D3CE" transform="translate(254,84)"/>
<path d="M0 0 C1.64630328 0.14042877 3.29204179 0.28749329 4.9375 0.4375 C6.31228516 0.55931641 6.31228516 0.55931641 7.71484375 0.68359375 C10 1 10 1 11 2 C13.32817964 2.36760731 15.6618385 2.70241581 18 3 C17.67 3.66 17.34 4.32 17 5 C10.95198929 4.45018084 5.69398894 3.09570426 0 1 C0 0.67 0 0.34 0 0 Z " fill="#D1D5CB" transform="translate(143,41)"/>
<path d="M0 0 C0.99 0.66 1.98 1.32 3 2 C3.1875 5.125 3.1875 5.125 3 8 C2.34 8 1.68 8 1 8 C0.67 6.68 0.34 5.36 0 4 C-0.66 4 -1.32 4 -2 4 C-2.33 5.32 -2.66 6.64 -3 8 C-3 5.69 -3 3.38 -3 1 C-2.01 0.67 -1.02 0.34 0 0 Z " fill="#ABB9B2" transform="translate(95,301)"/>
<path d="M0 0 C0.33 0.99 0.66 1.98 1 3 C0.67 3.66 0.34 4.32 0 5 C0.66 5 1.32 5 2 5 C1.74438677 7.3431213 1.40729228 9.67843403 1 12 C0.01 12.495 0.01 12.495 -1 13 C-1 12.01 -1 11.02 -1 10 C-1.99 10.495 -1.99 10.495 -3 11 C-2.69078116 9.54096742 -2.37751201 8.08279278 -2.0625 6.625 C-1.88847656 5.81289063 -1.71445313 5.00078125 -1.53515625 4.1640625 C-1 2 -1 2 0 0 Z " fill="#CAC9C3" transform="translate(208,330)"/>
<path d="M0 0 C0.99 0 1.98 0 3 0 C3.25 6.625 3.25 6.625 1 10 C0.01 9.67 -0.98 9.34 -2 9 C-1.01 7.35 -0.02 5.7 1 4 C0.34 3.67 -0.32 3.34 -1 3 C-0.67 2.01 -0.34 1.02 0 0 Z " fill="#B2C1BA" transform="translate(102,282)"/>
<path d="M0 0 C0.33 0.99 0.66 1.98 1 3 C1.66 3 2.32 3 3 3 C4.3271261 6.9813783 4.06915913 10.85045227 4 15 C3.34 14.01 2.68 13.02 2 12 C2.33 11.34 2.66 10.68 3 10 C2.01 10 1.02 10 0 10 C0.50603992 7.83125748 0.99983813 6.00032373 2 4 C1.34 4 0.68 4 0 4 C0 2.68 0 1.36 0 0 Z " fill="#C5CDC6" transform="translate(118,147)"/>
<path d="M0 0 C0 3.62453269 -0.92469613 5.07920195 -3 8 C-3.99 8.33 -4.98 8.66 -6 9 C-7.66710346 10.49985609 -7.66710346 10.49985609 -9 12 C-7.60090738 7.54834166 -5.39864635 5.14374788 -2 2 C-1.34 1.34 -0.68 0.68 0 0 Z " fill="#A4B4A8" transform="translate(118,45)"/>
<path d="M0 0 C1.17114775 2.85001852 1.05939414 3.85668377 -0.14453125 6.76171875 C-0.69496094 7.72722656 -1.24539063 8.69273438 -1.8125 9.6875 C-2.35519531 10.66074219 -2.89789063 11.63398437 -3.45703125 12.63671875 C-5 15 -5 15 -7 16 C-6.28028381 12.24654344 -4.66887798 9.13908031 -2.9375 5.75 C-2.11572266 4.13351563 -2.11572266 4.13351563 -1.27734375 2.484375 C-0.64505859 1.25460938 -0.64505859 1.25460938 0 0 Z " fill="#DAE8DB" transform="translate(278,30)"/>
<path d="M0 0 C0.66 0 1.32 0 2 0 C1.67 3.63 1.34 7.26 1 11 C-0.32 10.67 -1.64 10.34 -3 10 C-2.67515625 9.04287109 -2.67515625 9.04287109 -2.34375 8.06640625 C-2.0653125 7.24011719 -1.786875 6.41382813 -1.5 5.5625 C-1.08234375 4.32693359 -1.08234375 4.32693359 -0.65625 3.06640625 C0.05044718 1.20250304 0.05044718 1.20250304 0 0 Z " fill="#BDB9B0" transform="translate(202,348)"/>
<path d="M0 0 C2.0625 1.625 2.0625 1.625 4 4 C3.75 7.25 3.75 7.25 3 10 C0.9375 8.375 0.9375 8.375 -1 6 C-0.75 2.75 -0.75 2.75 0 0 Z " fill="#ADBDB2" transform="translate(245,179)"/>
<path d="M0 0 C0.33 0 0.66 0 1 0 C1.33 1.65 1.66 3.3 2 5 C2.66 3.68 3.32 2.36 4 1 C5.32 1.66 6.64 2.32 8 3 C7.01 3.33 6.02 3.66 5 4 C5 4.66 5 5.32 5 6 C3 7.625 3 7.625 1 9 C0 8 0 8 -0.09765625 6.15234375 C-0.06510417 4.1015625 -0.03255208 2.05078125 0 0 Z " fill="#515057" transform="translate(205,98)"/>
<path d="M0 0 C0.33 0 0.66 0 1 0 C1.33 2.97 1.66 5.94 2 9 C1.34 9 0.68 9 0 9 C-0.33 9.66 -0.66 10.32 -1 11 C-0.34 11 0.32 11 1 11 C0.67 11.99 0.34 12.98 0 14 C0 13.34 0 12.68 0 12 C-0.66 12 -1.32 12 -2 12 C-2.33 9.69 -2.66 7.38 -3 5 C-2.01 5.33 -1.02 5.66 0 6 C0 4.02 0 2.04 0 0 Z " fill="#B7C8BC" transform="translate(257,59)"/>
<path d="M0 0 C1.125 3.75 1.125 3.75 0 6 C0.99 5.67 1.98 5.34 3 5 C3 5.66 3 6.32 3 7 C2.38125 7.12375 1.7625 7.2475 1.125 7.375 C-1.19120832 7.87197356 -1.19120832 7.87197356 -3 10 C-2.25 2.25 -2.25 2.25 0 0 Z " fill="#A6B7A9" transform="translate(108,57)"/>
<path d="M0 0 C5.61 0.33 11.22 0.66 17 1 C17 1.33 17 1.66 17 2 C12.05 2.33 7.1 2.66 2 3 C1.34 2.01 0.68 1.02 0 0 Z " fill="#B1B8AD" transform="translate(149,46)"/>
<path d="M0 0 C0.99 0.33 1.98 0.66 3 1 C2.814375 1.721875 2.62875 2.44375 2.4375 3.1875 C1.98004693 6.12826973 2.26483643 8.14103058 3 11 C2.01 11 1.02 11 0 11 C-0.66 9.68 -1.32 8.36 -2 7 C-1.34 7 -0.68 7 0 7 C0 4.69 0 2.38 0 0 Z " fill="#C3D5C9" transform="translate(251,159)"/>
<path d="M0 0 C0.66 0 1.32 0 2 0 C2.66 2.31 3.32 4.62 4 7 C1.69 7 -0.62 7 -3 7 C-2.67 6.34 -2.34 5.68 -2 5 C-1.34 5 -0.68 5 0 5 C0 3.35 0 1.7 0 0 Z " fill="#845853" transform="translate(183,126)"/>
<path d="M0 0 C1 2 1 2 0.9375 4.4375 C0.77767869 7.24528606 0.77767869 7.24528606 3 10 C3 11.32 3 12.64 3 14 C2.34 14 1.68 14 1 14 C-0.75417412 9.50492881 -1.28362108 5.8215583 -1 1 C-0.67 0.67 -0.34 0.34 0 0 Z " fill="#CBCFCD" transform="translate(244,202)"/>
<path d="M0 0 C0.66 0 1.32 0 2 0 C2.66 0.66 3.32 1.32 4 2 C4.66 2.33 5.32 2.66 6 3 C5.67 5.64 5.34 8.28 5 11 C4.67 11 4.34 11 4 11 C3.71125 10.113125 3.4225 9.22625 3.125 8.3125 C2.16851252 5.49617576 1.13201054 2.74916844 0 0 Z " fill="#BBB1B3" transform="translate(216,93)"/>
<path d="M0 0 C2.76223278 2.76223278 2.57856291 5.20706617 3 9 C2.01 9 1.02 9 0 9 C-1.36623674 6.26752652 -1.128426 4.01801098 -1 1 C-0.67 0.67 -0.34 0.34 0 0 Z " fill="#D3CCC6" transform="translate(110,80)"/>
<path d="M0 0 C0.66 0 1.32 0 2 0 C1.34 3.96 0.68 7.92 0 12 C-0.66 12 -1.32 12 -2 12 C-1.85904936 10.3745692 -1.71207913 8.74965949 -1.5625 7.125 C-1.48128906 6.22007813 -1.40007812 5.31515625 -1.31640625 4.3828125 C-1 2 -1 2 0 0 Z " fill="#99A599" transform="translate(105,68)"/>
<path d="M0 0 C2.475 0.495 2.475 0.495 5 1 C5.33 3.31 5.66 5.62 6 8 C5.67 6.68 5.34 5.36 5 4 C4.01 4 3.02 4 2 4 C1.34 4.66 0.68 5.32 0 6 C0 4.02 0 2.04 0 0 Z " fill="#C3C6C2" transform="translate(259,283)"/>
<path d="M0 0 C2.97 0.495 2.97 0.495 6 1 C5.67 2.32 5.34 3.64 5 5 C3.35 4.67 1.7 4.34 0 4 C0 2.68 0 1.36 0 0 Z " fill="#CBC4C1" transform="translate(190,139)"/>
<path d="M0 0 C2 3 2 3 1.625 5.1875 C1.41875 5.785625 1.2125 6.38375 1 7 C0.01 7 -0.98 7 -2 7 C-2.6875 5.1875 -2.6875 5.1875 -3 3 C-1.5625 1.25 -1.5625 1.25 0 0 Z " fill="#B5C2B9" transform="translate(111,117)"/>
<path d="M0 0 C1.32 0.99 2.64 1.98 4 3 C3.67 3.99 3.34 4.98 3 6 C1.02 6 -0.96 6 -3 6 C-2.67 4.68 -2.34 3.36 -2 2 C-1.34 2 -0.68 2 0 2 C0 1.34 0 0.68 0 0 Z " fill="#323139" transform="translate(210,102)"/>
<path d="M0 0 C3.14621069 3.05139338 4.91989683 5.23773026 5.125 9.75 C5.08375 10.4925 5.0425 11.235 5 12 C2 10 2 10 1.26953125 7.6171875 C1.11871094 6.71226562 0.96789062 5.80734375 0.8125 4.875 C0.65394531 3.96492188 0.49539063 3.05484375 0.33203125 2.1171875 C0.22246094 1.41851562 0.11289062 0.71984375 0 0 Z " fill="#C5CFC7" transform="translate(265,291)"/>
<path d="M0 0 C0.99 0.33 1.98 0.66 3 1 C3.8125 2.9375 3.8125 2.9375 4 5 C3.34 5.66 2.68 6.32 2 7 C1.34 8.32 0.68 9.64 0 11 C0 7.37 0 3.74 0 0 Z " fill="#A8B5AD" transform="translate(249,242)"/>
<path d="M0 0 C1.485 0.99 1.485 0.99 3 2 C3.1875 5.625 3.1875 5.625 3 9 C2.01 9 1.02 9 0 9 C0 6.03 0 3.06 0 0 Z " fill="#A3B2A9" transform="translate(245,163)"/>
<path d="M0 0 C0.66 0.33 1.32 0.66 2 1 C2 2.32 2 3.64 2 5 C1.34 5 0.68 5 0 5 C0 7.97 0 10.94 0 14 C-0.33 14 -0.66 14 -1 14 C-1.33 10.37 -1.66 6.74 -2 3 C-1.34 3 -0.68 3 0 3 C0 2.01 0 1.02 0 0 Z " fill="#C3CDC9" transform="translate(244,157)"/>
<path d="M0 0 C0.66 0 1.32 0 2 0 C2 0.66 2 1.32 2 2 C3.65 2 5.3 2 7 2 C7.33 2.66 7.66 3.32 8 4 C7.34 4.66 6.68 5.32 6 6 C6 5.34 6 4.68 6 4 C4.02 4 2.04 4 0 4 C-0.33 3.01 -0.66 2.02 -1 1 C-0.67 0.67 -0.34 0.34 0 0 Z " fill="#BCB0B0" transform="translate(183,137)"/>
<path d="M0 0 C2.64 0.33 5.28 0.66 8 1 C8.33 1.99 8.66 2.98 9 4 C7.35 4.33 5.7 4.66 4 5 C4 4.34 4 3.68 4 3 C2.68 2.34 1.36 1.68 0 1 C0 0.67 0 0.34 0 0 Z " fill="#BCBDB5" transform="translate(144,43)"/>
<path d="M0 0 C0 2.31 0 4.62 0 7 C-0.99 7.33 -1.98 7.66 -3 8 C-3 5.69 -3 3.38 -3 1 C-1 0 -1 0 0 0 Z " fill="#9DAFA5" transform="translate(119,231)"/>
<path d="M0 0 C0.99 0.33 1.98 0.66 3 1 C0.69 4.3 -1.62 7.6 -4 11 C-5 8 -5 8 -4.00390625 5.95703125 C-3.52824219 5.24933594 -3.05257813 4.54164063 -2.5625 3.8125 C-2.08941406 3.09707031 -1.61632812 2.38164062 -1.12890625 1.64453125 C-0.75636719 1.10183594 -0.38382812 0.55914062 0 0 Z " fill="#D9E9DE" transform="translate(329,213)"/>
<path d="M0 0 C2 2 2 2 2.125 5.625 C2.08375 6.73875 2.0425 7.8525 2 9 C1.34 9 0.68 9 0 9 C-1.125 2.25 -1.125 2.25 0 0 Z " fill="#A88F8B" transform="translate(172,119)"/>
<path d="M0 0 C0.33 0 0.66 0 1 0 C1.36174071 6.39075249 1.36174071 6.39075249 -0.1875 9 C-2 10 -2 10 -4.6875 9.6875 C-5.450625 9.460625 -6.21375 9.23375 -7 9 C-3.25 7 -3.25 7 -1 7 C-0.67 4.69 -0.34 2.38 0 0 Z " fill="#C2BBBD" transform="translate(221,104)"/>
<path d="M0 0 C2.31 0 4.62 0 7 0 C7 1.65 7 3.3 7 5 C6.01 4.34 5.02 3.68 4 3 C2.34450469 2.61500109 0.6777567 2.27206865 -1 2 C-0.67 1.34 -0.34 0.68 0 0 Z " fill="#BAB3B5" transform="translate(153,90)"/>
<path d="M0 0 C0.66 0.33 1.32 0.66 2 1 C1.67 5.62 1.34 10.24 1 15 C0.67 15 0.34 15 0 15 C-0.19448477 12.87562788 -0.38038289 10.75046809 -0.5625 8.625 C-0.66691406 7.44164062 -0.77132813 6.25828125 -0.87890625 5.0390625 C-1 2 -1 2 0 0 Z " fill="#B9C5C0" transform="translate(266,309)"/>
<path d="M0 0 C2.52986895 2.52986895 3.16933916 4.53891316 4 8 C3.125 10.375 3.125 10.375 2 12 C0.26043342 10.26043342 0.62809614 7.8063378 0.4375 5.4375 C0.35371094 4.42558594 0.26992187 3.41367188 0.18359375 2.37109375 C0.12300781 1.58863281 0.06242188 0.80617187 0 0 Z " fill="#B2C6B9" transform="translate(253,245)"/>
<path d="M0 0 C0.66 0.33 1.32 0.66 2 1 C1.8125 2.875 1.8125 2.875 1 5 C-1.5625 6.25 -1.5625 6.25 -4 7 C-4 4 -4 4 -2 1.8125 C-1.34 1.214375 -0.68 0.61625 0 0 Z " fill="#DAD8D8" transform="translate(164,103)"/>
<path d="M0 0 C1.98 0 3.96 0 6 0 C5.67 1.32 5.34 2.64 5 4 C4.01 4 3.02 4 2 4 C1.34 2.68 0.68 1.36 0 0 Z " fill="#DAEADF" transform="translate(31,282)"/>
<path d="M0 0 C3.93846154 3.32307692 3.93846154 3.32307692 4.25 6.75 C4.1675 7.4925 4.085 8.235 4 9 C3.34 9 2.68 9 2 9 C1.34 6.03 0.68 3.06 0 0 Z " fill="#9DAAA1" transform="translate(250,252)"/>
<path d="M0 0 C0.33 0 0.66 0 1 0 C0.88541307 1.43836751 0.75790884 2.87570966 0.625 4.3125 C0.55539063 5.11300781 0.48578125 5.91351563 0.4140625 6.73828125 C0 9 0 9 -2 12 C-1.979375 11.05125 -1.95875 10.1025 -1.9375 9.125 C-1.77448174 6.09333717 -1.77448174 6.09333717 -3 4 C-2.34 4 -1.68 4 -1 4 C-0.67 2.68 -0.34 1.36 0 0 Z " fill="#BBC8C2" transform="translate(118,242)"/>
<path d="M0 0 C0.66 0.66 1.32 1.32 2 2 C1.01 4.31 0.02 6.62 -1 9 C-1.66 9 -2.32 9 -3 9 C-3.33 7.68 -3.66 6.36 -4 5 C-3.34 5 -2.68 5 -2 5 C-1.34 3.35 -0.68 1.7 0 0 Z " fill="#ACB6AE" transform="translate(250,205)"/>
<path d="M0 0 C0.66 0.66 1.32 1.32 2 2 C1.67 2.66 1.34 3.32 1 4 C1.66 4 2.32 4 3 4 C3.33 5.65 3.66 7.3 4 9 C3.01 9.33 2.02 9.66 1 10 C0.67 6.7 0.34 3.4 0 0 Z " fill="#BBCBC0" transform="translate(258,78)"/>
<path d="M0 0 C2.97 0.33 5.94 0.66 9 1 C9 1.99 9 2.98 9 4 C5.85262818 3.30058404 2.97411124 2.23921302 0 1 C0 0.67 0 0.34 0 0 Z " fill="#CCC6C3" transform="translate(230,74)"/>
<path d="M0 0 C0.99 0.33 1.98 0.66 3 1 C3 1.66 3 2.32 3 3 C5.64 3.33 8.28 3.66 11 4 C6.99799622 5.60080151 3.95443764 4.29279692 0 3 C0 2.01 0 1.02 0 0 Z " fill="#DCDED6" transform="translate(141,37)"/>
<path d="M0 0 C0.99 0.33 1.98 0.66 3 1 C3 2.98 3 4.96 3 7 C2.01 6.67 1.02 6.34 0 6 C0 4.02 0 2.04 0 0 Z " fill="#BCB8B2" transform="translate(153,345)"/>
<path d="M0 0 C0.66 0.33 1.32 0.66 2 1 C2.73075648 3.3140622 3.40138258 5.64828869 4 8 C2.35 7.67 0.7 7.34 -1 7 C-0.67 4.69 -0.34 2.38 0 0 Z " fill="#C6C3BF" transform="translate(153,339)"/>
<path d="M0 0 C0 1.65 0 3.3 0 5 C-1.98 5.99 -1.98 5.99 -4 7 C-3.625 4.0625 -3.625 4.0625 -3 1 C-1 0 -1 0 0 0 Z " fill="#95A59C" transform="translate(96,304)"/>
<path d="M0 0 C0.66 0 1.32 0 2 0 C2 2.31 2 4.62 2 7 C1.01 7.33 0.02 7.66 -1 8 C-1.125 2.25 -1.125 2.25 0 0 Z " fill="#9FACA3" transform="translate(119,163)"/>
<path d="M0 0 C0.33 0.66 0.66 1.32 1 2 C0.00390625 4.1640625 0.00390625 4.1640625 -1.4375 6.625 C-1.91058594 7.44226563 -2.38367188 8.25953125 -2.87109375 9.1015625 C-3.24363281 9.72804688 -3.61617188 10.35453125 -4 11 C-5 8 -5 8 -3.6875 4.9375 C-2 2 -2 2 0 0 Z " fill="#D8E6DB" transform="translate(79,102)"/>
<path d="M0 0 C-1.12451727 2.9719385 -2.22293791 5.33440687 -4 8 C-4.6875 5.6875 -4.6875 5.6875 -5 3 C-3.40083326 0.79162689 -2.76966516 0 0 0 Z " fill="#C8C8C8" transform="translate(150,93)"/>
<path d="M0 0 C2.31 0 4.62 0 7 0 C7 0.99 7 1.98 7 3 C4.625 3.1875 4.625 3.1875 2 3 C1.34 2.01 0.68 1.02 0 0 Z " fill="#D9E1DF" transform="translate(182,53)"/>
<path d="M0 0 C0.33 0.99 0.66 1.98 1 3 C0.34 3.66 -0.32 4.32 -1 5 C-2.32 5 -3.64 5 -5 5 C-4 2 -4 2 -1.9375 0.8125 C-1.298125 0.544375 -0.65875 0.27625 0 0 Z " fill="#A0B0A5" transform="translate(221,46)"/>
<path d="M0 0 C0.66 0 1.32 0 2 0 C1.67 1.65 1.34 3.3 1 5 C-0.32 5.33 -1.64 5.66 -3 6 C-2.67 4.68 -2.34 3.36 -2 2 C-1.34 2 -0.68 2 0 2 C0 1.34 0 0.68 0 0 Z " fill="#A7B7AB" transform="translate(260,92)"/>
<path d="M0 0 C0.99 0.33 1.98 0.66 3 1 C1.49336217 4.01327566 -1.03166411 4.61056618 -4 6 C-2.25 1.125 -2.25 1.125 0 0 Z " fill="#CFC7C2" transform="translate(126,47)"/>
<path d="M0 0 C2.97 0.495 2.97 0.495 6 1 C5.67 1.99 5.34 2.98 5 4 C3.02 3.34 1.04 2.68 -1 2 C-0.67 1.34 -0.34 0.68 0 0 Z " fill="#B7D1C4" transform="translate(238,41)"/>
</svg>
