<?xml version="1.0" standalone="no"?>
<!DOCTYPE svg PUBLIC "-//W3C//DTD SVG 20010904//EN" "http://www.w3.org/TR/2001/REC-SVG-20010904/DTD/svg10.dtd">
<svg xmlns="http://www.w3.org/2000/svg" version="1.0" width="200.000000pt" height="200.000000pt" viewBox="0 0 200.000000 200.000000" preserveAspectRatio="xMidYMid meet">
<metadata>
Created by potrace 1.16, written by Peter Selinger 2001-2019
<meta name="Producer" content="Online-Convert"/></metadata>
<g transform="translate(0.000000,200.000000) scale(0.100000,-0.100000)" fill="#000000" stroke="none">
<path d="M135 1945 l-25 -24 0 -621 0 -620 895 0 895 0 0 600 c0 641 -1 654 -48 679 -14 8 -277 11 -857 11 l-836 0 -24 -25z m1003 -134 c17 -12 38 -41 48 -66 14 -39 15 -52 5 -87 -49 -164 -281 -132 -281 38 0 57 21 92 74 126 40 25 111 20 154 -11z m-570 -49 l3 -52 48 0 c49 0 73 -13 64 -36 -3 -10 -22 -14 -59 -14 l-53 0 -3 -52 c-3 -45 -6 -53 -23 -53 -17 0 -20 8 -23 52 l-3 52 -52 3 c-44 3 -52 6 -52 23 0 17 8 20 53 23 l52 3 0 43 c0 42 15 69 35 63 5 -2 11 -27 13 -55z m1073 -238 c45 -45 75 -82 72 -90 -9 -23 -27 -16 -68 26 -21 22 -42 40 -46 40 -3 0 -9 -51 -12 -113 -4 -62 -14 -137 -23 -167 -64 -217 -245 -373 -464 -399 -71 -9 -90 -6 -90 15 0 20 28 31 99 37 47 4 86 16 146 46 155 77 255 220 275 392 12 102 13 199 2 199 -4 0 -28 -20 -52 -45 -48 -49 -58 -53 -67 -29 -4 11 17 39 68 90 40 41 76 74 79 74 2 0 39 -34 81 -76z m-1201 -259 l0 -55 56 0 c52 0 55 -1 52 -22 -3 -20 -10 -23 -55 -26 l-53 -3 0 -50 c0 -36 -4 -51 -16 -56 -22 -8 -34 14 -34 65 l0 42 -44 0 c-44 0 -74 19 -61 40 3 5 28 10 56 10 l49 0 0 48 c0 53 4 62 32 62 15 0 18 -8 18 -55z m450 6 c5 -11 10 -36 10 -55 0 -36 0 -36 43 -36 46 0 69 -14 60 -36 -3 -10 -22 -14 -59 -14 l-54 0 0 -54 c0 -37 -4 -56 -14 -59 -23 -9 -36 15 -36 65 l0 48 -49 0 c-28 0 -53 5 -56 10 -13 21 17 40 61 40 l44 0 0 43 c0 60 28 87 50 48z"/>
<path d="M983 1766 c-23 -20 -28 -32 -28 -69 0 -65 32 -97 96 -97 40 0 51 4 73 31 36 43 35 91 -3 130 -39 38 -97 40 -138 5z"/>
<path d="M46 604 c-19 -20 -26 -37 -26 -66 0 -99 26 -108 328 -108 l238 0 -93 -185 c-117 -232 -119 -225 40 -225 62 0 117 4 123 8 6 4 57 96 113 205 l103 197 126 0 127 0 87 -173 c48 -94 97 -187 108 -205 l20 -33 116 3 c98 3 119 6 128 20 9 15 -6 51 -82 196 -50 99 -92 182 -92 186 0 3 106 6 235 6 250 0 292 6 314 48 12 23 15 81 5 107 -18 46 -7 45 -977 45 l-914 0 -27 -26z"/>
</g>
</svg>
