<?xml version="1.0" standalone="no"?>
<!DOCTYPE svg PUBLIC "-//W3C//DTD SVG 20010904//EN" "http://www.w3.org/TR/2001/REC-SVG-20010904/DTD/svg10.dtd">
<svg xmlns="http://www.w3.org/2000/svg" version="1.0" width="200.000000pt" height="200.000000pt" viewBox="0 0 200.000000 200.000000" preserveAspectRatio="xMidYMid meet">
<metadata>
Created by potrace 1.16, written by Peter Selinger 2001-2019
<meta name="Producer" content="Online-Convert"/></metadata>
<g transform="translate(0.000000,200.000000) scale(0.100000,-0.100000)" fill="#544944" stroke="none">
<path d="M873 1813 c-9 -3 -13 -33 -13 -98 l0 -93 -52 -17 c-29 -9 -73 -27 -98 -40 l-47 -24 -64 65 c-35 35 -69 64 -76 64 -15 0 -145 -121 -175 -163 l-21 -29 68 -68 67 -67 -30 -59 c-17 -33 -35 -79 -41 -102 l-12 -42 -93 0 c-76 0 -95 -3 -100 -16 -8 -20 -8 -228 0 -248 5 -13 24 -16 99 -16 l93 0 18 -52 c9 -29 28 -75 41 -102 l25 -49 -68 -68 -67 -67 31 -39 c29 -36 89 -96 140 -138 l23 -19 68 68 68 68 50 -25 c27 -14 72 -33 101 -42 l52 -17 0 -93 c0 -75 3 -94 16 -99 20 -8 228 -8 248 0 13 5 16 24 16 99 l0 93 52 18 c29 9 75 28 102 41 l49 25 68 -68 67 -67 41 32 c50 40 151 150 151 165 0 7 -29 40 -64 75 l-65 64 21 41 c12 23 29 66 39 96 l17 55 95 3 95 3 6 31 c3 17 6 65 6 108 0 43 -3 91 -6 108 l-6 31 -95 3 -94 3 -23 66 c-13 36 -31 80 -42 97 l-18 32 69 69 68 70 -46 54 c-51 60 -139 137 -155 137 -6 0 -37 -30 -69 -66 l-59 -66 -50 25 c-27 13 -73 32 -101 41 l-53 18 0 93 c0 75 -3 94 -16 99 -19 7 -233 7 -251 -1z m207 -559 c101 -30 190 -149 190 -254 0 -135 -135 -270 -270 -270 -135 0 -270 135 -270 270 0 134 130 266 266 269 17 1 54 -6 84 -15z"/>
</g>
</svg>
