<?xml version="1.0" standalone="no"?>
<!DOCTYPE svg PUBLIC "-//W3C//DTD SVG 20010904//EN" "http://www.w3.org/TR/2001/REC-SVG-20010904/DTD/svg10.dtd">
<svg xmlns="http://www.w3.org/2000/svg" version="1.0" width="200.000000pt" height="200.000000pt" viewBox="0 0 200.000000 200.000000" preserveAspectRatio="xMidYMid meet">
<metadata>
Created by potrace 1.16, written by Peter Selinger 2001-2019
<meta name="Producer" content="Online-Convert"/></metadata>
<g transform="translate(0.000000,200.000000) scale(0.100000,-0.100000)" fill="#000000" stroke="none">
<path d="M316 1451 c5 -5 158 -108 341 -230 l332 -221 338 221 c186 121 342 225 348 230 5 5 -266 9 -680 9 -396 0 -685 -4 -679 -9z"/>
<path d="M260 946 l0 -446 735 0 735 0 0 445 c0 245 -3 445 -6 445 -3 0 -168 -106 -365 -235 -198 -129 -364 -235 -369 -235 -6 0 -166 104 -356 231 -190 126 -352 233 -360 236 -12 4 -14 -61 -14 -441z"/>
</g>
</svg>
