<?xml version="1.0" encoding="UTF-8"?>
<svg version="1.1" xmlns="http://www.w3.org/2000/svg" width="200" height="200">
<path d="M0 0 C0.99 0 1.98 0 3 0 C3 2.97 3 5.94 3 9 C4.65 9.33 6.3 9.66 8 10 C8 30.79 8 51.58 8 73 C6.68 73 5.36 73 4 73 C3.67 77.95 3.34 82.9 3 88 C1.35 88 -0.3 88 -2 88 C-3.64024469 86.35975531 -3.12846448 84.4527095 -3.140625 82.1953125 C-3.15996094 81.21949219 -3.17929688 80.24367188 -3.19921875 79.23828125 C-3.23294231 77.17076758 -3.25129211 75.10294328 -3.25390625 73.03515625 C-3.32306306 70.27252368 -3.43036696 67.70503258 -4 65 C-6.26716691 62.9306235 -6.26716691 62.9306235 -9 62 C-10.4765625 60.203125 -10.4765625 60.203125 -11.625 58.25 C-12.04136719 57.55003906 -12.45773438 56.85007813 -12.88671875 56.12890625 C-13.90937104 54.173308 -14.68573516 52.25815051 -15.4375 50.1875 C-17.44566749 46.09083832 -18.75545814 45.59687786 -23 44 C-26.34845035 43.56976514 -29.6623665 43.55559454 -33.03515625 43.56640625 C-33.99143417 43.5611644 -34.9477121 43.55592255 -35.93296814 43.55052185 C-37.94757112 43.54411859 -39.96221158 43.54541661 -41.97680664 43.55395508 C-45.05617716 43.56248249 -48.13370229 43.53365174 -51.21289062 43.50195312 C-53.17447861 43.50034135 -55.13606988 43.50091819 -57.09765625 43.50390625 C-58.01547379 43.49267227 -58.93329132 43.48143829 -59.87892151 43.46986389 C-64.10987732 43.51595284 -66.39528676 43.6228935 -70.05639648 45.90600586 C-72.56958994 48.61031552 -72.56958994 48.61031552 -72.98657227 52.12915039 C-72.3183175 59.75763269 -70.76374691 67.00963263 -68.9375 74.4375 C-68.38013639 76.72689974 -67.8265794 79.0172305 -67.27734375 81.30859375 C-67.03234131 82.30689209 -66.78733887 83.30519043 -66.53491211 84.33374023 C-66 87 -66 87 -66 91 C-64.80698273 90.98445572 -63.61396545 90.96891144 -62.38479614 90.95289612 C-51.11551249 90.8107003 -39.84641199 90.70592016 -28.57643318 90.6373148 C-22.78299556 90.60085728 -16.99028491 90.55144288 -11.19726562 90.47192383 C-5.60158061 90.39559839 -0.00659268 90.35395349 5.58957291 90.3358593 C7.71939181 90.32297283 9.84917459 90.29780802 11.97869492 90.2598896 C32.10502828 89.91592668 32.10502828 89.91592668 39.59280396 96.29747009 C41 98 41 98 41 100 C-13.12 100 -67.24 100 -123 100 C-123 96.7 -123 93.4 -123 90 C-121.365984 88.94749372 -119.69698734 87.94763481 -118 87 C-117.06021141 84.05861526 -116.97697523 81.06972162 -116.8125 78 C-116.67388807 76.1965598 -116.53454597 74.39317559 -116.39453125 72.58984375 C-116.33088379 71.66671387 -116.26723633 70.74358398 -116.20166016 69.79248047 C-115.8825768 65.37398724 -115.44788287 60.96949431 -115 56.5625 C-114.92885986 55.77681641 -114.85771973 54.99113281 -114.78442383 54.18164062 C-114.48249832 51.13382058 -114.18815227 48.43245885 -112.95947266 45.60839844 C-111.85219443 42.59817946 -111.88412526 40.51375259 -112.0859375 37.32421875 C-112.12847656 36.24849609 -112.17101562 35.17277344 -112.21484375 34.06445312 C-112.32111872 31.82360656 -112.45112053 29.58375235 -112.60546875 27.34570312 C-112.86485839 19.29982085 -112.86485839 19.29982085 -110.33300781 15.49462891 C-106.61628555 11.67882851 -102.94503394 8.37600502 -97.52368164 7.68383789 C-86.63079422 7.59567685 -76.13352121 9.55932145 -65.4375 11.4375 C-63.50732321 11.76722434 -61.57698535 12.0960072 -59.64648438 12.42382812 C-56.13110971 13.0250119 -52.61606279 13.6277809 -49.10327148 14.24389648 C-48.40523911 14.36603012 -47.70720673 14.48816376 -46.98802185 14.61399841 C-45.61965533 14.87968546 -44.25906405 15.18775897 -42.90785217 15.53016663 C-34.66833619 17.55925444 -28.14239564 15.90591307 -20.82421875 12.11328125 C-15.97856401 10.20316839 -11.11976728 10.59792404 -6 11 C-6 10.34 -6 9.68 -6 9 C-4.02 9 -2.04 9 0 9 C0 6.03 0 3.06 0 0 Z " fill="#000000" transform="translate(155,49)"/>
<path d="M0 0 C63.36 0 126.72 0 192 0 C192 7.59 192 15.18 192 23 C188.99019276 24.50490362 185.89180218 24.13708551 182.59104919 24.12698364 C181.43185717 24.12932363 181.43185717 24.12932363 180.24924713 24.13171089 C177.64588199 24.13571659 175.04257462 24.13253291 172.43920898 24.12939453 C170.57849086 24.13074875 168.71777301 24.1325288 166.85705566 24.13470459 C161.79321221 24.13927614 156.72938905 24.13749058 151.66554523 24.1343255 C146.37688818 24.13180085 141.08823292 24.1341397 135.79957581 24.13571167 C126.91789435 24.1375329 118.03622121 24.13512811 109.15454102 24.13037109 C98.87076637 24.12492689 88.58701154 24.12669247 78.30323738 24.1321975 C69.4888153 24.13672797 60.67439921 24.13737956 51.85997635 24.13475883 C46.58885724 24.1331959 41.31774747 24.13300275 36.04662895 24.13629532 C31.09320772 24.13917313 26.13981218 24.13720002 21.18639374 24.13140106 C19.36301021 24.13007305 17.53962453 24.13046827 15.71624184 24.13266373 C13.23812058 24.13537358 10.760083 24.13199617 8.28196716 24.12698364 C7.55085502 24.12921436 6.81974287 24.13144509 6.06647581 24.13374341 C1.11414997 24.11414997 1.11414997 24.11414997 0 23 C0 15.41 0 7.82 0 0 Z " fill="#000000" transform="translate(4,152)"/>
<path d="M0 0 C0.94875 0.04125 1.8975 0.0825 2.875 0.125 C4.65909802 3.18746747 5.10380021 5.34579273 5 8.875 C4.98195313 9.67421875 4.96390625 10.4734375 4.9453125 11.296875 C4.91050781 12.20179687 4.91050781 12.20179687 4.875 13.125 C5.679375 13.269375 6.48375 13.41375 7.3125 13.5625 C9.875 14.125 9.875 14.125 10.875 15.125 C10.97446453 16.89359193 11.00580217 18.66611451 11.0078125 20.4375 C11.00974609 22.05011719 11.00974609 22.05011719 11.01171875 23.6953125 C11.00785156 24.82710937 11.00398438 25.95890625 11 27.125 C11.00580078 28.82269531 11.00580078 28.82269531 11.01171875 30.5546875 C11.01042969 31.62976563 11.00914063 32.70484375 11.0078125 33.8125 C11.00668457 34.80636719 11.00555664 35.80023438 11.00439453 36.82421875 C10.875 39.125 10.875 39.125 9.875 40.125 C8.20882885 40.16563832 6.54111905 40.167721 4.875 40.125 C4.83761719 40.75148437 4.80023438 41.37796875 4.76171875 42.0234375 C4.66310547 43.24933594 4.66310547 43.24933594 4.5625 44.5 C4.50449219 45.31210938 4.44648437 46.12421875 4.38671875 46.9609375 C3.875 49.125 3.875 49.125 0.875 51.125 C-3.66554054 50.58445946 -3.66554054 50.58445946 -5.125 49.125 C-5.2284125 47.66243823 -5.26350321 46.19495736 -5.27026367 44.72875977 C-5.27664352 43.79431534 -5.28302338 42.85987091 -5.28959656 41.89710999 C-5.29070938 40.88047775 -5.2918222 39.86384552 -5.29296875 38.81640625 C-5.29796135 37.26082253 -5.29796135 37.26082253 -5.30305481 35.67381287 C-5.3081286 33.47549891 -5.310463 31.27717723 -5.31030273 29.07885742 C-5.31248838 25.70543799 -5.33063714 22.33234583 -5.34960938 18.95898438 C-5.3525433 16.82812612 -5.3545281 14.69726631 -5.35546875 12.56640625 C-5.36265427 11.55179825 -5.36983978 10.53719025 -5.37724304 9.49183655 C-5.37416641 8.55423996 -5.37108978 7.61664337 -5.36791992 6.65063477 C-5.36934494 5.82314224 -5.37076996 4.99564972 -5.37223816 4.14308167 C-4.92436633 0.48732753 -3.48603274 0.13944131 0 0 Z " fill="#000000" transform="translate(30.125,52.875)"/>
<path d="M0 0 C5.94 0 11.88 0 18 0 C18 1.32 18 2.64 18 4 C17.34 4 16.68 4 16 4 C16 10.6 16 17.2 16 24 C16.66 24 17.32 24 18 24 C18 25.32 18 26.64 18 28 C15.69 28 13.38 28 11 28 C11 28.99 11 29.98 11 31 C9.35 31 7.7 31 6 31 C6 30.01 6 29.02 6 28 C4.02 28 2.04 28 0 28 C0 18.76 0 9.52 0 0 Z " fill="#000000" transform="translate(62,24)"/>
<path d="M0 0 C0 2.97 0 5.94 0 9 C-8.25 9 -16.5 9 -25 9 C-23.62801876 4.88405629 -21.52714224 3.56876841 -17.96484375 1.23046875 C-12.24376304 -1.14389281 -6.07162652 -0.43197343 0 0 Z " fill="#000000" transform="translate(29,140)"/>
</svg>
