<?xml version="1.0" encoding="UTF-8"?>
<svg version="1.1" xmlns="http://www.w3.org/2000/svg" width="200" height="200">
<path d="M0 0 C2.31 0 4.62 0 7 0 C7 6.27 7 12.54 7 19 C20.86 19 34.72 19 49 19 C49 12.73 49 6.46 49 0 C51.31 0 53.62 0 56 0 C56 6.27 56 12.54 56 19 C58.82949219 18.94199219 61.65898437 18.88398437 64.57421875 18.82421875 C67.32117918 18.78520108 70.0681085 18.75485487 72.81518555 18.7253418 C74.72125107 18.70023001 76.62722059 18.66613355 78.53295898 18.62280273 C81.27611998 18.56200256 84.01800586 18.53375755 86.76171875 18.51171875 C87.61086349 18.48591232 88.46000824 18.4601059 89.33488464 18.43351746 C93.70959693 18.43145346 95.44927916 18.57200843 99.01489258 21.34301758 C104.63490331 28.86516452 102 33.66733346 102 45 C53.16 45 4.32 45 -46 45 C-46 26 -46 26 -42 20 C-38.61606992 18.30803496 -34.77522209 18.88013451 -31.0546875 18.90234375 C-29.72716965 18.90446617 -29.72716965 18.90446617 -28.37283325 18.90663147 C-25.54018809 18.9122386 -22.70762136 18.92479229 -19.875 18.9375 C-17.95703239 18.94251408 -16.03906354 18.94707715 -14.12109375 18.95117188 C-9.41400782 18.96136037 -4.70709192 18.98093437 0 19 C0 12.73 0 6.46 0 0 Z " fill="#000000" transform="translate(72,16)"/>
<path d="M0 0 C8.91 0 17.82 0 27 0 C27.061875 3.01125 27.12375 6.0225 27.1875 9.125 C27.21481201 10.06230957 27.24212402 10.99961914 27.27026367 11.96533203 C27.32069064 17.05682897 26.91889868 20.63185792 24 25 C20.74610012 27.16926659 19.86604043 27.24080049 16.11328125 27.1953125 C15.26805908 27.19031738 14.42283691 27.18532227 13.55200195 27.18017578 C12.48296631 27.16196777 11.41393066 27.14375977 10.3125 27.125 C6.909375 27.08375 3.50625 27.0425 0 27 C0 18.09 0 9.18 0 0 Z " fill="#000000" transform="translate(147,155)"/>
<path d="M0 0 C8.91 0 17.82 0 27 0 C27 8.91 27 17.82 27 27 C23.638125 27.103125 20.27625 27.20625 16.8125 27.3125 C15.23625854 27.38078003 15.23625854 27.38078003 13.62817383 27.45043945 C8.96605374 27.51972976 6.71884617 27.53845817 2.88671875 24.66796875 C0.42128943 21.18165772 -0.1255923 18.7132523 -0.09765625 14.55078125 C-0.09515869 13.78677002 -0.09266113 13.02275879 -0.09008789 12.2355957 C-0.07643188 10.78866333 -0.07643188 10.78866333 -0.0625 9.3125 C-0.041875 6.239375 -0.02125 3.16625 0 0 Z " fill="#544944" transform="translate(26,155)"/>
<path d="M0 0 C7.92 0 15.84 0 24 0 C24 8.91 24 17.82 24 27 C16.08 27 8.16 27 0 27 C0 18.09 0 9.18 0 0 Z " fill="#544944" transform="translate(117,155)"/>
<path d="M0 0 C7.92 0 15.84 0 24 0 C24 8.91 24 17.82 24 27 C16.08 27 8.16 27 0 27 C0 18.09 0 9.18 0 0 Z " fill="#544944" transform="translate(88,155)"/>
<path d="M0 0 C7.92 0 15.84 0 24 0 C24 8.91 24 17.82 24 27 C16.08 27 8.16 27 0 27 C0 18.09 0 9.18 0 0 Z " fill="#544944" transform="translate(59,155)"/>
<path d="M0 0 C8.91 0 17.82 0 27 0 C27 7.92 27 15.84 27 24 C18.09 24 9.18 24 0 24 C0 16.08 0 8.16 0 0 Z " fill="#544944" transform="translate(147,126)"/>
<path d="M0 0 C8.91 0 17.82 0 27 0 C27 7.92 27 15.84 27 24 C18.09 24 9.18 24 0 24 C0 16.08 0 8.16 0 0 Z " fill="#544944" transform="translate(26,126)"/>
<path d="M0 0 C8.91 0 17.82 0 27 0 C27 7.92 27 15.84 27 24 C18.09 24 9.18 24 0 24 C0 16.08 0 8.16 0 0 Z " fill="#544944" transform="translate(147,96)"/>
<path d="M0 0 C8.91 0 17.82 0 27 0 C27 7.92 27 15.84 27 24 C18.09 24 9.18 24 0 24 C0 16.08 0 8.16 0 0 Z " fill="#544944" transform="translate(26,96)"/>
<path d="M0 0 C8.91 0 17.82 0 27 0 C27 7.92 27 15.84 27 24 C18.09 24 9.18 24 0 24 C0 16.08 0 8.16 0 0 Z " fill="#544944" transform="translate(147,67)"/>
<path d="M0 0 C8.91 0 17.82 0 27 0 C27 7.92 27 15.84 27 24 C18.09 24 9.18 24 0 24 C0 16.08 0 8.16 0 0 Z " fill="#544944" transform="translate(26,67)"/>
<path d="M0 0 C7.92 0 15.84 0 24 0 C24 7.92 24 15.84 24 24 C16.08 24 8.16 24 0 24 C0 16.08 0 8.16 0 0 Z " fill="#544944" transform="translate(117,126)"/>
<path d="M0 0 C7.92 0 15.84 0 24 0 C24 7.92 24 15.84 24 24 C16.08 24 8.16 24 0 24 C0 16.08 0 8.16 0 0 Z " fill="#544944" transform="translate(88,126)"/>
<path d="M0 0 C7.92 0 15.84 0 24 0 C24 7.92 24 15.84 24 24 C16.08 24 8.16 24 0 24 C0 16.08 0 8.16 0 0 Z " fill="#544944" transform="translate(59,126)"/>
<path d="M0 0 C7.92 0 15.84 0 24 0 C24 7.92 24 15.84 24 24 C16.08 24 8.16 24 0 24 C0 16.08 0 8.16 0 0 Z " fill="#544944" transform="translate(117,96)"/>
<path d="M0 0 C7.92 0 15.84 0 24 0 C24 7.92 24 15.84 24 24 C16.08 24 8.16 24 0 24 C0 16.08 0 8.16 0 0 Z " fill="#544944" transform="translate(88,96)"/>
<path d="M0 0 C7.92 0 15.84 0 24 0 C24 7.92 24 15.84 24 24 C16.08 24 8.16 24 0 24 C0 16.08 0 8.16 0 0 Z " fill="#544944" transform="translate(59,96)"/>
<path d="M0 0 C7.92 0 15.84 0 24 0 C24 7.92 24 15.84 24 24 C16.08 24 8.16 24 0 24 C0 16.08 0 8.16 0 0 Z " fill="#544944" transform="translate(117,67)"/>
<path d="M0 0 C7.92 0 15.84 0 24 0 C24 7.92 24 15.84 24 24 C16.08 24 8.16 24 0 24 C0 16.08 0 8.16 0 0 Z " fill="#544944" transform="translate(88,67)"/>
<path d="M0 0 C7.92 0 15.84 0 24 0 C24 7.92 24 15.84 24 24 C16.08 24 8.16 24 0 24 C0 16.08 0 8.16 0 0 Z " fill="#544944" transform="translate(59,67)"/>
</svg>
