<?xml version="1.0" encoding="UTF-8"?>
<svg version="1.1" xmlns="http://www.w3.org/2000/svg" width="200" height="200">
<path d="M0 0 C14.625 1.125 14.625 1.125 20.2590332 1.93969727 C21.51935867 2.1198085 22.77968414 2.29991974 24.07820129 2.48548889 C25.40240822 2.67903493 26.72660124 2.87267615 28.05078125 3.06640625 C29.44462332 3.26713041 30.83851992 3.46747614 32.23246765 3.66746521 C35.85454311 4.18813617 39.47586773 4.71385239 43.0970459 5.24072266 C46.81099136 5.78014413 50.52564363 6.31465293 54.24023438 6.84960938 C61.49418074 7.89500745 68.74726768 8.9462059 76 10 C76 14.95 76 19.9 76 25 C83.92 25 91.84 25 100 25 C100 20.05 100 15.1 100 10 C109.0226 8.69167081 118.0457004 7.38693976 127.06972694 6.08848572 C131.26019072 5.48538033 135.45041744 4.88071854 139.64013672 4.27246094 C143.68556227 3.68521078 147.73156502 3.1020999 151.77799606 2.52182007 C153.31951415 2.30002291 154.86082072 2.07675037 156.40190506 1.85195923 C158.56507922 1.53668717 160.72895487 1.22673131 162.89306641 0.91796875 C164.12328522 0.74031982 165.35350403 0.5626709 166.6210022 0.37963867 C170 0 170 0 176 0 C176 20.79 176 41.58 176 63 C117.92 63 59.84 63 0 63 C0 42.21 0 21.42 0 0 Z " fill="#544944" transform="translate(12,106)"/>
<path d="M0 0 C37.62 0 75.24 0 114 0 C114 8.25 114 16.5 114 25 C124.23 25 134.46 25 145 25 C145 37.54 145 50.08 145 63 C139.66473736 64.18561392 134.6207568 65.2865147 129.25854492 66.05322266 C128.01082809 66.23325836 126.76311127 66.41329407 125.47758484 66.5987854 C124.14523517 66.78736918 122.81286259 66.97579108 121.48046875 67.1640625 C120.09040668 67.36276141 118.70037732 67.56168922 117.31037903 67.76083374 C114.41532133 68.1748193 111.51993148 68.58637043 108.62426758 68.99609375 C104.91713251 69.52079248 101.21083439 70.05115668 97.50475597 70.58326149 C94.64231189 70.99369205 91.77948399 71.40139101 88.9165287 71.80823898 C87.54929761 72.00281898 86.18217843 72.19818715 84.81517601 72.39436722 C82.90866843 72.66750513 81.00158652 72.93662512 79.09448242 73.20556641 C78.01132248 73.35941803 76.92816254 73.51326965 75.81217957 73.67178345 C73 74 73 74 69 74 C69 70.37 69 66.74 69 63 C61.08 63 53.16 63 45 63 C45 66.63 45 70.26 45 74 C30.55513998 72.54125284 16.19573737 70.54934439 1.82617188 68.48608398 C-2.04752272 67.93068635 -5.92214756 67.38212486 -9.796875 66.83398438 C-12.26047473 66.48217717 -14.72401859 66.12997852 -17.1875 65.77734375 C-18.34564209 65.61378891 -19.50378418 65.45023407 -20.69702148 65.28172302 C-21.75993408 65.12808792 -22.82284668 64.97445282 -23.91796875 64.81616211 C-24.85406982 64.68229599 -25.7901709 64.54842987 -26.75463867 64.4105072 C-29 64 -29 64 -31 63 C-31 50.46 -31 37.92 -31 25 C-20.77 25 -10.54 25 0 25 C0 16.75 0 8.5 0 0 Z M14 13 C14 16.96 14 20.92 14 25 C42.38 25 70.76 25 100 25 C100 21.04 100 17.08 100 13 C71.62 13 43.24 13 14 13 Z " fill="#544944" transform="translate(43,31)"/>
</svg>
