<?xml version="1.0" encoding="UTF-8"?>
<svg version="1.1" xmlns="http://www.w3.org/2000/svg" width="200" height="200">
<path d="M0 0 C0.74380197 -0.0055344 1.48760393 -0.01106879 2.25394535 -0.0167709 C4.74767985 -0.03039025 7.24041569 -0.01540197 9.73413086 -0.00050354 C11.52131577 -0.00428626 13.30849776 -0.00978592 15.09567261 -0.01687622 C19.95104571 -0.03085421 24.80606539 -0.01964462 29.66141891 -0.00316501 C34.73912596 0.01067068 39.81681217 0.00422711 44.89453125 0.0007019 C53.42217718 -0.00200139 61.94968246 0.01148566 70.47729492 0.03465271 C80.34076783 0.06126318 90.20400552 0.06300998 100.06750202 0.05126435 C109.55023017 0.0404905 119.03287311 0.04667055 128.51559448 0.06081963 C132.5538026 0.06658284 136.59194843 0.06649411 140.63015747 0.06175423 C145.38425892 0.05698694 150.13810234 0.06707583 154.89215469 0.08870888 C156.63848119 0.0942803 158.38483246 0.09473879 160.13116074 0.08975601 C162.51204461 0.0838139 164.89213675 0.09628699 167.27294922 0.11352539 C168.31360834 0.10451032 168.31360834 0.10451032 169.37529087 0.09531313 C172.24819664 0.13323039 174.44061985 0.41175982 177.06494904 1.61027431 C179.39472665 4.41356882 179.13993296 6.53016383 179.14440918 10.14378357 C179.15064914 10.82209984 179.1568891 11.50041611 179.16331816 12.19928741 C179.17930204 14.47736133 179.16662399 16.75437318 179.15405273 19.03245544 C179.1594715 20.66348395 179.16659278 22.29450755 179.17529297 23.92552185 C179.19355862 28.35941014 179.18644555 32.79292695 179.17377663 37.2268219 C179.16366568 41.86191323 179.17303699 46.49697227 179.17932129 51.13206482 C179.18660327 58.91662826 179.17699559 66.70104002 179.15795898 74.48558044 C179.13618916 83.49193731 179.14324014 92.49793201 179.16526461 101.50428009 C179.18340297 109.23004512 179.18598461 116.95570097 179.17550993 124.68148041 C179.16926637 129.29877664 179.16846296 133.91590251 179.18165588 138.53318787 C179.19319109 142.87367244 179.18523169 147.21368904 179.16207886 151.55412292 C179.15677923 153.14928916 179.15832691 154.74449463 179.16712952 156.33964539 C179.17802008 158.51317519 179.16440301 160.68519446 179.14440918 162.85862732 C179.14290108 164.07610657 179.14139297 165.29358582 179.13983917 166.54795837 C178.63647461 169.50120544 178.63647461 169.50120544 177.06494904 171.39255714 C173.79219534 172.88663622 170.80139386 172.91619192 167.27294922 172.88215637 C166.15724627 172.88917633 166.15724627 172.88917633 165.01900387 172.89633811 C162.52542758 172.90830885 160.03239877 172.89882298 157.53881836 172.88938904 C155.75163451 172.89345382 153.96445317 172.89879518 152.17727661 172.90531921 C147.32196531 172.9190097 142.46684499 172.91368701 137.6115303 172.90418196 C132.5338209 172.89659435 127.45612801 172.90362847 122.37841797 172.90834045 C113.85080017 172.91380062 105.32326027 172.90659952 96.7956543 172.89231873 C86.93218842 172.87599172 77.06890857 172.88128005 67.2054472 172.89779794 C58.74166361 172.91140535 50.27793608 172.91333612 41.81414509 172.90548193 C36.75699628 172.90080132 31.69993496 172.90019124 26.64279175 172.9100914 C21.88870395 172.91874794 17.13485634 172.91276319 12.38079453 172.89540863 C10.63446324 172.89143676 8.88811179 172.89258977 7.14178848 172.89919662 C4.76091805 172.90737469 2.38082094 172.8971364 0 172.88215637 C-0.69377275 172.88884854 -1.38754549 172.8955407 -2.10234165 172.90243566 C-4.97737498 172.86726295 -7.16656661 172.59134771 -9.79199982 171.38976383 C-12.11520106 168.59788996 -11.86696693 166.50466803 -11.87145996 162.90332031 C-11.87769992 162.22979316 -11.88393989 161.55626601 -11.89036894 160.86232895 C-11.90635234 158.60040601 -11.89367495 156.33955281 -11.88110352 154.07762146 C-11.88652236 152.45806752 -11.89364368 150.83851852 -11.90234375 149.21897888 C-11.92060998 144.81601335 -11.91349571 140.41342189 -11.90082741 136.01044965 C-11.89071502 131.40652267 -11.90008834 126.80262816 -11.90637207 122.19869995 C-11.91365436 114.46541075 -11.90404633 106.73227422 -11.88500977 98.99900818 C-11.86324756 90.0551544 -11.87028525 81.11166543 -11.89231539 72.16782051 C-11.91046203 64.49384389 -11.91303109 56.81997716 -11.90256071 49.14598602 C-11.89632073 44.56051557 -11.89550381 39.97521663 -11.90870667 35.38975716 C-11.92025362 31.07799568 -11.91226083 26.76670479 -11.88912964 22.4549942 C-11.883836 20.87153594 -11.88536755 19.28803815 -11.8941803 17.70459557 C-11.90509457 15.54455208 -11.89142477 13.38602103 -11.87145996 11.22607422 C-11.86995186 10.01689111 -11.86844376 8.807708 -11.86688995 7.56188297 C-11.36352539 4.50120544 -11.36352539 4.50120544 -9.79199982 2.11222649 C-6.54800054 -0.03980404 -3.76536779 -0.05213001 0 0 Z M2.63647461 14.50120544 C2.63647461 19.45120544 2.63647461 24.40120544 2.63647461 29.50120544 C9.56647461 29.50120544 16.49647461 29.50120544 23.63647461 29.50120544 C23.63647461 24.55120544 23.63647461 19.60120544 23.63647461 14.50120544 C16.70647461 14.50120544 9.77647461 14.50120544 2.63647461 14.50120544 Z M37.63647461 14.50120544 C37.63647461 19.45120544 37.63647461 24.40120544 37.63647461 29.50120544 C44.56647461 29.50120544 51.49647461 29.50120544 58.63647461 29.50120544 C58.63647461 24.55120544 58.63647461 19.60120544 58.63647461 14.50120544 C51.70647461 14.50120544 44.77647461 14.50120544 37.63647461 14.50120544 Z M72.63647461 14.50120544 C72.63647461 19.45120544 72.63647461 24.40120544 72.63647461 29.50120544 C79.89647461 29.50120544 87.15647461 29.50120544 94.63647461 29.50120544 C94.63647461 24.55120544 94.63647461 19.60120544 94.63647461 14.50120544 C87.37647461 14.50120544 80.11647461 14.50120544 72.63647461 14.50120544 Z M108.63647461 14.50120544 C108.63647461 19.45120544 108.63647461 24.40120544 108.63647461 29.50120544 C115.56647461 29.50120544 122.49647461 29.50120544 129.63647461 29.50120544 C129.63647461 24.55120544 129.63647461 19.60120544 129.63647461 14.50120544 C122.70647461 14.50120544 115.77647461 14.50120544 108.63647461 14.50120544 Z M143.63647461 14.50120544 C143.63647461 19.45120544 143.63647461 24.40120544 143.63647461 29.50120544 C150.56647461 29.50120544 157.49647461 29.50120544 164.63647461 29.50120544 C164.63647461 24.55120544 164.63647461 19.60120544 164.63647461 14.50120544 C157.70647461 14.50120544 150.77647461 14.50120544 143.63647461 14.50120544 Z M62.359375 60.79417419 C59.70083271 64.97129151 60.04531368 68.95746618 60.07006836 73.81370544 C60.06386978 74.81957703 60.0576712 75.82544861 60.05128479 76.86180115 C60.04418651 78.98670992 60.04736073 81.11167431 60.06005859 83.23655701 C60.07392631 86.48987484 60.03985018 89.74031799 60.00170898 92.99339294 C60.00075781 95.05849782 60.0026165 97.12360629 60.00756836 99.18870544 C59.99431015 100.16170593 59.98105194 101.13470642 59.96739197 102.13719177 C60.03677603 107.63191871 60.03677603 107.63191871 62.80078125 112.27073669 C65.58591685 113.79073564 65.58591685 113.79073564 68.57446289 112.97117615 C71.72304036 111.45964809 74.66476895 109.83025374 77.62866211 107.98167419 C78.7462793 107.2888031 79.86389648 106.59593201 81.01538086 105.88206482 C82.18083347 105.15108536 83.34619752 104.41996468 84.51147461 103.68870544 C85.66867468 102.9687383 86.82622424 102.24933258 87.98413086 101.53050232 C90.20602378 100.14853095 92.42498209 98.76182744 94.640625 97.36985779 C96.48044953 96.22227267 98.3293767 95.08894491 100.19287109 93.98020935 C104.42909832 91.55805245 104.42909832 91.55805245 106.94897461 87.50120544 C106.51208427 83.30705819 104.76692929 82.27261529 101.63647461 79.50120544 C99.27236722 77.83432299 96.81753711 76.35606999 94.32397461 74.89183044 C93.63263428 74.479552 92.94129395 74.06727356 92.22900391 73.64250183 C90.77553995 72.77840529 89.31984854 71.91804551 87.86206055 71.06126404 C85.63690552 69.75145909 83.42159188 68.42607634 81.20678711 67.09886169 C79.78807793 66.25806952 78.36882509 65.41819386 76.94897461 64.57933044 C76.29050537 64.1845752 75.63203613 63.78981995 74.95361328 63.38310242 C68.85027022 59.49938052 68.85027022 59.49938052 62.359375 60.79417419 Z M2.63647461 143.50120544 C2.63647461 148.45120544 2.63647461 153.40120544 2.63647461 158.50120544 C9.56647461 158.50120544 16.49647461 158.50120544 23.63647461 158.50120544 C23.63647461 153.55120544 23.63647461 148.60120544 23.63647461 143.50120544 C16.70647461 143.50120544 9.77647461 143.50120544 2.63647461 143.50120544 Z M37.63647461 143.50120544 C37.63647461 148.45120544 37.63647461 153.40120544 37.63647461 158.50120544 C44.56647461 158.50120544 51.49647461 158.50120544 58.63647461 158.50120544 C58.63647461 153.55120544 58.63647461 148.60120544 58.63647461 143.50120544 C51.70647461 143.50120544 44.77647461 143.50120544 37.63647461 143.50120544 Z M72.63647461 143.50120544 C72.63647461 148.45120544 72.63647461 153.40120544 72.63647461 158.50120544 C79.89647461 158.50120544 87.15647461 158.50120544 94.63647461 158.50120544 C94.63647461 153.55120544 94.63647461 148.60120544 94.63647461 143.50120544 C87.37647461 143.50120544 80.11647461 143.50120544 72.63647461 143.50120544 Z M108.63647461 143.50120544 C108.63647461 148.45120544 108.63647461 153.40120544 108.63647461 158.50120544 C115.56647461 158.50120544 122.49647461 158.50120544 129.63647461 158.50120544 C129.63647461 153.55120544 129.63647461 148.60120544 129.63647461 143.50120544 C122.70647461 143.50120544 115.77647461 143.50120544 108.63647461 143.50120544 Z M143.63647461 143.50120544 C143.63647461 148.45120544 143.63647461 153.40120544 143.63647461 158.50120544 C150.56647461 158.50120544 157.49647461 158.50120544 164.63647461 158.50120544 C164.63647461 153.55120544 164.63647461 148.60120544 164.63647461 143.50120544 C157.70647461 143.50120544 150.77647461 143.50120544 143.63647461 143.50120544 Z " fill="#544944" transform="translate(16.363525390625,13.498794555664063)"/>
</svg>
