<?xml version="1.0" encoding="UTF-8"?>
<svg version="1.1" xmlns="http://www.w3.org/2000/svg" width="200" height="200">
<path d="M0 0 C0.93497314 0.55727783 1.86994629 1.11455566 2.83325195 1.6887207 C4.95885114 2.70984748 7.10520901 3.67736772 9.25531006 4.64578247 C11.75411971 5.77290739 14.23910921 6.92650591 16.72216797 8.08789062 C22.14413817 10.62163417 27.56967331 13.14761701 32.99731445 15.66918945 C33.90951248 16.09305435 34.82171051 16.51691925 35.7615509 16.95362854 C44.44761379 20.98413079 53.16422689 24.94532483 61.89575195 28.8762207 C62.90029922 29.32853058 62.90029922 29.32853058 63.92514038 29.78997803 C67.55986794 31.42581706 71.19588375 33.05876224 74.83325195 34.6887207 C73.83325195 37.6887207 73.83325195 37.6887207 71.3059082 39.16821289 C70.18055664 39.68544922 69.05520508 40.20268555 67.89575195 40.7355957 C66.96651665 41.16773125 66.96651665 41.16773125 66.01850891 41.6085968 C63.96126335 42.56209237 61.89746267 43.50041088 59.83325195 44.4387207 C58.39561291 45.1012199 56.95836229 45.76456256 55.52148438 46.42871094 C51.73413819 48.17546822 47.94066238 49.90843945 44.14471436 51.63641357 C41.86000332 52.67654198 39.57623639 53.71871632 37.29272461 54.76147461 C31.56149017 57.37764849 25.82893462 59.990849 20.08911133 62.58813477 C19.44029999 62.88197052 18.79148865 63.17580627 18.12301636 63.47854614 C16.85297586 64.05231466 15.58193771 64.62388068 14.30984497 65.19308472 C11.25317337 66.56559425 8.22722116 67.97824409 5.23706055 69.48901367 C3.54250732 70.32843506 3.54250732 70.32843506 1.8137207 71.18481445 C0.82654053 71.69069092 -0.16063965 72.19656738 -1.17773438 72.71777344 C-7.40829744 74.74170134 -12.4812397 72.3493134 -18.12768555 69.6184082 C-18.78330475 69.30520126 -19.43892395 68.99199432 -20.1144104 68.66929626 C-21.52573782 67.99401925 -22.93506124 67.31454067 -24.3425293 66.6312561 C-28.1160551 64.79952728 -31.90410958 62.99823189 -35.69018555 61.19262695 C-36.46908142 60.82012314 -37.24797729 60.44761932 -38.05047607 60.06382751 C-47.05677072 55.76608468 -56.14869397 51.65951994 -65.24847412 47.56439209 C-72.9670725 44.09038434 -80.63843642 40.56247988 -88.16674805 36.6887207 C-85.04467778 33.30720356 -81.34004818 31.71081291 -77.20581055 29.8371582 C-76.3997789 29.46511765 -75.59374725 29.09307709 -74.76329041 28.70976257 C-72.10944369 27.4869945 -69.45115356 26.27434759 -66.79174805 25.0637207 C-63.06326781 23.36324357 -59.33548391 21.66124962 -55.6081543 19.95825195 C-54.65877487 19.52538376 -53.70939545 19.09251556 -52.73124695 18.64653015 C-47.16448639 16.09807789 -41.63885415 13.48115684 -36.14501953 10.77911377 C-32.8086885 9.13916999 -29.46040401 7.52452597 -26.11102295 5.91143799 C-24.53333078 5.14290788 -22.96157808 4.36205342 -21.39630127 3.56854248 C-6.80397251 -3.81641068 -6.80397251 -3.81641068 0 0 Z " fill="#544944" transform="translate(100.166748046875,26.311279296875)"/>
<path d="M0 0 C5.31434605 1.61631527 10.22186242 3.85892291 15.23828125 6.2109375 C16.11848434 6.62034576 16.99868744 7.02975403 17.90556335 7.4515686 C20.70930421 8.75633793 23.51097366 10.06548351 26.3125 11.375 C29.10370692 12.67651648 31.89534242 13.9771062 34.68730164 15.27700806 C36.41977121 16.08396528 38.151748 16.89198165 39.88313293 17.70126343 C41.47533795 18.44414893 43.07042712 19.1808904 44.66860962 19.91082764 C46.25822057 20.65345759 47.83187808 21.43098693 49.38973999 22.23809814 C54.03538194 24.61084378 54.03538194 24.61084378 59.12792969 24.44970703 C60.07571289 23.97130371 61.02349609 23.49290039 62 23 C63.64983887 22.26885986 63.64983887 22.26885986 65.33300781 21.52294922 C66.54129749 20.95354443 67.74793215 20.380618 68.953125 19.8046875 C69.60714294 19.49577072 70.26116089 19.18685394 70.93499756 18.86857605 C72.32564327 18.21154135 73.71562354 17.55309662 75.10498047 16.89334106 C78.696615 15.18822422 82.29340626 13.49407886 85.890625 11.80078125 C86.59425171 11.46942673 87.29787842 11.1380722 88.02282715 10.79667664 C95.95779753 7.06760134 103.95959685 3.49534192 112 0 C114.40141863 3.60212794 114.28979387 6.21876369 114.265625 10.37890625 C114.26753845 11.1056102 114.2694519 11.83231415 114.27142334 12.58103943 C114.2727843 14.12181951 114.26909405 15.66261109 114.26074219 17.20336914 C114.25014921 19.52973206 114.26058344 21.85530347 114.2734375 24.18164062 C114.29532903 46.50065568 114.29532903 46.50065568 106.3125 54.7421875 C90.58942706 69.51426813 68.26304493 70.66852387 47.79785156 70.13623047 C33.54137169 69.44206679 16.12656217 64.89718445 6.1875 54.015625 C0.79212209 47.11576671 -0.29263035 41.72958648 -0.1953125 33.10546875 C-0.1924826 32.15811356 -0.18965271 31.21075836 -0.18673706 30.23469543 C-0.17557187 27.21883334 -0.15047389 24.20327184 -0.125 21.1875 C-0.11496547 19.13867617 -0.10584045 17.08984768 -0.09765625 15.04101562 C-0.07564449 10.02722852 -0.04113971 5.01366517 0 0 Z " fill="#544944" transform="translate(37,87)"/>
<path d="M0 0 C0.00364563 0.98083557 0.00729126 1.96167114 0.01104736 2.972229 C0.04797877 12.21292003 0.10573092 21.45327724 0.18390274 30.69371414 C0.22342246 35.44442381 0.2555888 40.19494687 0.27099609 44.94580078 C0.2861332 49.53015166 0.32052591 54.11398969 0.36830902 58.69811249 C0.38315333 60.44756362 0.39104276 62.19708796 0.39188385 63.94660187 C0.39424617 66.39627342 0.42126426 68.84451914 0.45410156 71.29394531 C0.4490712 72.01827255 0.44404083 72.74259979 0.43885803 73.48887634 C0.51026751 76.92885931 0.69278634 78.64253351 2.97161865 81.29412842 C3.6409845 81.85706604 4.31035034 82.42000366 5 83 C6.75267445 88.25802336 6.77111783 92.3652302 4.4375 97.3125 C1.44120048 100.61611229 -0.70954282 101.78437047 -5 103 C-9.16336459 103.1899634 -12.30644239 102.43724284 -15.875 100.1875 C-19.25543896 96.70763637 -19.91599013 95.04172242 -20.3125 90.125 C-20.2161702 86.16065842 -19.1417672 83.37740212 -17 80 C-16.01 79.505 -16.01 79.505 -15 79 C-14.67 54.58 -14.34 30.16 -14 5 C-3 0 -3 0 0 0 Z " fill="#544944" transform="translate(182,73)"/>
</svg>
