<?xml version="1.0" encoding="UTF-8"?>
<svg version="1.1" xmlns="http://www.w3.org/2000/svg" width="225" height="225">
<path d="M0 0 C3.04576756 0.85085719 6.0334288 1.42524263 9.16015625 1.8828125 C9.16015625 2.8728125 9.16015625 3.8628125 9.16015625 4.8828125 C11.41143621 6.67588553 11.41143621 6.67588553 14.28515625 8.3203125 C15.290625 8.93519531 16.29609375 9.55007812 17.33203125 10.18359375 C18.73195312 11.02470703 18.73195312 11.02470703 20.16015625 11.8828125 C24.38213991 14.54109851 27.72304418 17.2647998 31.16015625 20.8828125 C31.92328125 21.6046875 32.68640625 22.3265625 33.47265625 23.0703125 C35.16015625 24.8828125 35.16015625 24.8828125 35.16015625 26.8828125 C35.82015625 26.8828125 36.48015625 26.8828125 37.16015625 26.8828125 C38.7109375 28.82421875 38.7109375 28.82421875 40.47265625 31.4453125 C42.52366306 34.47298923 44.58114325 37.4651191 46.78515625 40.3828125 C50.56870913 45.67475855 54.16015625 51.29551083 54.16015625 57.8828125 C54.82015625 57.8828125 55.48015625 57.8828125 56.16015625 57.8828125 C64.38143266 86.75141669 64.22001766 109.62958472 54.16015625 137.8828125 C56.80015625 138.2128125 59.44015625 138.5428125 62.16015625 138.8828125 C61.50015625 140.2028125 60.84015625 141.5228125 60.16015625 142.8828125 C57.52015625 142.5528125 54.88015625 142.2228125 52.16015625 141.8828125 C51.81984375 142.54925781 51.47953125 143.21570313 51.12890625 143.90234375 C46.27024873 153.14154622 40.7614361 161.66159664 33.16015625 168.8828125 C31.1659801 171.2079892 29.18406709 173.54162914 27.22265625 175.89453125 C24.93925258 178.09576699 23.1148149 178.80715336 20.16015625 179.8828125 C18.5725435 180.8857888 17.00899865 181.92793856 15.47265625 183.0078125 C11.38025194 185.8828125 11.38025194 185.8828125 9.16015625 185.8828125 C9.16015625 186.5428125 9.16015625 187.2028125 9.16015625 187.8828125 C6.20672782 189.08278184 3.24673731 190.26562354 0.28515625 191.4453125 C-0.55660156 191.78755859 -1.39835938 192.12980469 -2.265625 192.48242188 C-3.07128906 192.80146484 -3.87695312 193.12050781 -4.70703125 193.44921875 C-5.45065918 193.74771729 -6.19428711 194.04621582 -6.96044922 194.35375977 C-8.83984375 194.8828125 -8.83984375 194.8828125 -10.83984375 193.8828125 C-10.86171753 192.26439453 -10.86171753 192.26439453 -10.8840332 190.61328125 C-10.94235313 186.57991709 -11.01958168 182.54709169 -11.10229492 178.51416016 C-11.13538668 176.77434078 -11.16346682 175.03441811 -11.1862793 173.29443359 C-11.2201173 170.78178209 -11.27244401 168.27006384 -11.328125 165.7578125 C-11.33770988 164.60575317 -11.33770988 164.60575317 -11.3474884 163.43041992 C-11.49325487 157.97977026 -12.8237448 153.93920091 -14.83984375 148.8828125 C-14.52734375 145.8828125 -14.52734375 145.8828125 -13.83984375 143.8828125 C-12.82535156 143.92277344 -11.81085938 143.96273437 -10.765625 144.00390625 C0.81337767 143.64674298 9.39126039 138.01542071 17.16015625 129.8828125 C17.86527344 129.21121094 18.57039062 128.53960937 19.296875 127.84765625 C23.58063992 123.33039471 25.38240551 117.97519333 26.16015625 111.8828125 C26.51078125 110.7484375 26.86140625 109.6140625 27.22265625 108.4453125 C28.18916114 104.77259392 28.23568877 101.65943863 28.16015625 97.8828125 C28.49015625 97.5528125 28.82015625 97.2228125 29.16015625 96.8828125 C29.38093547 92.88281256 29.26292721 88.8859862 29.16015625 84.8828125 C29.13501953 83.67238281 29.13501953 83.67238281 29.109375 82.4375 C28.66402627 75.33736877 25.60586171 69.26830293 21.47265625 63.546875 C19.69959208 59.94797689 20.10935528 57.46856494 20.53515625 53.5078125 C21.2279254 46.83821143 21.21498062 40.91768046 18.66015625 34.6328125 C17.76185296 32.38705426 16.92636284 30.18143227 16.16015625 27.8828125 C6.60221363 28.09350863 -3.99608764 29.93408648 -11.08984375 36.8203125 C-13.7048113 38.87401872 -14.88753443 38.88098238 -18.30078125 38.75 C-20.43224152 38.49327527 -22.55038503 38.18224908 -24.67260742 37.8581543 C-30.61068382 36.962234 -36.39754503 36.62898535 -42.40234375 36.6328125 C-43.28784912 36.63144287 -44.17335449 36.63007324 -45.08569336 36.62866211 C-50.69833958 36.6870357 -56.00573683 37.30846497 -61.52734375 38.2578125 C-68.11750853 39.22401462 -71.23129597 38.37559742 -76.55078125 34.48828125 C-82.54241876 30.28595528 -89.56655005 29.5531813 -96.7109375 29.484375 C-99.37232188 29.98246896 -100.2447524 30.71804566 -101.83984375 32.8828125 C-102.57026228 36.49304349 -102.57026228 36.49304349 -102.83984375 39.8828125 C-103.49984375 39.8828125 -104.15984375 39.8828125 -104.83984375 39.8828125 C-104.77812988 40.46135986 -104.71641602 41.03990723 -104.65283203 41.63598633 C-102.66463462 61.73998252 -102.66463462 61.73998252 -108.4921875 69.82421875 C-110.20499028 72.03050625 -110.20499028 72.03050625 -109.83984375 75.8828125 C-110.49984375 75.8828125 -111.15984375 75.8828125 -111.83984375 75.8828125 C-112.94071568 82.90087107 -112.93717467 89.78847017 -112.83984375 96.8828125 C-111.84984375 97.3778125 -111.84984375 97.3778125 -110.83984375 97.8828125 C-111.49984375 97.8828125 -112.15984375 97.8828125 -112.83984375 97.8828125 C-112.17984375 102.5028125 -111.51984375 107.1228125 -110.83984375 111.8828125 C-109.84984375 111.8828125 -108.85984375 111.8828125 -107.83984375 111.8828125 C-108.04609375 112.8109375 -108.25234375 113.7390625 -108.46484375 114.6953125 C-109.20677341 118.03454652 -109.20677341 118.03454652 -106.83984375 120.8828125 C-106.83984375 121.8728125 -106.83984375 122.8628125 -106.83984375 123.8828125 C-106.17984375 123.8828125 -105.51984375 123.8828125 -104.83984375 123.8828125 C-101.83984375 128.26742788 -101.83984375 128.26742788 -101.83984375 130.8828125 C-101.03546875 131.2540625 -101.03546875 131.2540625 -100.21484375 131.6328125 C-96.6737538 133.49654405 -93.15755249 135.49679777 -90.38452148 138.41357422 C-87.75376521 140.9158488 -84.26771262 141.80869271 -80.90234375 143.0078125 C-80.18626953 143.27207031 -79.47019531 143.53632813 -78.73242188 143.80859375 C-75.45649508 145.00480798 -72.23627179 146.07684854 -68.83984375 146.8828125 C-69.39239519 150.19812116 -69.91461395 153.0912293 -71.83984375 155.8828125 C-76.85538451 158.74883579 -81.75438001 158.42348828 -87.21484375 157.0078125 C-91.68898471 154.91718681 -94.5867969 151.05291918 -97.7265625 147.35546875 C-102.67961694 141.56012039 -106.8311246 138.79708178 -114.40234375 137.0703125 C-118.08178015 136.86961597 -120.46001497 137.48142008 -123.83984375 138.8828125 C-124.44534817 141.7892337 -124.71272114 143.1064314 -123.83984375 145.8828125 C-121.48110801 148.14437186 -118.94545258 149.98882121 -116.3125 151.921875 C-112.27703468 155.12219663 -110.83557819 158.6530786 -108.74609375 163.33203125 C-105.41471699 170.4752718 -102.34931573 175.00537504 -94.921875 178.09765625 C-87.56015518 180.56915359 -80.57751603 181.50991263 -72.83984375 181.8828125 C-72.83984375 186.5028125 -72.83984375 191.1228125 -72.83984375 195.8828125 C-77.91264643 197.15101317 -80.07728869 195.48257747 -84.33984375 193.0078125 C-85.66050823 192.25644417 -86.98336648 191.50891614 -88.30859375 190.765625 C-88.89060547 190.42934082 -89.47261719 190.09305664 -90.07226562 189.74658203 C-91.97012999 188.819145 -93.77948229 188.32553012 -95.83984375 187.8828125 C-95.83984375 186.8928125 -95.83984375 185.9028125 -95.83984375 184.8828125 C-96.53207031 184.65980469 -97.22429687 184.43679687 -97.9375 184.20703125 C-101.53739528 182.56454875 -104.31321073 180.26253268 -107.27734375 177.6953125 C-107.85210449 177.20571045 -108.42686523 176.7161084 -109.01904297 176.21166992 C-112.09372549 173.54965828 -114.89105247 170.85906602 -117.46484375 167.6953125 C-118.24859375 166.7671875 -119.03234375 165.8390625 -119.83984375 164.8828125 C-120.82984375 164.8828125 -121.81984375 164.8828125 -122.83984375 164.8828125 C-122.90171875 164.1815625 -122.96359375 163.4803125 -123.02734375 162.7578125 C-123.92054571 159.59725173 -125.40470778 157.98384622 -127.50952148 155.52929688 C-137.22932015 143.49950752 -143.33717164 125.21431182 -143.83984375 109.8828125 C-144.49984375 109.8828125 -145.15984375 109.8828125 -145.83984375 109.8828125 C-146.02468663 91.02883838 -146.02468663 91.02883838 -144.86328125 83.828125 C-144.83334114 81.34309586 -145.51575841 79.96351803 -146.83984375 77.8828125 C-147.49984375 77.5528125 -148.15984375 77.2228125 -148.83984375 76.8828125 C-147.90914062 76.40070313 -146.9784375 75.91859375 -146.01953125 75.421875 C-141.83868406 72.63218566 -141.11367583 68.94756535 -139.96484375 64.2578125 C-139.7534375 63.48179688 -139.54203125 62.70578125 -139.32421875 61.90625 C-138.22329512 57.94962497 -138.22329512 57.94962497 -137.83984375 53.8828125 C-137.17984375 53.8828125 -136.51984375 53.8828125 -135.83984375 53.8828125 C-135.63359375 53.0990625 -135.42734375 52.3153125 -135.21484375 51.5078125 C-132.17319749 43.48892692 -127.2187802 36.84471659 -121.7890625 30.27734375 C-119.50411518 27.47038442 -117.41636381 24.55094878 -115.359375 21.57421875 C-113.43564676 19.43289657 -111.33535887 18.3098666 -108.83984375 16.8828125 C-107.01420272 15.58865357 -105.20204666 14.27530571 -103.40234375 12.9453125 C-102.43296875 12.23761719 -101.46359375 11.52992187 -100.46484375 10.80078125 C-99.59859375 10.16785156 -98.73234375 9.53492187 -97.83984375 8.8828125 C-68.14519297 -12.59842423 -33.14044783 -9.6420835 0 0 Z " fill="#544944" transform="translate(153.83984375,19.1171875)"/>
<path d="M0 0 C1.13480527 3.60993172 1.10015767 6.9842327 1.0625 10.75 C1.05347656 11.92046875 1.04445312 13.0909375 1.03515625 14.296875 C1.02355469 15.18890625 1.01195312 16.0809375 1 17 C1.66 17.33 2.32 17.66 3 18 C2.34 18 1.68 18 1 18 C1.66 22.62 2.32 27.24 3 32 C3.99 32 4.98 32 6 32 C5.01 34.475 5.01 34.475 4 37 C-1.33290516 31.66709484 -1.17004756 20.97667786 -1.25537109 13.72851562 C-1.23307477 3.69922431 -1.23307477 3.69922431 0 0 Z " fill="#544944" transform="translate(40,99)"/>
<path d="M0 0 C0.33 0 0.66 0 1 0 C1.01981934 0.61294922 1.03963867 1.22589844 1.06005859 1.85742188 C1.48263528 14.34327893 2.15177402 26.6366243 4 39 C1.89172945 35.83759418 1.66182535 34.49342531 1.375 30.8125 C1.30023438 29.91144531 1.22546875 29.01039063 1.1484375 28.08203125 C1.09945313 27.39496094 1.05046875 26.70789063 1 26 C0.34 26 -0.32 26 -1 26 C-1.02724423 23.16660035 -1.04695589 20.33346883 -1.0625 17.5 C-1.07087891 16.70851563 -1.07925781 15.91703125 -1.08789062 15.1015625 C-1.10891185 9.97238283 -0.73937287 5.07663894 0 0 Z " fill="#544944" transform="translate(9,103)"/>
<path d="M0 0 C2.44653549 2.44653549 2.2562983 3.11537652 2.265625 6.47265625 C2.26820313 7.37306641 2.27078125 8.27347656 2.2734375 9.20117188 C2.26570312 10.14541016 2.25796875 11.08964844 2.25 12.0625 C2.25773438 12.97966797 2.26546875 13.89683594 2.2734375 14.84179688 C2.25639267 20.85436207 1.50181027 26.17750542 0 32 C-0.33 32 -0.66 32 -1 32 C-1.02685938 29.85423363 -1.04633088 27.70837355 -1.0625 25.5625 C-1.07410156 24.36753906 -1.08570313 23.17257813 -1.09765625 21.94140625 C-1 19 -1 19 0 18 C0.08631874 16.65732587 0.10706473 15.31025678 0.09765625 13.96484375 C0.09443359 13.15595703 0.09121094 12.34707031 0.08789062 11.51367188 C0.07532227 10.2384668 0.07532227 10.2384668 0.0625 8.9375 C0.05573242 7.65649414 0.05573242 7.65649414 0.04882812 6.34960938 C0.03700373 4.23304337 0.01906769 2.11651315 0 0 Z " fill="#544944" transform="translate(183,98)"/>
<path d="M0 0 C0.33 0.99 0.66 1.98 1 3 C3.64 3.33 6.28 3.66 9 4 C8.34 5.32 7.68 6.64 7 8 C4.03 7.67 1.06 7.34 -2 7 C-1.125 2.25 -1.125 2.25 0 0 Z " fill="#544944" transform="translate(207,154)"/>
<path d="M0 0 C-0.33 3.63 -0.66 7.26 -1 11 C-2.37562854 9.71034824 -3.70766393 8.37310707 -5 7 C-5 6.34 -5 5.68 -5 5 C-5.66 4.67 -6.32 4.34 -7 4 C-1.125 0 -1.125 0 0 0 Z " fill="#544944" transform="translate(12,92)"/>
<path d="M0 0 C-9.41002278 3.44419134 -9.41002278 3.44419134 -14 3 C-14 2.01 -14 1.02 -14 0 C-12.906875 0.020625 -11.81375 0.04125 -10.6875 0.0625 C-0.3625 -0.1125 -0.3625 -0.1125 0 0 Z " fill="#544944" transform="translate(154,163)"/>
<path d="M0 0 C0.66 0 1.32 0 2 0 C2 3.63 2 7.26 2 11 C1.67 11 1.34 11 1 11 C0.67 7.37 0.34 3.74 0 0 Z " fill="#544944" transform="translate(223,194)"/>
<path d="M0 0 C1.98 0.99 1.98 0.99 4 2 C3.67 2.66 3.34 3.32 3 4 C2.01 4 1.02 4 0 4 C0 2.68 0 1.36 0 0 Z " fill="#FFFFFF" transform="translate(159,115)"/>
<path d="M0 0 C0.33 0 0.66 0 1 0 C1 2.31 1 4.62 1 7 C0.34 6.34 -0.32 5.68 -1 5 C-0.625 2.375 -0.625 2.375 0 0 Z " fill="#544944" transform="translate(224,103)"/>
<path d="M0 0 C0.66 1.32 1.32 2.64 2 4 C0.68 3.67 -0.64 3.34 -2 3 C-1.34 2.01 -0.68 1.02 0 0 Z " fill="#544944" transform="translate(35,221)"/>
<path d="M0 0 C0.99 0.99 1.98 1.98 3 3 C1.68 2.67 0.36 2.34 -1 2 C-0.67 1.34 -0.34 0.68 0 0 Z " fill="#544944" transform="translate(54,115)"/>
<path d="M0 0 C0.66 0.66 1.32 1.32 2 2 C0.35 2.33 -1.3 2.66 -3 3 C-3 2.34 -3 1.68 -3 1 C-2.01 0.67 -1.02 0.34 0 0 Z " fill="#544944" transform="translate(3,43)"/>
<path d="M0 0 C0.99 0.495 0.99 0.495 2 1 C1.34 2.32 0.68 3.64 0 5 C0 3.35 0 1.7 0 0 Z " fill="#544944" transform="translate(0,132)"/>
<path d="M0 0 C1.32 0.33 2.64 0.66 4 1 C3.67 1.66 3.34 2.32 3 3 C2.01 2.01 1.02 1.02 0 0 Z " fill="#544944" transform="translate(6,45)"/>
<path d="M0 0 C1.32 0.33 2.64 0.66 4 1 C2.68 1 1.36 1 0 1 C0 0.67 0 0.34 0 0 Z " fill="#544944" transform="translate(181,19)"/>
<path d="M0 0 C0.66 0 1.32 0 2 0 C2 0.66 2 1.32 2 2 C1.01 1.67 0.02 1.34 -1 1 C-0.67 0.67 -0.34 0.34 0 0 Z " fill="#544944" transform="translate(55,93)"/>
<path d="M0 0 C0.99 0.33 1.98 0.66 3 1 C2.01 1.33 1.02 1.66 0 2 C0 1.34 0 0.68 0 0 Z " fill="#544944" transform="translate(213,32)"/>
<path d="M0 0 C0.66 0.66 1.32 1.32 2 2 C1.01 1.67 0.02 1.34 -1 1 C-0.67 0.67 -0.34 0.34 0 0 Z " fill="#544944" transform="translate(27,211)"/>
<path d="M0 0 C0.99 0.33 1.98 0.66 3 1 C2.01 1 1.02 1 0 1 C0 0.67 0 0.34 0 0 Z " fill="#544944" transform="translate(131,183)"/>
<path d="M0 0 C0.66 0 1.32 0 2 0 C2 0.66 2 1.32 2 2 C1.34 2 0.68 2 0 2 C0 1.34 0 0.68 0 0 Z " fill="#544944" transform="translate(106,95)"/>
<path d="M0 0 C3 1 3 1 3 1 Z " fill="#544944" transform="translate(59,96)"/>
<path d="M0 0 C3 1 3 1 3 1 Z " fill="#544944" transform="translate(145,92)"/>
<path d="M0 0 C0.33 0.66 0.66 1.32 1 2 C0.34 1.67 -0.32 1.34 -1 1 C-0.67 0.67 -0.34 0.34 0 0 Z " fill="#544944" transform="translate(224,72)"/>
<path d="" fill="#544944" transform="translate(0,0)"/>
<path d="M0 0 C2 1 2 1 2 1 Z " fill="#544944" transform="translate(57,118)"/>
<path d="M0 0 C2 1 2 1 2 1 Z " fill="#544944" transform="translate(173,116)"/>
<path d="" fill="#544944" transform="translate(0,0)"/>
<path d="" fill="#544944" transform="translate(0,0)"/>
<path d="M0 0 C2 1 2 1 2 1 Z " fill="#544944" transform="translate(68,94)"/>
<path d="M0 0 C2 1 2 1 2 1 Z " fill="#544944" transform="translate(56,59)"/>
<path d="M0 0 C2 1 2 1 2 1 Z " fill="#544944" transform="translate(174,20)"/>
<path d="M0 0 C2 1 2 1 2 1 Z " fill="#544944" transform="translate(96,0)"/>
<path d="" fill="#544944" transform="translate(0,0)"/>
<path d="" fill="#544944" transform="translate(0,0)"/>
<path d="" fill="#544944" transform="translate(0,0)"/>
<path d="" fill="#544944" transform="translate(0,0)"/>
<path d="" fill="#544944" transform="translate(0,0)"/>
<path d="" fill="#544944" transform="translate(0,0)"/>
<path d="" fill="#544944" transform="translate(0,0)"/>
<path d="" fill="#544944" transform="translate(0,0)"/>
<path d="" fill="#544944" transform="translate(0,0)"/>
<path d="" fill="#544944" transform="translate(0,0)"/>
<path d="" fill="#544944" transform="translate(0,0)"/>
<path d="" fill="#544944" transform="translate(0,0)"/>
<path d="" fill="#544944" transform="translate(0,0)"/>
<path d="" fill="#544944" transform="translate(0,0)"/>
<path d="" fill="#544944" transform="translate(0,0)"/>
<path d="" fill="#544944" transform="translate(0,0)"/>
<path d="" fill="#544944" transform="translate(0,0)"/>
<path d="" fill="#544944" transform="translate(0,0)"/>
<path d="" fill="#544944" transform="translate(0,0)"/>
<path d="" fill="#544944" transform="translate(0,0)"/>
</svg>
