<?xml version="1.0" encoding="UTF-8"?>
<svg version="1.1" xmlns="http://www.w3.org/2000/svg" width="200" height="200">
<path d="M0 0 C1.43520996 0.00858032 1.43520996 0.00858032 2.89941406 0.01733398 C15.70723044 0.33656204 26.44792836 4.10602614 36.3125 12.5 C37.15425781 13.19609375 37.99601562 13.8921875 38.86328125 14.609375 C48.49376181 23.31918747 53.21527293 34.11109174 56.3125 46.5 C56.3125 52.77 56.3125 59.04 56.3125 65.5 C19.3525 65.5 -17.6075 65.5 -55.6875 65.5 C-55.6875 47.0034264 -54.31352309 31.16532311 -41.51171875 17.1875 C-29.6747734 6.23769189 -16.18787162 -0.11365463 0 0 Z " fill="#544944" transform="translate(99.6875,104.5)"/>
<path d="M0 0 C6.19891927 5.28504663 9.93264074 11.89914079 10.7890625 20.04296875 C11.25914918 28.18953238 10.34721557 35.43611976 5.25 42.0625 C-0.65377437 48.60603699 -6.24214121 52.54695398 -15.046875 53.37109375 C-24.87221101 53.71898655 -31.31161995 51.98245309 -39 45.9375 C-45.02051199 40.21801361 -47.89666726 34.48353822 -48.28833008 26.10668945 C-48.39067961 17.18573852 -46.54763284 11.10352521 -41.5 3.8125 C-29.99039447 -7.69710553 -13.52963535 -9.32294201 0 0 Z " fill="#544944" transform="translate(118.75,45.9375)"/>
</svg>
