<?xml version="1.0" encoding="UTF-8"?>
<svg version="1.1" xmlns="http://www.w3.org/2000/svg" width="200" height="200">
<path d="M0 0 C3.32160234 3.16844489 4.12298658 5.90289611 4.3515625 10.42578125 C4.29172462 15.01335199 3.35369014 19.23726845 2.23046875 23.66796875 C2.04806641 24.4259375 1.86566406 25.18390625 1.67773438 25.96484375 C0.33215375 31.46459876 0.33215375 31.46459876 -0.83203125 33.79296875 C0.99328125 33.63828125 0.99328125 33.63828125 2.85546875 33.48046875 C6.38026358 33.48671839 7.07994193 33.72928977 10.10546875 35.91796875 C12.42055213 39.14505468 13.16796875 40.83057029 13.16796875 44.79296875 C11.63923004 48.76768938 10.74016378 50.4115054 7.16796875 52.79296875 C4.86672974 53.06039429 4.86672974 53.06039429 2.13330078 53.08349609 C0.59622971 53.10263565 0.59622971 53.10263565 -0.97189331 53.12216187 C-2.6312944 53.12550034 -2.6312944 53.12550034 -4.32421875 53.12890625 C-5.46230988 53.13556305 -6.600401 53.14221985 -7.77297974 53.14907837 C-10.18213279 53.15921014 -12.59131394 53.16389523 -15.00048828 53.16357422 C-18.68569248 53.16794345 -22.3696956 53.20424869 -26.0546875 53.2421875 C-28.39452715 53.24805628 -30.7343725 53.25202526 -33.07421875 53.25390625 C-34.17643768 53.26827728 -35.27865662 53.28264832 -36.41427612 53.29745483 C-44.06554477 53.25179101 -44.06554477 53.25179101 -48.01611328 50.88696289 C-50.44055896 48.09125563 -50.7320566 46.34675733 -50.97265625 42.7578125 C-50.76028563 39.79052295 -49.70012068 38.06136305 -47.83203125 35.79296875 C-44.18785385 33.36351715 -42.11961853 33.631173 -37.83203125 33.79296875 C-38.12078125 32.95636719 -38.40953125 32.11976562 -38.70703125 31.2578125 C-41.50792804 22.47583404 -43.33283112 14.05157971 -41.83203125 4.79296875 C-38.3489729 -0.61100376 -34.22414148 -2.35900369 -28.08203125 -3.89453125 C-18.9270348 -4.77481937 -8.01740612 -5.28225691 0 0 Z " fill="#544944" transform="translate(66.83203125,52.20703125)"/>
<path d="M0 0 C1.10472153 -0.01583633 2.20944305 -0.03167267 3.34764099 -0.04798889 C4.53624222 -0.04302902 5.72484344 -0.03806915 6.94946289 -0.03295898 C8.78765343 -0.04225685 8.78765343 -0.04225685 10.66297913 -0.05174255 C13.254478 -0.05884634 15.84602245 -0.05565711 18.4375 -0.04296875 C22.40393078 -0.02911626 26.36799752 -0.06315548 30.33422852 -0.10131836 C32.85180722 -0.10226965 35.36938888 -0.10041022 37.88696289 -0.09545898 C39.07353989 -0.10871719 40.26011688 -0.1219754 41.48265076 -0.13563538 C50.63808577 -0.03206212 50.63808577 -0.03206212 53.74145508 2.93286133 C56.35660682 6.83434541 55.87290931 8.95162328 55.48461914 13.53344727 C56.35086914 13.71907227 57.21711914 13.90469727 58.10961914 14.09594727 C62.54862976 15.98663697 65.07369785 18.35556412 67.48461914 22.53344727 C68.32714951 25.54881913 68.79029671 28.40662051 68.48461914 31.53344727 C65.9192373 34.09882911 64.2337285 33.77335534 60.73686218 33.793396 C59.93368057 33.78777649 59.13049896 33.78215698 58.30297852 33.77636719 C57.45733841 33.77826553 56.6116983 33.78016388 55.74043274 33.78211975 C52.93631817 33.785834 50.13246081 33.77511409 47.32836914 33.76391602 C45.38545767 33.76272446 43.44254561 33.762271 41.49963379 33.76252747 C37.42411706 33.76096147 33.34868803 33.75266303 29.27319336 33.73925781 C24.04058214 33.72226782 18.80806739 33.71844341 13.57543182 33.719203 C9.56238885 33.71893148 5.5493671 33.71345324 1.53633118 33.70620155 C-0.39344624 33.70301207 -2.32322607 33.70104683 -4.25300598 33.70030785 C-6.94662602 33.69814724 -9.64014236 33.68940905 -12.33374023 33.67871094 C-13.13692184 33.67916412 -13.94010345 33.67961731 -14.7676239 33.68008423 C-20.28642697 33.64792421 -20.28642697 33.64792421 -22.51538086 32.53344727 C-22.88513042 27.91157775 -22.96094113 24.47803504 -20.95288086 20.22094727 C-18.72574604 17.76538836 -17.73055656 17.04912964 -14.89038086 15.72094727 C-12.47817246 14.50716087 -11.68573485 14.00920271 -10.76147461 11.42797852 C-10.30055787 9.0609431 -10.30055787 9.0609431 -10.09741211 6.75219727 C-8.70143736 1.4306291 -5.11662317 0.03266737 0 0 Z " fill="#544944" transform="translate(25.515380859375,161.466552734375)"/>
<path d="M0 0 C13.86 0 27.72 0 42 0 C41.9071875 6.1565625 41.9071875 6.1565625 41.8125 12.4375 C41.74005273 22.20492345 42.25541791 31.39668867 44.34375 40.9375 C45 44 45 44 45 47 C29.16 47 13.32 47 -3 47 C-4.4739655 44.052069 -3.4312587 42.23205828 -2.625 39.0625 C0.27200944 26.19131193 0 13.14871582 0 0 Z " fill="#544944" transform="translate(27,110)"/>
<path d="M0 0 C0.74197632 0.00402832 1.48395264 0.00805664 2.24841309 0.01220703 C5.00310217 0.03303431 7.75743696 0.0888799 10.51171875 0.140625 C16.67859375 0.223125 22.84546875 0.305625 29.19921875 0.390625 C29.19921875 14.580625 29.19921875 28.770625 29.19921875 43.390625 C20.50578125 43.4834375 20.50578125 43.4834375 11.63671875 43.578125 C9.82099365 43.60543701 8.00526855 43.63274902 6.13452148 43.66088867 C4.67562523 43.66966054 3.21672156 43.67730282 1.7578125 43.68359375 C0.64557312 43.7066156 0.64557312 43.7066156 -0.48913574 43.73010254 C-5.65174063 43.73266632 -9.17680188 42.70128212 -13.80078125 40.390625 C-13.92449521 35.33700479 -14.01517171 30.28426798 -14.07543945 25.22949219 C-14.10056492 23.51058599 -14.13467172 21.79178644 -14.17797852 20.07324219 C-14.23872154 17.60064386 -14.26700887 15.12945894 -14.2890625 12.65625 C-14.31486893 11.88943909 -14.34067535 11.12262817 -14.36726379 10.33258057 C-14.3691608 6.71369978 -14.09626313 4.76245427 -11.8203125 1.8984375 C-7.75035327 -0.13390954 -4.48691422 -0.11550968 0 0 Z " fill="#544944" transform="translate(73.80078125,4.609375)"/>
<path d="M0 0 C13.86 0 27.72 0 42 0 C42 14.19 42 28.38 42 43 C28.14 43 14.28 43 0 43 C0 28.81 0 14.62 0 0 Z " fill="#544944" transform="translate(108,100)"/>
<path d="M0 0 C13.86 0 27.72 0 42 0 C42 14.19 42 28.38 42 43 C28.14 43 14.28 43 0 43 C0 28.81 0 14.62 0 0 Z " fill="#544944" transform="translate(108,5)"/>
<path d="M0 0 C13.86 0 27.72 0 42 0 C42.061875 6.538125 42.12375 13.07625 42.1875 19.8125 C42.22846802 22.90395386 42.22846802 22.90395386 42.27026367 26.05786133 C42.27902527 27.690912 42.28666998 29.32396922 42.29296875 30.95703125 C42.30831665 31.80535522 42.32366455 32.6536792 42.33947754 33.52770996 C42.33984009 34.33945679 42.34020264 35.15120361 42.34057617 35.98754883 C42.34723801 36.6914827 42.35389984 37.39541656 42.36076355 38.12068176 C41.87940925 40.62819097 41.04042045 41.49609121 39 43 C35.98893688 43.26156255 33.18354887 43.34880656 30.17578125 43.29296875 C29.41213257 43.28994751 28.64848389 43.28692627 27.86169434 43.28381348 C25.01182521 43.26812923 22.1621489 43.22624508 19.3125 43.1875 C9.7528125 43.0946875 9.7528125 43.0946875 0 43 C0 28.81 0 14.62 0 0 Z " fill="#544944" transform="translate(155,100)"/>
<path d="M0 0 C6.1875 -0.061875 12.375 -0.12375 18.75 -0.1875 C20.69745117 -0.21481201 22.64490234 -0.24212402 24.65136719 -0.27026367 C26.19986349 -0.27902785 27.7483667 -0.28667195 29.296875 -0.29296875 C30.09689941 -0.30831665 30.89692383 -0.32366455 31.72119141 -0.33947754 C34.86879604 -0.3409576 37.562061 -0.16566995 40.51953125 0.953125 C42.98466887 4.36138915 42.48929228 7.95274367 42.390625 12.04296875 C42.38659668 12.82627563 42.38256836 13.60958252 42.37841797 14.41662598 C42.35750194 17.34048919 42.30165606 20.2640183 42.25 23.1875 C42.1675 29.725625 42.085 36.26375 42 43 C28.14 43 14.28 43 0 43 C0 28.81 0 14.62 0 0 Z " fill="#544944" transform="translate(155,5)"/>
<path d="M0 0 C13.86 0 27.72 0 42 0 C42 13.86 42 27.72 42 42 C28.14 42 14.28 42 0 42 C0 28.14 0 14.28 0 0 Z " fill="#544944" transform="translate(155,53)"/>
<path d="M0 0 C13.86 0 27.72 0 42 0 C42 13.86 42 27.72 42 42 C28.14 42 14.28 42 0 42 C0 28.14 0 14.28 0 0 Z " fill="#544944" transform="translate(108,53)"/>
<path d="M0 0 C6.27 0 12.54 0 19 0 C19 14.19 19 28.38 19 43 C9.43 43 -0.14 43 -10 43 C-11.12696363 35.11125457 -11.12696363 35.11125457 -11.1328125 31.1875 C-11.13410156 30.33929688 -11.13539062 29.49109375 -11.13671875 28.6171875 C-11.13285156 27.75351563 -11.12898438 26.88984375 -11.125 26 C-11.12886719 25.13632813 -11.13273437 24.27265625 -11.13671875 23.3828125 C-11.12930165 18.50236194 -11.07264876 13.77360064 -10 9 C-7.1875 7.4375 -7.1875 7.4375 -4 6 C-2.68 4.02 -1.36 2.04 0 0 Z " fill="#544944" transform="translate(84,100)"/>
<path d="M0 0 C9.57 0 19.14 0 29 0 C29 13.86 29 27.72 29 42 C23.06 42 17.12 42 11 42 C10.319375 40.4325 9.63875 38.865 8.9375 37.25 C6.40467408 32.1115658 4.20297655 30.24442126 -1 28 C-0.855625 27.16597656 -0.71125 26.33195312 -0.5625 25.47265625 C0.91795388 16.4974046 1.49574152 8.9744491 0 0 Z " fill="#544944" transform="translate(74,53)"/>
</svg>
