<?xml version="1.0" standalone="no"?>
<!DOCTYPE svg PUBLIC "-//W3C//DTD SVG 20010904//EN"
 "http://www.w3.org/TR/2001/REC-SVG-20010904/DTD/svg10.dtd">
<svg version="1.0" xmlns="http://www.w3.org/2000/svg"
 width="200.000000pt" height="200.000000pt" viewBox="0 0 200.000000 200.000000"
 preserveAspectRatio="xMidYMid meet">

<g transform="translate(0.000000,200.000000) scale(0.100000,-0.100000)"
fill="#000000" stroke="none">
<path d="M190 1156 l0 -614 43 -7 c247 -37 471 -119 657 -239 39 -25 73 -46
75 -46 3 0 5 272 5 605 l0 605 -82 54 c-205 133 -402 208 -660 251 l-38 6 0
-615z m261 168 c88 -16 270 -73 329 -102 38 -18 53 -58 26 -68 -8 -3 -54 10
-103 30 -95 37 -210 69 -311 85 -76 12 -96 25 -81 52 12 23 33 24 140 3z m85
-214 c61 -15 148 -43 195 -61 67 -27 85 -39 87 -57 4 -29 -22 -39 -62 -23 -98
40 -234 82 -312 96 -129 23 -131 23 -137 40 -4 8 1 21 9 29 19 19 67 14 220
-24z m11 -196 c123 -32 253 -84 267 -106 8 -13 7 -21 -4 -32 -13 -13 -26 -11
-110 21 -99 37 -250 77 -333 88 -49 7 -64 21 -53 51 5 14 16 16 71 10 36 -4
109 -18 162 -32z"/>
<path d="M1700 1753 c-185 -32 -410 -123 -584 -236 l-86 -57 0 -605 c0 -333 2
-605 5 -605 2 0 36 21 75 46 186 120 410 202 658 239 l42 7 0 614 c0 485 -3
614 -12 613 -7 0 -51 -8 -98 -16z m-15 -443 c0 -21 -6 -26 -35 -32 -156 -31
-276 -63 -352 -94 -49 -19 -96 -33 -104 -30 -22 8 -17 44 9 60 67 43 373 127
447 123 30 -2 35 -5 35 -27z m-11 -166 c9 -3 16 -17 16 -30 0 -26 -1 -26 -110
-44 -92 -16 -203 -47 -287 -82 -83 -34 -108 -34 -108 2 0 21 10 29 66 52 104
43 285 92 401 107 3 1 13 -2 22 -5z m11 -224 c0 -22 -6 -26 -50 -34 -101 -17
-243 -55 -334 -89 -52 -19 -100 -33 -107 -30 -25 9 -15 43 17 62 76 46 355
122 434 118 35 -2 40 -5 40 -27z"/>
<path d="M60 857 l0 -624 103 24 c183 41 427 47 602 14 45 -8 48 -8 30 6 -39
28 -186 94 -287 128 -93 30 -176 49 -323 72 l-50 8 -3 498 -2 497 -35 0 -35 0
0 -623z"/>
<path d="M1868 983 l-3 -498 -50 -8 c-138 -22 -229 -42 -315 -69 -96 -31 -258
-103 -295 -131 -18 -14 -16 -15 30 -6 175 33 419 27 603 -14 l102 -24 0 624 0
623 -35 0 -35 0 -2 -497z"/>
</g>
</svg>
