<?xml version="1.0" standalone="no"?>
<!DOCTYPE svg PUBLIC "-//W3C//DTD SVG 20010904//EN"
 "http://www.w3.org/TR/2001/REC-SVG-20010904/DTD/svg10.dtd">
<svg version="1.0" xmlns="http://www.w3.org/2000/svg"
 width="126.000000pt" height="126.000000pt" viewBox="0 0 126.000000 126.000000"
 preserveAspectRatio="xMidYMid meet">

<g transform="translate(0.000000,126.000000) scale(0.100000,-0.100000)"
fill="#544944" stroke="none">
<path d="M63 1240 c-65 -39 -63 -24 -63 -612 0 -511 1 -534 20 -565 39 -65 24
-63 610 -63 586 0 571 -2 610 63 19 31 20 54 20 565 0 588 2 573 -63 612 -31
19 -54 20 -567 20 -513 0 -536 -1 -567 -20z m272 -165 c84 -40 78 -164 -10
-201 -124 -51 -215 127 -101 197 38 23 68 24 111 4z m586 -320 c54 -19 105
-67 130 -120 16 -35 19 -67 19 -242 l0 -203 -95 0 -95 0 0 181 c0 104 -4 188
-10 200 -16 28 -67 51 -99 44 -16 -3 -39 -17 -52 -31 -23 -25 -24 -32 -27
-210 l-3 -184 -95 0 -94 0 2 283 3 282 93 3 92 3 0 -36 0 -36 33 25 c73 56
125 66 198 41z m-543 -282 l2 -283 -95 0 -95 0 0 285 0 286 93 -3 92 -3 3
-282z"/>
</g>
</svg>
