<?xml version="1.0" standalone="no"?>
<!DOCTYPE svg PUBLIC "-//W3C//DTD SVG 20010904//EN"
 "http://www.w3.org/TR/2001/REC-SVG-20010904/DTD/svg10.dtd">
<svg version="1.0" xmlns="http://www.w3.org/2000/svg"
 width="200.000000pt" height="200.000000pt" viewBox="0 0 200.000000 200.000000"
 preserveAspectRatio="xMidYMid meet">

<g transform="translate(0.000000,200.000000) scale(0.100000,-0.100000)"
fill="#000000" stroke="none">
<path d="M863 1640 c-135 -48 -231 -154 -268 -297 -19 -72 -19 -124 0 -196 15
-59 390 -797 405 -797 9 0 382 720 401 775 21 63 16 199 -10 268 -44 112 -143
208 -255 247 -77 26 -200 26 -273 0z m196 -265 c16 -8 41 -29 56 -47 24 -29
27 -38 23 -90 -3 -47 -10 -64 -33 -88 -39 -41 -93 -57 -143 -42 -62 19 -95 62
-100 129 -3 49 0 63 19 87 48 62 119 82 178 51z"/>
</g>
</svg>
