<?xml version="1.0" encoding="UTF-8"?>
<svg version="1.1" xmlns="http://www.w3.org/2000/svg" width="512" height="512">
<path d="M0 0 C1.46021611 0.88003008 2.90215377 1.79208167 4.3125 2.75 C5.67375 3.5853125 5.67375 3.5853125 7.0625 4.4375 C13.0022889 10.54228304 16.35090502 17.49003849 16.62890625 25.94921875 C16.69174805 27.76196289 16.69174805 27.76196289 16.75585938 29.61132812 C16.79517578 30.87396484 16.83449219 32.13660156 16.875 33.4375 C16.91818359 34.71173828 16.96136719 35.98597656 17.00585938 37.29882812 C17.1120486 40.44910852 17.21409533 43.59946839 17.3125 46.75 C17.69994385 46.06800537 18.0873877 45.38601074 18.48657227 44.68334961 C19.00791748 43.78624268 19.5292627 42.88913574 20.06640625 41.96484375 C20.5776001 41.07659912 21.08879395 40.18835449 21.61547852 39.27319336 C25.64944363 33.27534708 31.65475183 30.19442428 38.3125 27.75 C47.97009612 26.56864268 56.12663915 27.19009847 64.3125 32.75 C65.22 33.306875 66.1275 33.86375 67.0625 34.4375 C73.0022889 40.54228304 76.35090502 47.49003849 76.62890625 55.94921875 C76.69174805 57.76196289 76.69174805 57.76196289 76.75585938 59.61132812 C76.79517578 60.87396484 76.83449219 62.13660156 76.875 63.4375 C76.91818359 64.71173828 76.96136719 65.98597656 77.00585938 67.29882812 C77.1120486 70.44910852 77.21409533 73.59946839 77.3125 76.75 C77.69994385 76.06800537 78.0873877 75.38601074 78.48657227 74.68334961 C79.00791748 73.78624268 79.5292627 72.88913574 80.06640625 71.96484375 C80.5776001 71.07659912 81.08879395 70.18835449 81.61547852 69.27319336 C85.64944363 63.27534708 91.65475183 60.19442428 98.3125 57.75 C107.97009612 56.56864268 116.12663915 57.19009847 124.3125 62.75 C125.22 63.306875 126.1275 63.86375 127.0625 64.4375 C133.00516586 70.54523992 136.42762868 77.46507963 136.45967102 85.94996643 C136.47040398 87.89866638 136.47040398 87.89866638 136.48135376 89.88673401 C136.48419419 91.33016944 136.4869059 92.77360513 136.48950195 94.21704102 C136.49576792 95.73505814 136.50241484 97.25307373 136.50941467 98.77108765 C136.53046647 103.76534964 136.54082777 108.75961193 136.55078125 113.75390625 C136.55483036 115.47804213 136.55894733 117.20217785 136.56313133 118.9263134 C136.58219656 127.0389605 136.59641685 135.15159849 136.6047433 143.26426369 C136.61447859 152.59387503 136.64069471 161.92324675 136.68124419 171.25277382 C136.71157193 178.48193247 136.7262284 185.71102319 136.72952431 192.94024414 C136.73185868 197.24786919 136.74060376 201.55523875 136.76598549 205.86279488 C136.94325691 237.61309125 133.68998921 265.36704439 112.3125 290.75 C111.66925781 291.53890625 111.02601563 292.3278125 110.36328125 293.140625 C101.68812357 303.33914678 90.63645323 312.34115386 78.3125 317.75 C77.6525 317.75 76.9925 317.75 76.3125 317.75 C76.3125 331.28 76.3125 344.81 76.3125 358.75 C78.9525 358.75 81.5925 358.75 84.3125 358.75 C94.5854837 362.25574549 100.34812275 368.3396773 105.3125 377.75 C106.96390946 382.70422837 106.5767443 387.84769665 106.60766602 393.03686523 C106.62485018 395.04499192 106.66875424 397.05283174 106.71289062 399.06054688 C106.72126953 400.33607422 106.72964844 401.61160156 106.73828125 402.92578125 C106.76015503 404.67242065 106.76015503 404.67242065 106.7824707 406.4543457 C106.08916169 411.31615262 104.06819704 414.35937866 100.23143673 417.39833164 C96.19836491 419.26592113 92.71769068 419.16892783 88.32362366 419.13768005 C87.4170363 419.14306559 86.51044895 419.14845113 85.57638925 419.15399987 C82.53784873 419.16831006 79.49974198 419.1611681 76.46118164 419.15405273 C74.28301136 419.15975469 72.10484408 419.16671826 69.92668152 419.17485046 C64.00936511 419.1928161 58.09219671 419.19160707 52.17486119 419.18590808 C47.23681772 419.1828212 42.29880289 419.18890309 37.36076349 419.19494683 C25.71257143 419.20900159 14.06445269 419.20742278 2.41625977 419.19604492 C-9.60519146 419.18456203 -21.62638539 419.19864017 -33.64781088 419.2254414 C-43.96555814 419.24758407 -54.28323532 419.25423902 -64.60100466 419.24836498 C-70.76487446 419.24499088 -76.92860125 419.24744072 -83.0924511 419.26461601 C-88.8881489 419.28006016 -94.68351576 419.27615747 -100.47920036 419.25731087 C-102.60687191 419.25361803 -104.73456783 419.2567536 -106.86221695 419.26719666 C-109.76574155 419.28036039 -112.66816313 419.2688997 -115.57164001 419.25120544 C-116.41454289 419.26081045 -117.25744576 419.27041546 -118.12589115 419.28031152 C-123.44584603 419.21355987 -126.45752344 418.26482654 -130.6875 414.75 C-135.16900823 409.05623194 -134.20126994 402.4853362 -134.1875 395.5625 C-134.23003906 393.64727539 -134.23003906 393.64727539 -134.2734375 391.69335938 C-134.29035081 383.46926468 -133.1400482 377.69380279 -128.6875 370.75 C-128.130625 369.8425 -127.57375 368.935 -127 368 C-120.04656916 361.23449972 -113.2929894 358.75 -103.6875 358.75 C-103.6875 345.22 -103.6875 331.69 -103.6875 317.75 C-105.6675 317.09 -107.6475 316.43 -109.6875 315.75 C-134.04467864 302.56717917 -152.07541505 280.05622109 -159.97265625 253.61328125 C-162.05107522 246.20105607 -163.78327208 238.89190604 -163.86450195 231.16625977 C-163.87733719 230.09396622 -163.89017242 229.02167267 -163.90339661 227.91688538 C-163.91078354 226.76997726 -163.91817047 225.62306915 -163.92578125 224.44140625 C-163.933853 223.24249252 -163.94192474 222.0435788 -163.95024109 220.80833435 C-163.96405248 218.27075635 -163.97478776 215.73316 -163.98266602 213.19555664 C-163.99415033 210.62290939 -164.01454516 208.05028529 -164.04418945 205.4777832 C-164.36202316 177.86886488 -164.36202316 177.86886488 -159.6875 165.75 C-159.38996826 164.94715576 -159.09243652 164.14431152 -158.78588867 163.31713867 C-157.98601334 161.3368114 -157.10635517 159.45845852 -156.125 157.5625 C-155.78911865 156.90378906 -155.4532373 156.24507812 -155.10717773 155.56640625 C-151.35831214 148.59397229 -146.34674953 143.21297498 -140.6875 137.75 C-139.98109375 137.01265625 -139.2746875 136.2753125 -138.546875 135.515625 C-134.19921139 131.23433794 -129.44409325 128.28320258 -124.0625 125.5 C-123.46026611 125.18256836 -122.85803223 124.86513672 -122.23754883 124.53808594 C-108.14492704 117.65551651 -94.15297703 117.13609792 -78.79296875 117.18359375 C-76.70843735 117.17834607 -74.62390832 117.17206545 -72.53938293 117.16481018 C-68.1984224 117.15447055 -63.85779106 117.15887853 -59.5168457 117.17358398 C-53.97452082 117.1908304 -48.4332271 117.16716998 -42.89101696 117.13209438 C-38.59710419 117.11007298 -34.30343689 117.11157225 -30.00948524 117.1198597 C-27.96629003 117.12067529 -25.92307609 117.11388755 -23.87993431 117.09908867 C-3.67278696 116.97503648 -3.67278696 116.97503648 4.3125 122.75 C5.22 123.306875 6.1275 123.86375 7.0625 124.4375 C14.185239 131.75809286 16.62796377 139.53339098 16.70410156 149.48168945 C16.58622901 155.86046325 14.91138135 160.45135544 11.3125 165.75 C10.755625 166.6575 10.19875 167.565 9.625 168.5 C3.43621647 174.52151911 -3.50916169 177.84095549 -12.08666992 177.95532227 C-12.73084366 177.96522186 -13.3750174 177.97512146 -14.03871155 177.98532104 C-16.1650934 178.01687467 -18.29149758 178.04166905 -20.41796875 178.06640625 C-21.89342322 178.08698109 -23.36887186 178.1079777 -24.84431458 178.12937927 C-28.72569051 178.18454526 -32.60711915 178.23397862 -36.48858643 178.28222656 C-40.45012091 178.33248158 -44.41157894 178.38814676 -48.37304688 178.44335938 C-56.14446649 178.55087399 -63.91594972 178.65233377 -71.6875 178.75 C-70.67792236 179.07323242 -69.66834473 179.39646484 -68.62817383 179.72949219 C-67.27936796 180.16833812 -65.93065888 180.60748163 -64.58203125 181.046875 C-63.58822449 181.36374268 -63.58822449 181.36374268 -62.57434082 181.68701172 C-51.52357259 185.30843561 -42.87594582 191.60202426 -34.6875 199.75 C-33.91535156 200.48734375 -33.14320313 201.2246875 -32.34765625 201.984375 C-19.19002929 215.38941033 -13.88405378 233.68165961 -12.45751953 252.02905273 C-11.9802411 257.43626811 -10.73015137 260.95494274 -6.625 264.5625 C-1.39476634 266.67684978 4.01976634 266.67684978 9.25 264.5625 C12.88087726 261.37172907 14.19775383 258.7630743 14.74609375 253.921875 C14.76988851 252.44810817 14.76993151 250.97382414 14.75 249.5 C14.74242676 248.71004639 14.73485352 247.92009277 14.72705078 247.10620117 C14.37644111 234.24496822 10.59615932 222.56616423 5.58203125 210.82421875 C4.59616015 208.43689396 3.82852904 206.26797305 3.3125 203.75 C4.05113281 203.481875 4.78976562 203.21375 5.55078125 202.9375 C20.49634745 197.1643715 32.58439274 187.52780702 39.3125 172.75 C45.72756882 156.82069059 46.98706405 139.92698079 40.3125 123.75 C33.59859242 109.50590428 21.7428695 98.75730938 7.3125 92.75 C-5.06816716 88.48141519 -17.60273556 88.59814678 -30.54296875 88.6171875 C-32.1742606 88.61651201 -33.80555236 88.61553996 -35.43684387 88.61428833 C-38.84503138 88.61282078 -42.25319253 88.61493404 -45.66137695 88.61962891 C-49.98670415 88.6253028 -54.31196894 88.62205602 -58.63729382 88.61605644 C-62.00489249 88.61240572 -65.37247691 88.61361028 -68.74007607 88.61618423 C-70.33255331 88.61684229 -71.92503193 88.61606527 -73.51750755 88.61370468 C-83.62048392 88.60201887 -93.61421168 88.94090748 -103.6875 89.75 C-103.81202146 84.23657268 -103.90226997 78.72398153 -103.9621582 73.20947266 C-103.98714898 71.33758263 -104.02115373 69.46578865 -104.06469727 67.59423828 C-104.51263603 47.83223375 -104.51263603 47.83223375 -98.6875 39.75 C-98.130625 38.8425 -97.57375 37.935 -97 37 C-89.67940714 29.877261 -81.90410902 27.43453623 -71.95581055 27.35839844 C-65.57703675 27.47627099 -60.98614456 29.15111865 -55.6875 32.75 C-54.78 33.306875 -53.8725 33.86375 -52.9375 34.4375 C-50.6398963 36.79892602 -49.2143932 39.06293955 -47.546875 41.89453125 C-46.7420166 43.2554187 -46.7420166 43.2554187 -45.92089844 44.64379883 C-45.51387695 45.33884521 -45.10685547 46.0338916 -44.6875 46.75 C-44.68339111 45.98445801 -44.67928223 45.21891602 -44.67504883 44.43017578 C-44.6418494 40.9110364 -44.57117436 37.39356816 -44.5 33.875 C-44.49129883 32.06902344 -44.49129883 32.06902344 -44.48242188 30.2265625 C-44.28669137 22.22335978 -42.95164613 16.54317921 -38.6875 9.75 C-38.130625 8.8425 -37.57375 7.935 -37 7 C-27.41092884 -2.32990707 -12.34699777 -6.08024362 0 0 Z " fill="#544944" transform="translate(269.6875,93.25)"/>
<path d="M0 0 C4.6161758 2.18660959 6.72552241 4.49753289 9 9 C9.38768005 11.76280212 9.38768005 11.76280212 9.40405273 14.79663086 C9.41673691 15.93809067 9.42942108 17.07955048 9.44248962 18.25559998 C9.43955399 19.47965042 9.43661835 20.70370087 9.43359375 21.96484375 C9.4388356 23.23090958 9.44407745 24.4969754 9.44947815 25.80140686 C9.45589792 28.47721516 9.45600412 31.15216948 9.44604492 33.82788086 C9.43455978 37.24547373 9.45476522 40.66203262 9.48396206 44.07948971 C9.50679128 47.35377912 9.49985448 50.62799343 9.49609375 53.90234375 C9.51294472 55.73538307 9.51294472 55.73538307 9.53013611 57.60545349 C9.47772561 64.00029357 9.42643643 68.1989954 5 73 C-0.22259857 77.05630398 -5.65340142 76.77397544 -12 76 C-16.6161758 73.81339041 -18.72552241 71.50246711 -21 67 C-21.38768005 64.23719788 -21.38768005 64.23719788 -21.40405273 61.20336914 C-21.41673691 60.06190933 -21.42942108 58.92044952 -21.44248962 57.74440002 C-21.43955399 56.52034958 -21.43661835 55.29629913 -21.43359375 54.03515625 C-21.4388356 52.76909042 -21.44407745 51.5030246 -21.44947815 50.19859314 C-21.45589792 47.52278484 -21.45600412 44.84783052 -21.44604492 42.17211914 C-21.43455978 38.75452627 -21.45476522 35.33796738 -21.48396206 31.92051029 C-21.50679128 28.64622088 -21.49985448 25.37200657 -21.49609375 22.09765625 C-21.50732773 20.87563004 -21.51856171 19.65360382 -21.53013611 18.39454651 C-21.47772561 11.99970643 -21.42643643 7.8010046 -17 3 C-11.77740143 -1.05630398 -6.34659858 -0.77397544 0 0 Z " fill="#544944" transform="translate(277,0)"/>
<path d="M0 0 C4.62215198 2.18944041 6.71179348 4.50115328 9 9 C9.50390625 11.83203125 9.50390625 11.83203125 9.5625 14.8125 C9.60503906 15.78832031 9.64757812 16.76414062 9.69140625 17.76953125 C8.13683429 25.03298328 1.6008978 30.70147631 -3.53515625 35.80078125 C-4.13629745 36.40383591 -4.73743866 37.00689056 -5.35679626 37.6282196 C-6.61570024 38.88847265 -7.87708542 40.14625175 -9.14086914 41.40161133 C-11.06829196 43.31825958 -12.98472546 45.24543592 -14.90039062 47.17382812 C-16.13217129 48.40428807 -17.36457174 49.63412794 -18.59765625 50.86328125 C-19.16549332 51.43516678 -19.73333038 52.00705231 -20.31837463 52.5962677 C-25.12018314 57.34210346 -28.91723527 60.42846491 -35.9375 60.4375 C-41.0792385 60.29853409 -44.15476391 59.6480445 -48 56 C-50.5990635 52.33368821 -51.47428036 49.67493905 -51.5625 45.1875 C-51.60503906 44.21167969 -51.64757812 43.23585937 -51.69140625 42.23046875 C-50.13683429 34.96701672 -43.6008978 29.29852369 -38.46484375 24.19921875 C-37.86370255 23.59616409 -37.26256134 22.99310944 -36.64320374 22.3717804 C-35.38429976 21.11152735 -34.12291458 19.85374825 -32.85913086 18.59838867 C-30.93170804 16.68174042 -29.01527454 14.75456408 -27.09960938 12.82617188 C-25.86782871 11.59571193 -24.63542826 10.36587206 -23.40234375 9.13671875 C-22.83450668 8.56483322 -22.26666962 7.99294769 -21.68162537 7.4037323 C-14.87738997 0.67881113 -9.63884286 -1.17546864 0 0 Z " fill="#544944" transform="translate(397,31)"/>
<path d="M0 0 C0.97582031 -0.04253906 1.95164063 -0.08507812 2.95703125 -0.12890625 C10.22048328 1.42566571 15.88897631 7.9616022 20.98828125 13.09765625 C21.59133591 13.69879745 22.19439056 14.29993866 22.8157196 14.91929626 C24.07597265 16.17820024 25.33375175 17.43958542 26.58911133 18.70336914 C28.50575958 20.63079196 30.43293592 22.54722546 32.36132812 24.46289062 C33.59178807 25.69467129 34.82162794 26.92707174 36.05078125 28.16015625 C36.62266678 28.72799332 37.19455231 29.29583038 37.7837677 29.88087463 C42.52960346 34.68268314 45.61596491 38.47973527 45.625 45.5 C45.48603409 50.6417385 44.8355445 53.71726391 41.1875 57.5625 C37.52118821 60.1615635 34.86243905 61.03678036 30.375 61.125 C29.39917969 61.16753906 28.42335937 61.21007812 27.41796875 61.25390625 C20.15451672 59.69933429 14.48602369 53.1633978 9.38671875 48.02734375 C8.78366409 47.42620255 8.18060944 46.82506134 7.5592804 46.20570374 C6.29902735 44.94679976 5.04124825 43.68541458 3.78588867 42.42163086 C1.86924042 40.49420804 -0.05793592 38.57777454 -1.98632812 36.66210938 C-3.21678807 35.43032871 -4.44662794 34.19792826 -5.67578125 32.96484375 C-6.24766678 32.39700668 -6.81955231 31.82916962 -7.4087677 31.24412537 C-12.15460346 26.44231686 -15.24096491 22.64526473 -15.25 15.625 C-15.11103409 10.4832615 -14.4605445 7.40773609 -10.8125 3.5625 C-7.14618821 0.9634365 -4.48743905 0.08821964 0 0 Z " fill="#544944" transform="translate(150.8125,30.4375)"/>
<path d="M0 0 C3.2695199 3.10185221 5.19600523 5.69600798 5.87109375 10.21484375 C5.87302734 11.71724609 5.87302734 11.71724609 5.875 13.25 C5.89433594 14.24902344 5.91367187 15.24804688 5.93359375 16.27734375 C5.30501561 20.1230541 4.2228912 22.63616875 1.4375 25.3125 C-2.08258102 27.61658713 -5.78789033 29.46305199 -9.5625 31.3125 C-10.60253174 31.83360352 -11.64256348 32.35470703 -12.71411133 32.89160156 C-14.75816877 33.91531085 -16.80472481 34.93404959 -18.85400391 35.94726562 C-21.04912232 37.05372877 -23.19295263 38.19912742 -25.32421875 39.421875 C-32.06359844 43.20096641 -37.83372698 44.65215399 -45.5625 43.3125 C-50.17831142 41.12606301 -52.29114085 38.81650196 -54.5625 34.3125 C-54.99609375 31.41015625 -54.99609375 31.41015625 -55 28.375 C-55.01933594 27.37597656 -55.03867187 26.37695312 -55.05859375 25.34765625 C-54.43001561 21.5019459 -53.3478912 18.98883125 -50.5625 16.3125 C-47.04241898 14.00841287 -43.33710967 12.16194801 -39.5625 10.3125 C-38.52246826 9.79139648 -37.48243652 9.27029297 -36.41088867 8.73339844 C-34.36683123 7.70968915 -32.32027519 6.69095041 -30.27099609 5.67773438 C-28.07587768 4.57127123 -25.93204737 3.42587258 -23.80078125 2.203125 C-15.98212361 -2.181169 -8.40254464 -3.98015273 0 0 Z " fill="#544944" transform="translate(460.5625,92.6875)"/>
<path d="M0 0 C4.99954716 1.6598017 9.65502951 4.10703842 14.30249023 6.5612793 C16.44610438 7.69203882 18.6060212 8.78481174 20.77148438 9.87304688 C22.15994469 10.58381121 23.54735492 11.29663142 24.93359375 12.01171875 C25.57010361 12.33589279 26.20661346 12.66006683 26.8624115 12.99406433 C32.10576682 15.78289822 35.71530409 19.07295614 39 24 C39.68923878 29.55398223 39.7242151 34.47110145 37.3125 39.5625 C33.57364916 43.50345089 30.18137653 45.45975224 24.71484375 45.66796875 C16.81694293 45.45869676 10.54518252 42.0548542 3.69750977 38.4387207 C1.55389562 37.30796118 -0.6060212 36.21518826 -2.77148438 35.12695312 C-4.15994469 34.41618879 -5.54735492 33.70336858 -6.93359375 32.98828125 C-7.57010361 32.66410721 -8.20661346 32.33993317 -8.8624115 32.00593567 C-14.10576682 29.21710178 -17.71530409 25.92704386 -21 21 C-21.68923878 15.44601777 -21.7242151 10.52889855 -19.3125 5.4375 C-13.60107873 -0.58264674 -7.97322749 -1.31912043 0 0 Z " fill="#544944" transform="translate(67,91)"/>
<path d="M0 0 C0.91092911 -0.00524185 1.82185822 -0.0104837 2.76039124 -0.0158844 C4.68261701 -0.02229391 6.60488207 -0.02098148 8.52709961 -0.01245117 C11.45953608 -0.00394431 14.39002157 -0.03271196 17.32226562 -0.06445312 C19.19400984 -0.06606545 21.06575748 -0.06548702 22.9375 -0.0625 C23.80954575 -0.07373398 24.68159149 -0.08496796 25.58006287 -0.09654236 C31.05135915 -0.03427472 34.19909883 0.78346157 38.53515625 4.43359375 C42.59146023 9.65619232 42.30913169 15.08699517 41.53515625 21.43359375 C39.36231821 26.02069627 37.0980721 28.30503943 32.53515625 30.43359375 C29.37932795 30.8790101 26.25358663 30.8778788 23.0703125 30.8671875 C22.15938339 30.87242935 21.24845428 30.8776712 20.30992126 30.8830719 C18.38769549 30.88948141 16.46543043 30.88816898 14.54321289 30.87963867 C11.61077642 30.87113181 8.68029093 30.89989946 5.74804688 30.93164062 C3.87630266 30.93325295 2.00455502 30.93267452 0.1328125 30.9296875 C-0.73923325 30.94092148 -1.61127899 30.95215546 -2.50975037 30.96372986 C-7.98104665 30.90146222 -11.12878633 30.08372593 -15.46484375 26.43359375 C-19.52114773 21.21099518 -19.23881919 15.78019233 -18.46484375 9.43359375 C-14.42692708 0.90910299 -8.62686886 -0.02897407 0 0 Z " fill="#544944" transform="translate(454.46484375,210.56640625)"/>
<path d="M0 0 C0.91092911 -0.00524185 1.82185822 -0.0104837 2.76039124 -0.0158844 C4.68261701 -0.02229391 6.60488207 -0.02098148 8.52709961 -0.01245117 C11.45953608 -0.00394431 14.39002157 -0.03271196 17.32226562 -0.06445312 C19.19400984 -0.06606545 21.06575748 -0.06548702 22.9375 -0.0625 C23.80954575 -0.07373398 24.68159149 -0.08496796 25.58006287 -0.09654236 C31.05135915 -0.03427472 34.19909883 0.78346157 38.53515625 4.43359375 C42.59146023 9.65619232 42.30913169 15.08699517 41.53515625 21.43359375 C39.36231821 26.02069627 37.0980721 28.30503943 32.53515625 30.43359375 C29.37932795 30.8790101 26.25358663 30.8778788 23.0703125 30.8671875 C22.15938339 30.87242935 21.24845428 30.8776712 20.30992126 30.8830719 C18.38769549 30.88948141 16.46543043 30.88816898 14.54321289 30.87963867 C11.61077642 30.87113181 8.68029093 30.89989946 5.74804688 30.93164062 C3.87630266 30.93325295 2.00455502 30.93267452 0.1328125 30.9296875 C-0.73923325 30.94092148 -1.61127899 30.95215546 -2.50975037 30.96372986 C-7.98104665 30.90146222 -11.12878633 30.08372593 -15.46484375 26.43359375 C-19.52114773 21.21099518 -19.23881919 15.78019233 -18.46484375 9.43359375 C-14.42692708 0.90910299 -8.62686886 -0.02897407 0 0 Z " fill="#544944" transform="translate(34.46484375,210.56640625)"/>
</svg>
