<?xml version="1.0" standalone="no"?>
<!DOCTYPE svg PUBLIC "-//W3C//DTD SVG 20010904//EN"
 "http://www.w3.org/TR/2001/REC-SVG-20010904/DTD/svg10.dtd">
<svg version="1.0" xmlns="http://www.w3.org/2000/svg"
 width="211.000000pt" height="185.000000pt" viewBox="0 0 211.000000 185.000000"
 preserveAspectRatio="xMidYMid meet">

<g transform="translate(0.000000,185.000000) scale(0.100000,-0.100000)"
fill="#544944" stroke="none">
<path d="M1896 1786 c-222 -140 -433 -312 -666 -546 -243 -242 -434 -464 -605
-703 -27 -37 -53 -67 -58 -67 -5 0 -21 8 -35 18 -15 11 -52 33 -82 49 -30 17
-128 71 -217 122 -89 50 -166 91 -172 91 -5 0 -13 -5 -16 -10 -6 -10 28 -54
155 -200 27 -30 123 -143 215 -250 92 -107 175 -202 184 -210 9 -8 27 -30 39
-48 13 -17 27 -32 32 -32 4 0 49 78 98 172 312 604 632 1041 1098 1503 123
121 156 165 125 165 -5 0 -47 -24 -95 -54z"/>
</g>
</svg>
