<?xml version="1.0" standalone="no"?>
<!DOCTYPE svg PUBLIC "-//W3C//DTD SVG 20010904//EN"
 "http://www.w3.org/TR/2001/REC-SVG-20010904/DTD/svg10.dtd">
<svg version="1.0" xmlns="http://www.w3.org/2000/svg"
 width="200.000000pt" height="200.000000pt" viewBox="0 0 200.000000 200.000000"
 preserveAspectRatio="xMidYMid meet">

<g transform="translate(0.000000,200.000000) scale(0.100000,-0.100000)"
fill="#000000" stroke="none">
<path d="M59 1921 l-29 -29 0 -887 c0 -616 3 -892 11 -907 25 -47 37 -48 694
-48 671 0 674 0 695 55 6 16 10 166 10 368 l0 342 -128 -128 -127 -127 -147
-55 c-80 -30 -156 -55 -168 -55 -12 0 -35 13 -52 30 l-30 30 -263 0 c-220 0
-265 2 -275 15 -7 8 -10 22 -6 30 5 13 44 15 279 15 l273 0 49 133 49 132 273
275 273 275 0 254 0 253 -29 29 -29 29 -647 0 -647 0 -29 -29z m700 -215 c6
-7 9 -21 5 -30 -5 -14 -35 -16 -260 -16 -218 0 -255 2 -260 15 -4 8 -1 22 6
30 18 21 491 22 509 1z m461 -231 c7 -8 10 -22 6 -30 -5 -13 -67 -15 -491 -15
-424 0 -486 2 -491 15 -4 8 -1 22 6 30 19 23 951 23 970 0z m0 -230 c7 -8 10
-22 6 -30 -5 -13 -67 -15 -491 -15 -424 0 -486 2 -491 15 -4 8 -1 22 6 30 19
23 951 23 970 0z m-215 -235 c3 -11 3 -24 0 -30 -4 -6 -140 -10 -381 -10 -324
0 -375 2 -380 15 -4 8 -4 22 0 30 5 13 56 15 380 15 365 0 375 0 381 -20z
m-185 -225 c10 -12 10 -18 0 -30 -19 -22 -568 -22 -576 0 -4 8 -4 22 0 30 5
13 46 15 284 15 236 0 281 -2 292 -15z"/>
<path d="M1775 1621 c-11 -5 -193 -183 -405 -395 l-385 -386 100 -100 100
-100 315 315 c304 304 317 315 333 297 9 -10 17 -23 17 -28 0 -5 -48 -57 -107
-116 -90 -90 -106 -111 -97 -125 6 -9 16 -19 23 -21 18 -6 219 196 231 233 11
34 1 76 -26 106 -12 13 -9 20 27 55 88 85 90 124 12 205 -60 61 -98 77 -138
60z"/>
<path d="M922 728 c-11 -29 -32 -83 -46 -121 -25 -67 -26 -97 -1 -97 8 0 68
21 135 47 l121 46 -88 89 c-48 48 -91 88 -95 88 -3 0 -15 -24 -26 -52z"/>
</g>
</svg>
