<?xml version="1.0" standalone="no"?>
<!DOCTYPE svg PUBLIC "-//W3C//DTD SVG 20010904//EN"
 "http://www.w3.org/TR/2001/REC-SVG-20010904/DTD/svg10.dtd">
<svg version="1.0" xmlns="http://www.w3.org/2000/svg"
 width="200.000000pt" height="200.000000pt" viewBox="0 0 200.000000 200.000000"
 preserveAspectRatio="xMidYMid meet">

<g transform="translate(0.000000,200.000000) scale(0.100000,-0.100000)"
fill="#544944" stroke="none">
<path d="M718 1827 c-183 -64 -341 -187 -449 -350 -32 -50 -56 -94 -53 -98 3
-5 102 -9 220 -9 163 0 215 3 218 13 1 6 14 60 28 118 32 132 70 227 119 302
20 31 32 57 26 57 -7 0 -55 -15 -109 -33z"/>
<path d="M1183 1829 c58 -78 112 -215 145 -369 l19 -85 213 -3 c118 -1 217 1
222 6 14 14 -107 184 -179 253 -113 107 -275 194 -412 224 l-34 7 26 -33z"/>
<path d="M935 1773 c-20 -20 -49 -64 -65 -97 -32 -67 -76 -212 -82 -266 l-3
-35 215 0 215 0 -3 30 c-5 54 -52 206 -84 272 -17 35 -47 79 -65 98 -46 47
-81 47 -128 -2z"/>
<path d="M150 1210 c-18 -66 -26 -204 -18 -295 4 -46 12 -102 18 -125 l11 -40
240 0 241 0 -6 27 c-9 34 -9 412 0 446 l6 27 -241 0 -240 0 -11 -40z"/>
<path d="M757 1183 c-9 -87 -9 -279 0 -365 l6 -68 237 0 237 0 7 77 c8 97 8
249 0 346 l-7 77 -237 0 -237 0 -6 -67z"/>
<path d="M1365 1000 l0 -250 237 0 237 0 13 43 c8 27 13 102 13 207 0 105 -5
180 -13 208 l-13 42 -237 0 -237 0 0 -250z"/>
<path d="M216 622 c-10 -17 112 -188 181 -253 114 -107 281 -198 411 -222 l33
-7 -25 33 c-57 76 -119 237 -150 387 l-13 65 -216 3 c-118 1 -218 -2 -221 -6z"/>
<path d="M786 622 c-8 -13 30 -164 61 -241 71 -178 143 -231 216 -156 58 60
138 256 149 365 l3 35 -212 3 c-116 1 -214 -1 -217 -6z"/>
<path d="M1345 618 c-2 -7 -9 -40 -16 -73 -26 -138 -89 -297 -146 -373 l-25
-33 29 7 c154 34 303 115 421 228 65 62 186 232 176 247 -3 5 -102 9 -220 9
-163 0 -216 -3 -219 -12z"/>
</g>
</svg>
