<?xml version="1.0" standalone="no"?>
<!DOCTYPE svg PUBLIC "-//W3C//DTD SVG 20010904//EN"
 "http://www.w3.org/TR/2001/REC-SVG-20010904/DTD/svg10.dtd">
<svg version="1.0" xmlns="http://www.w3.org/2000/svg"
 width="200.000000pt" height="200.000000pt" viewBox="0 0 200.000000 200.000000"
 preserveAspectRatio="xMidYMid meet">

<g transform="translate(0.000000,200.000000) scale(0.100000,-0.100000)"
fill="#544944" stroke="none">
<path d="M605 1871 c-48 -12 -74 -29 -90 -61 -13 -25 -15 -132 -15 -805 0
-860 -2 -827 64 -863 28 -15 73 -17 436 -17 363 0 408 2 436 17 66 36 64 4 64
858 0 854 2 822 -64 858 -28 15 -74 17 -416 19 -212 1 -398 -2 -415 -6z m765
-776 l0 -595 -370 0 -370 0 0 595 0 595 370 0 370 0 0 -595z m-302 -691 c34
-39 30 -95 -9 -128 -39 -33 -79 -33 -118 0 -24 20 -31 34 -31 63 0 90 99 132
158 65z"/>
</g>
</svg>
